<svg width="375" height="276" viewBox="0 0 375 276" fill="none" xmlns="http://www.w3.org/2000/svg">
<path d="M336.549 256.948H311.774V257.135H336.549V256.948Z" fill="#EBEBEB"/>
<path d="M247.77 258.982H241.27V259.169H247.77V258.982Z" fill="#EBEBEB"/>
<path d="M311.023 250.006H296.668V250.193H311.023V250.006Z" fill="#EBEBEB"/>
<path d="M71.5506 251.263H39.2423V251.45H71.5506V251.263Z" fill="#EBEBEB"/>
<path d="M82.9501 251.263H78.215V251.45H82.9501V251.263Z" fill="#EBEBEB"/>
<path d="M168.425 254.42H98.3478V254.607H168.425V254.42Z" fill="#EBEBEB"/>
<path d="M177.287 211.549H32.8535C31.7207 211.549 30.6342 211.099 29.8332 210.298C29.0322 209.497 28.5822 208.41 28.5822 207.277V4.23397C28.592 3.10762 29.0464 2.03077 29.8464 1.2378C30.6463 0.444838 31.7271 -4.31819e-05 32.8535 3.14372e-09H177.287C178.42 3.14373e-09 179.506 0.450018 180.308 1.25106C181.109 2.05209 181.559 3.13853 181.559 4.27137V207.277C181.559 208.41 181.109 209.497 180.308 210.298C179.506 211.099 178.42 211.549 177.287 211.549ZM32.8535 0.149611C31.7709 0.151588 30.7332 0.582537 29.9676 1.34807C29.2021 2.11361 28.7711 3.15134 28.7692 4.23397V207.277C28.7711 208.36 29.2021 209.398 29.9676 210.163C30.7332 210.929 31.7709 211.36 32.8535 211.362H177.287C178.37 211.36 179.408 210.929 180.173 210.163C180.939 209.398 181.37 208.36 181.372 207.277V4.23397C181.37 3.15134 180.939 2.11361 180.173 1.34807C179.408 0.582537 178.37 0.151588 177.287 0.149611H32.8535Z" fill="#EBEBEB"/>
<path d="M339.099 211.549H194.651C193.518 211.547 192.433 211.096 191.632 210.296C190.832 209.495 190.381 208.41 190.379 207.277V4.23397C190.391 3.10824 190.846 2.03251 191.646 1.23996C192.445 0.447416 193.525 0.00190625 194.651 0H339.099C340.223 0.00389323 341.3 0.450513 342.097 1.24306C342.893 2.0356 343.346 3.11021 343.356 4.23397V207.277C343.356 208.408 342.908 209.492 342.11 210.292C341.312 211.093 340.229 211.545 339.099 211.549ZM194.651 0.149611C193.568 0.151588 192.53 0.582537 191.765 1.34807C190.999 2.11361 190.568 3.15134 190.566 4.23397V207.277C190.568 208.36 190.999 209.398 191.765 210.163C192.53 210.929 193.568 211.36 194.651 211.362H339.099C340.182 211.36 341.22 210.929 341.985 210.163C342.751 209.398 343.182 208.36 343.184 207.277V4.23397C343.182 3.15134 342.751 2.11361 341.985 1.34807C341.22 0.582537 340.182 0.151588 339.099 0.149611H194.651Z" fill="#EBEBEB"/>
<path d="M374.026 244.912H0.00012207V245.099H374.026V244.912Z" fill="#EBEBEB"/>
<path d="M311.752 29.6748H218.402V129.083H311.752V29.6748Z" fill="#EBEBEB"/>
<path d="M306.14 35.2852H224.012V123.473H306.14V35.2852Z" fill="#F5F5F5"/>
<path d="M256.246 123.473H280.932L304.107 35.2852H279.421L256.246 123.473Z" fill="#FAFAFA"/>
<path d="M267.952 35.2852L244.777 123.473H250.762L273.937 35.2852H267.952Z" fill="#FAFAFA"/>
<path d="M312.925 34.3504H217.219L215.199 29.6377H314.945L312.925 34.3504Z" fill="#F5F5F5"/>
<path d="M312.925 37.0809H217.219L215.199 32.3682H314.945L312.925 37.0809Z" fill="#F0F0F0"/>
<path d="M312.925 39.8114H217.219L215.199 35.0986H314.945L312.925 39.8114Z" fill="#E6E6E6"/>
<path d="M312.925 42.5418H217.219L215.199 37.8291H314.945L312.925 42.5418Z" fill="#E0E0E0"/>
<path d="M318.432 23.7354H211.723V30.019H318.432V23.7354Z" fill="#E0E0E0"/>
<path d="M212.811 86.9908C212.524 86.9908 212.248 86.8766 212.044 86.6731C211.841 86.4697 211.727 86.1938 211.727 85.9062V49.2517C211.727 48.964 211.841 48.6881 212.044 48.4847C212.248 48.2813 212.524 48.167 212.811 48.167C213.099 48.167 213.375 48.2813 213.578 48.4847C213.782 48.6881 213.896 48.964 213.896 49.2517V85.9062C213.896 86.1938 213.782 86.4697 213.578 86.6731C213.375 86.8766 213.099 86.9908 212.811 86.9908Z" fill="#E0E0E0"/>
<path d="M213.204 28.7627H212.418V50.531H213.204V28.7627Z" fill="#E0E0E0"/>
<path d="M67.7138 27.7529H66.3673V132.757H67.7138V27.7529Z" fill="#E0E0E0"/>
<path d="M151.534 27.7529H150.188V132.757H151.534V27.7529Z" fill="#E0E0E0"/>
<path d="M156.815 34.3504H61.0941L59.0743 29.6377H158.827L156.815 34.3504Z" fill="#F5F5F5"/>
<path d="M156.815 40.8211H61.0941L59.0743 36.1084H158.827L156.815 40.8211Z" fill="#F5F5F5"/>
<path d="M156.815 47.2918H61.0941L59.0743 42.5791H158.827L156.815 47.2918Z" fill="#F5F5F5"/>
<path d="M156.815 53.7625H61.0941L59.0743 49.0498H158.827L156.815 53.7625Z" fill="#F5F5F5"/>
<path d="M156.815 60.2332H61.0941L59.0743 55.5205H158.827L156.815 60.2332Z" fill="#F5F5F5"/>
<path d="M156.815 66.7039H61.0941L59.0743 61.9912H158.827L156.815 66.7039Z" fill="#F5F5F5"/>
<path d="M156.815 73.1746H61.0941L59.0743 68.4619H158.827L156.815 73.1746Z" fill="#F5F5F5"/>
<path d="M156.815 79.6453H61.0941L59.0743 74.9326H158.827L156.815 79.6453Z" fill="#F5F5F5"/>
<path d="M156.815 86.116H61.0941L59.0743 81.4033H158.827L156.815 86.116Z" fill="#F5F5F5"/>
<path d="M156.815 92.5867H61.0941L59.0743 87.874H158.827L156.815 92.5867Z" fill="#F5F5F5"/>
<path d="M156.815 99.0565H61.0941L59.0743 94.3438H158.827L156.815 99.0565Z" fill="#F5F5F5"/>
<path d="M156.815 105.52H61.0941L59.0743 100.808H158.827L156.815 105.52Z" fill="#F5F5F5"/>
<path d="M156.815 111.999H61.0941L59.0743 107.278H158.827L156.815 111.999Z" fill="#F5F5F5"/>
<path d="M156.815 118.462H61.0941L59.0743 113.749H158.827L156.815 118.462Z" fill="#F5F5F5"/>
<path d="M156.815 124.932H61.0941L59.0743 120.22H158.827L156.815 124.932Z" fill="#F5F5F5"/>
<path d="M156.815 131.402H61.0941L59.0743 126.689H158.827L156.815 131.402Z" fill="#F5F5F5"/>
<path d="M158.827 131.402H59.0743V134.095H158.827V131.402Z" fill="#E0E0E0"/>
<path d="M162.303 23.7354H55.5939V30.019H162.303V23.7354Z" fill="#E0E0E0"/>
<path d="M56.6942 86.9908C56.4065 86.9908 56.1306 86.8766 55.9272 86.6731C55.7238 86.4697 55.6095 86.1938 55.6095 85.9062V49.2517C55.6095 48.964 55.7238 48.6881 55.9272 48.4847C56.1306 48.2813 56.4065 48.167 56.6942 48.167C56.9818 48.167 57.2577 48.2813 57.4612 48.4847C57.6646 48.6881 57.7788 48.964 57.7788 49.2517V85.9062C57.7788 86.1938 57.6646 86.4697 57.4612 86.6731C57.2577 86.8766 56.9818 86.9908 56.6942 86.9908Z" fill="#E0E0E0"/>
<path d="M57.0824 28.7627H56.297V50.531H57.0824V28.7627Z" fill="#E0E0E0"/>
<path d="M66.8175 200.013C66.7277 200.111 67.2289 200.814 65.1793 200.507C60.1299 199.759 51.3403 197.702 48.8942 192.51C45.4008 185.097 56.2326 187.805 55.8586 184.013C55.4845 180.22 43.1417 180.878 41.8476 175.32C40.5534 169.762 48.9017 172.41 49.0139 169.702C49.1261 166.994 39.4912 168.67 37.5762 162.671C35.6612 156.671 42.9472 161.092 42.1094 158.594C41.2716 156.095 33.1328 144.822 37.5537 143.513C41.9747 142.204 49.4627 153.776 52.3652 155.415C55.2676 157.053 57.811 147.605 61.252 151.6C64.693 155.594 59.2323 169.553 63.6158 172.253C66.8848 174.273 65.9647 168.715 70.2735 169.755C76.1008 171.161 74.1334 191.83 66.8175 200.013Z" fill="#EBEBEB"/>
<path d="M51.233 169.732C52.7187 169.842 54.1843 170.141 55.5942 170.623C54.6594 169.219 53.6217 167.886 52.4898 166.635C52.429 166.563 52.3976 166.471 52.4019 166.377C52.4061 166.283 52.4458 166.194 52.5129 166.128C52.58 166.062 52.6696 166.023 52.7638 166.02C52.858 166.017 52.9498 166.05 53.0209 166.112C55.4609 168.848 57.5492 171.879 59.2372 175.133C60.8305 165.566 56.821 157.18 56.7761 157.12C56.7522 157.054 56.7536 156.982 56.78 156.917C56.8065 156.851 56.8561 156.798 56.9193 156.768C56.9825 156.737 57.0548 156.731 57.1223 156.75C57.1898 156.77 57.2477 156.814 57.2848 156.873C57.3297 156.963 61.601 165.887 59.6636 175.926C60.1797 176.906 60.7034 177.961 61.212 179.091C63.0221 183.118 64.4521 187.305 65.4834 191.598C67.3517 188.073 68.376 184.163 68.4756 180.175C68.4766 180.139 68.4847 180.103 68.4995 180.07C68.5143 180.037 68.5355 180.007 68.5619 179.982C68.5883 179.957 68.6194 179.937 68.6534 179.924C68.6873 179.911 68.7235 179.905 68.7599 179.906C68.7972 179.907 68.834 179.915 68.8681 179.93C68.9022 179.946 68.933 179.967 68.9587 179.994C68.9844 180.021 69.0045 180.053 69.0179 180.088C69.0313 180.123 69.0377 180.16 69.0367 180.198C68.9469 184.474 67.798 188.66 65.6929 192.383C67.6017 200.832 68.2396 209.517 67.5854 218.154C67.5826 218.203 67.57 218.251 67.5486 218.295C67.5271 218.34 67.497 218.379 67.4602 218.412C67.4234 218.444 67.3805 218.47 67.3339 218.486C67.2874 218.502 67.2381 218.508 67.189 218.505H67.1441C67.0536 218.489 66.9725 218.439 66.9171 218.365C66.8617 218.292 66.8359 218.2 66.8449 218.109C67.765 204.644 65.7602 193.865 62.9774 185.681C61.4332 183.892 59.3198 182.69 56.993 182.277C56.921 182.263 56.857 182.221 56.814 182.162C56.771 182.102 56.7521 182.028 56.7611 181.956C56.7657 181.919 56.7775 181.884 56.7959 181.852C56.8142 181.82 56.8388 181.792 56.868 181.77C56.8973 181.748 56.9307 181.731 56.9663 181.722C57.0018 181.713 57.0389 181.711 57.0753 181.716C59.1159 182.068 61.0089 183.01 62.5211 184.424C60.9046 179.871 58.7658 175.521 56.1477 171.46C54.57 170.801 52.8943 170.407 51.1882 170.293C51.1141 170.288 51.0452 170.253 50.9962 170.197C50.9473 170.141 50.9222 170.068 50.9263 169.994C50.9282 169.956 50.9377 169.919 50.9543 169.886C50.971 169.852 50.9944 169.822 51.0231 169.797C51.0518 169.772 51.0853 169.754 51.1214 169.743C51.1575 169.732 51.1955 169.728 51.233 169.732Z" fill="#F5F5F5"/>
<path d="M73.3082 202.879C77.5048 202.954 84.6711 199.057 87.5212 195.272C90.3713 191.487 82.3447 193.776 83.1675 190.783C83.9904 187.791 93.8946 189.998 95.7198 185.667C97.5451 181.335 90.4087 182.338 90.6929 180.124C90.9772 177.909 98.3754 178.366 100.747 173.765C103.118 169.165 96.6175 171.745 97.6349 169.838C98.6522 167.93 106.813 159.911 103.402 158.243C99.9912 156.575 92.3386 164.923 89.7803 165.858C87.222 166.793 86.6161 161.018 83.2798 163.779C79.9434 166.539 82.4419 178.598 78.5221 180.191C75.5973 181.38 76.839 175.852 73.4728 177.251C67.5183 179.697 71.5802 202.842 73.3082 202.879Z" fill="#E0E0E0"/>
<g opacity="0.3">
<path opacity="0.3" d="M73.3082 202.879C77.5048 202.954 84.6711 199.057 87.5212 195.272C90.3713 191.487 82.3447 193.776 83.1675 190.783C83.9904 187.791 93.8946 189.998 95.7198 185.667C97.5451 181.335 90.4087 182.338 90.6929 180.124C90.9772 177.909 98.3754 178.366 100.747 173.765C103.118 169.165 96.6175 171.745 97.6349 169.838C98.6522 167.93 106.813 159.911 103.402 158.243C99.9912 156.575 92.3386 164.923 89.7803 165.858C87.222 166.793 86.6161 161.018 83.2798 163.779C79.9434 166.539 82.4419 178.598 78.5221 180.191C75.5973 181.38 76.839 175.852 73.4728 177.251C67.5183 179.697 71.5802 202.842 73.3082 202.879Z" fill="#E0E0E0"/>
</g>
<path d="M74.6702 197.844C74.6068 197.821 74.5538 197.776 74.5206 197.717C72.9212 194.206 72.2712 190.337 72.6355 186.496C72.633 186.456 72.6392 186.415 72.6538 186.377C72.6684 186.339 72.691 186.305 72.72 186.276C72.7491 186.247 72.7839 186.225 72.8222 186.212C72.8605 186.198 72.9013 186.192 72.9419 186.195C72.9825 186.199 73.0219 186.211 73.0575 186.23C73.093 186.25 73.1239 186.277 73.1481 186.31C73.1722 186.343 73.1891 186.381 73.1974 186.42C73.2058 186.46 73.2055 186.501 73.1965 186.541C72.8832 190.187 73.4661 193.854 74.8946 197.223C76.6291 192.544 78.7666 188.024 81.283 183.714C80.5349 174.737 85.1579 167.331 85.2027 167.256C85.2424 167.194 85.3053 167.15 85.3776 167.134C85.4498 167.118 85.5255 167.131 85.588 167.17C85.6505 167.21 85.6947 167.273 85.7108 167.345C85.7269 167.417 85.7137 167.493 85.674 167.556C83.0003 172.199 81.6571 177.489 81.7916 182.846C84.8078 177.672 88.4069 172.86 92.5187 168.506C92.5525 168.467 92.594 168.435 92.6405 168.413C92.6871 168.391 92.7377 168.379 92.7892 168.377C92.8408 168.376 92.892 168.385 92.9399 168.404C92.9877 168.423 93.0311 168.452 93.0673 168.489C93.1035 168.525 93.1317 168.569 93.1502 168.617C93.1686 168.665 93.1769 168.717 93.1746 168.768C93.1723 168.82 93.1593 168.87 93.1365 168.916C93.1138 168.963 93.0817 169.004 93.0423 169.037C90.0045 172.233 87.2629 175.698 84.8512 179.39C87.3782 178.438 90.0578 177.957 92.7581 177.969C92.8321 177.972 92.9018 178.005 92.9521 178.06C93.0024 178.114 93.0294 178.186 93.0274 178.26C93.0254 178.332 92.9954 178.401 92.9437 178.451C92.892 178.501 92.8227 178.53 92.7506 178.53C89.8479 178.505 86.9702 179.068 84.2901 180.183C82.6377 182.72 81.1147 185.339 79.727 188.03C80.854 187.248 82.1372 186.72 83.4881 186.482C84.8391 186.245 86.2255 186.303 87.5516 186.653C87.6237 186.673 87.6853 186.72 87.7231 186.784C87.7609 186.848 87.7719 186.925 87.7536 186.998C87.7441 187.033 87.7276 187.066 87.7051 187.095C87.6825 187.125 87.6544 187.149 87.6224 187.167C87.5903 187.185 87.555 187.197 87.5185 187.201C87.4819 187.205 87.4449 187.202 87.4095 187.192C85.9718 186.822 84.4652 186.811 83.0224 187.161C81.5796 187.511 80.245 188.21 79.1361 189.197C74.3129 198.758 71.5625 209.23 71.0646 219.927C71.0607 220.023 71.0196 220.115 70.9499 220.182C70.8801 220.249 70.7872 220.286 70.6906 220.286C70.5939 220.286 70.501 220.249 70.4312 220.182C70.3615 220.115 70.3204 220.023 70.3165 219.927C70.6304 212.387 72.0987 204.939 74.6702 197.844Z" fill="#F5F5F5"/>
<path d="M61.483 243.865C57.4809 236.339 54.8478 225.463 54.8478 220.675C54.8672 218.723 55.3154 216.8 56.1609 215.04C57.0063 213.281 58.2282 211.729 59.74 210.494H80.2441C81.756 211.729 82.9779 213.281 83.8233 215.04C84.6687 216.8 85.117 218.723 85.1364 220.675C85.1364 225.448 82.5032 236.324 78.5012 243.865H61.483Z" fill="#F0F0F0"/>
<path d="M183.407 275.814C263.51 275.814 328.447 272.023 328.447 267.346C328.447 262.669 263.51 258.878 183.407 258.878C103.304 258.878 38.3673 262.669 38.3673 267.346C38.3673 272.023 103.304 275.814 183.407 275.814Z" fill="#F5F5F5"/>
<path d="M218.918 48.3542H200.965C200.38 48.3666 199.817 48.5744 199.364 48.9446C198.911 49.3147 198.595 49.8258 198.467 50.3963L198.347 50.9574C198.037 52.3493 197.268 53.5965 196.164 54.4987C195.059 55.4009 193.684 55.9057 192.258 55.9319H175.202C173.85 55.9621 172.54 55.456 171.559 54.524C170.578 53.5921 170.005 52.3099 169.966 50.9574V50.3963C169.952 49.8421 169.719 49.3159 169.318 48.9331C168.917 48.5503 168.381 48.3421 167.827 48.3542H149.873C146.925 48.4066 144.097 49.5378 141.926 51.5337C139.755 53.5297 138.391 56.2521 138.091 59.1859L123.684 224.161C123.532 225.54 123.675 226.936 124.105 228.256C124.534 229.576 125.24 230.789 126.175 231.814C127.11 232.84 128.253 233.654 129.527 234.204C130.801 234.753 132.178 235.025 133.566 235H202.588C205.538 234.946 208.365 233.813 210.536 231.816C212.707 229.819 214.071 227.096 214.37 224.161L228.808 59.1859C228.959 57.8065 228.814 56.4107 228.384 55.0915C227.953 53.7722 227.247 52.5598 226.311 51.535C225.375 50.5102 224.232 49.6965 222.957 49.148C221.683 48.5995 220.306 48.3289 218.918 48.3542Z" fill="#E12B3E"/>
<path opacity="0.7" d="M218.918 48.3542H200.965C200.38 48.3666 199.817 48.5744 199.364 48.9446C198.911 49.3147 198.595 49.8258 198.467 50.3963L198.347 50.9574C198.037 52.3493 197.268 53.5965 196.164 54.4987C195.059 55.4009 193.684 55.9057 192.258 55.9319H175.202C173.85 55.9621 172.54 55.456 171.559 54.524C170.578 53.5921 170.005 52.3099 169.966 50.9574V50.3963C169.952 49.8421 169.719 49.3159 169.318 48.9331C168.917 48.5503 168.381 48.3421 167.827 48.3542H149.873C146.925 48.4066 144.097 49.5378 141.926 51.5337C139.755 53.5297 138.391 56.2521 138.091 59.1859L123.684 224.161C123.532 225.54 123.675 226.936 124.105 228.256C124.534 229.576 125.24 230.789 126.175 231.814C127.11 232.84 128.253 233.654 129.527 234.204C130.801 234.753 132.178 235.025 133.566 235H202.588C205.538 234.946 208.365 233.813 210.536 231.816C212.707 229.819 214.071 227.096 214.37 224.161L228.808 59.1859C228.959 57.8065 228.814 56.4107 228.384 55.0915C227.953 53.7722 227.247 52.5598 226.311 51.535C225.375 50.5102 224.232 49.6965 222.957 49.148C221.683 48.5995 220.306 48.3289 218.918 48.3542Z" fill="white"/>
<path d="M211.925 124.237H175.27C174.962 124.241 174.656 124.181 174.373 124.059C174.09 123.936 173.836 123.756 173.628 123.528C173.42 123.3 173.263 123.031 173.167 122.738C173.071 122.445 173.038 122.134 173.071 121.828L175.831 90.2676C175.897 89.6151 176.2 89.0096 176.683 88.5656C177.165 88.1217 177.794 87.8702 178.45 87.8588H215.104C215.413 87.8527 215.719 87.9125 216.003 88.0343C216.287 88.1561 216.541 88.337 216.749 88.565C216.958 88.793 217.115 89.0629 217.21 89.3565C217.306 89.6501 217.338 89.9607 217.303 90.2676L214.543 121.828C214.476 122.48 214.172 123.084 213.69 123.528C213.208 123.972 212.58 124.224 211.925 124.237Z" fill="white"/>
<path d="M199.732 222.919H138.392C137.625 222.933 136.865 222.784 136.16 222.481C135.456 222.178 134.825 221.728 134.308 221.162C133.791 220.596 133.401 219.926 133.164 219.197C132.926 218.468 132.847 217.697 132.931 216.935C133.097 215.314 133.851 213.811 135.05 212.708C136.249 211.605 137.81 210.98 139.439 210.95H200.779C201.546 210.936 202.307 211.085 203.011 211.388C203.715 211.691 204.347 212.141 204.863 212.707C205.38 213.274 205.77 213.943 206.008 214.672C206.245 215.401 206.324 216.173 206.24 216.935C206.076 218.556 205.322 220.06 204.123 221.163C202.923 222.266 201.361 222.891 199.732 222.919Z" fill="white"/>
<path d="M204.616 79.1812H148.34C147.909 79.1942 147.48 79.1137 147.082 78.9453C146.685 78.7768 146.329 78.5244 146.038 78.2054C145.747 77.8863 145.529 77.5082 145.399 77.0968C145.268 76.6855 145.228 76.2508 145.281 75.8225L145.737 70.5861C145.832 69.6783 146.255 68.8365 146.928 68.2192C147.6 67.6019 148.475 67.2518 149.387 67.2349H205.663C206.093 67.2271 206.519 67.3108 206.914 67.4804C207.309 67.65 207.663 67.9017 207.953 68.2186C208.243 68.5355 208.462 68.9105 208.596 69.3187C208.73 69.7269 208.776 70.1589 208.73 70.5861L208.267 75.8225C208.173 76.7317 207.751 77.5753 207.078 78.1941C206.406 78.8129 205.53 79.1641 204.616 79.1812Z" fill="white"/>
<path d="M216.063 70.4063C216.037 70.6597 215.919 70.8949 215.732 71.0673C215.544 71.2397 215.3 71.3372 215.045 71.3414C214.926 71.3431 214.807 71.3195 214.697 71.2719C214.587 71.2244 214.489 71.1542 214.408 71.0658C214.328 70.9774 214.267 70.8729 214.23 70.7592C214.192 70.6456 214.18 70.5253 214.192 70.4063C214.218 70.1536 214.336 69.9193 214.524 69.7482C214.712 69.577 214.956 69.4811 215.21 69.4787C215.329 69.4759 215.448 69.4986 215.557 69.5453C215.667 69.5919 215.766 69.6615 215.846 69.7493C215.927 69.8371 215.988 69.9411 216.025 70.0545C216.063 70.1678 216.075 70.2877 216.063 70.4063Z" fill="white"/>
<path d="M215.813 73.2047C215.789 73.4575 215.673 73.6926 215.486 73.8651C215.3 74.0376 215.057 74.1354 214.803 74.1397C214.683 74.1415 214.565 74.1178 214.455 74.0703C214.345 74.0228 214.247 73.9525 214.166 73.8641C214.086 73.7758 214.025 73.6713 213.987 73.5576C213.95 73.4439 213.938 73.3236 213.95 73.2047C213.974 72.9519 214.09 72.7168 214.277 72.5443C214.463 72.3718 214.706 72.274 214.96 72.2696C215.08 72.2679 215.198 72.2916 215.308 72.3391C215.418 72.3866 215.516 72.4568 215.597 72.5452C215.678 72.6336 215.738 72.7381 215.776 72.8518C215.813 72.9655 215.826 73.0857 215.813 73.2047Z" fill="white"/>
<path d="M215.574 75.9947C215.549 76.2481 215.431 76.4833 215.243 76.6557C215.056 76.8281 214.812 76.9256 214.557 76.9298C214.437 76.9315 214.319 76.9079 214.209 76.8603C214.099 76.8128 214.001 76.7426 213.92 76.6542C213.839 76.5658 213.779 76.4613 213.741 76.3476C213.704 76.234 213.691 76.1137 213.704 75.9947C213.73 75.7413 213.848 75.5061 214.035 75.3338C214.223 75.1614 214.467 75.0639 214.721 75.0597C214.841 75.0579 214.96 75.0816 215.069 75.1291C215.179 75.1766 215.278 75.2469 215.358 75.3353C215.439 75.4237 215.5 75.5281 215.537 75.6418C215.574 75.7555 215.587 75.8758 215.574 75.9947Z" fill="white"/>
<path d="M207.369 176.301H138.9C138.591 176.307 138.285 176.248 138.001 176.126C137.718 176.004 137.463 175.823 137.255 175.595C137.047 175.367 136.89 175.097 136.794 174.804C136.699 174.51 136.667 174.199 136.701 173.893L139.888 137.874C139.953 137.221 140.256 136.616 140.739 136.172C141.221 135.728 141.85 135.476 142.506 135.465H210.952C211.261 135.46 211.566 135.521 211.849 135.643C212.132 135.765 212.385 135.946 212.593 136.174C212.8 136.402 212.956 136.672 213.052 136.965C213.147 137.258 213.178 137.568 213.144 137.874L209.995 173.893C209.929 174.546 209.625 175.153 209.141 175.597C208.657 176.041 208.026 176.292 207.369 176.301Z" fill="white"/>
<path d="M157.737 183.826H136.417C136.343 183.827 136.269 183.813 136.2 183.784C136.131 183.754 136.07 183.71 136.019 183.655C135.969 183.6 135.931 183.534 135.908 183.463C135.885 183.392 135.878 183.317 135.886 183.242C135.901 183.083 135.974 182.935 136.091 182.825C136.209 182.716 136.362 182.655 136.522 182.652H157.842C157.917 182.65 157.992 182.664 158.061 182.694C158.131 182.724 158.193 182.769 158.243 182.825C158.293 182.881 158.331 182.947 158.354 183.02C158.376 183.092 158.383 183.168 158.373 183.242C158.356 183.401 158.283 183.547 158.165 183.655C158.048 183.762 157.896 183.823 157.737 183.826Z" fill="white"/>
<path d="M184.382 183.826H161.499C161.424 183.829 161.349 183.815 161.279 183.786C161.21 183.757 161.147 183.713 161.096 183.658C161.045 183.602 161.006 183.537 160.983 183.465C160.96 183.393 160.952 183.317 160.961 183.242C160.975 183.083 161.048 182.935 161.166 182.825C161.283 182.716 161.436 182.655 161.596 182.652H184.487C184.562 182.65 184.637 182.664 184.706 182.694C184.776 182.724 184.838 182.769 184.888 182.825C184.939 182.881 184.976 182.947 184.999 183.02C185.021 183.092 185.028 183.168 185.018 183.242C185.002 183.401 184.928 183.547 184.811 183.655C184.693 183.762 184.541 183.823 184.382 183.826Z" fill="white"/>
<path d="M150.36 189.025H135.968C135.892 189.026 135.817 189.012 135.747 188.982C135.678 188.952 135.615 188.907 135.564 188.851C135.513 188.795 135.475 188.729 135.452 188.657C135.428 188.585 135.421 188.509 135.429 188.434C135.446 188.275 135.519 188.127 135.636 188.019C135.753 187.91 135.906 187.847 136.065 187.843H150.488C150.563 187.842 150.638 187.858 150.707 187.888C150.776 187.918 150.837 187.963 150.888 188.019C150.939 188.074 150.977 188.14 151.001 188.212C151.025 188.283 151.033 188.359 151.026 188.434C151.009 188.598 150.932 188.749 150.808 188.859C150.685 188.968 150.525 189.027 150.36 189.025Z" fill="white"/>
<path d="M177.767 189.025H154.144C154.068 189.026 153.993 189.012 153.923 188.982C153.854 188.952 153.791 188.908 153.74 188.852C153.689 188.796 153.651 188.729 153.627 188.657C153.604 188.585 153.597 188.509 153.605 188.434C153.622 188.274 153.696 188.125 153.815 188.016C153.933 187.907 154.087 187.846 154.248 187.843H177.864C177.94 187.841 178.015 187.856 178.085 187.886C178.154 187.916 178.217 187.96 178.268 188.016C178.319 188.072 178.357 188.138 178.381 188.21C178.404 188.282 178.412 188.359 178.403 188.434C178.388 188.593 178.315 188.742 178.198 188.851C178.081 188.96 177.927 189.022 177.767 189.025Z" fill="white"/>
<path d="M173.953 194.216H135.511C135.435 194.219 135.36 194.205 135.291 194.176C135.221 194.147 135.159 194.104 135.108 194.048C135.056 193.993 135.018 193.927 134.994 193.855C134.971 193.784 134.963 193.708 134.972 193.633C134.989 193.473 135.063 193.324 135.182 193.215C135.3 193.107 135.454 193.045 135.615 193.042H174.058C174.133 193.042 174.208 193.057 174.277 193.087C174.346 193.118 174.408 193.162 174.458 193.218C174.509 193.273 174.548 193.339 174.571 193.411C174.595 193.482 174.604 193.558 174.596 193.633C174.578 193.792 174.503 193.938 174.385 194.046C174.266 194.153 174.113 194.214 173.953 194.216Z" fill="white"/>
<path d="M180.281 194.217H177.745C177.67 194.219 177.595 194.206 177.525 194.177C177.456 194.148 177.393 194.104 177.342 194.048C177.291 193.993 177.252 193.927 177.229 193.856C177.206 193.784 177.198 193.708 177.207 193.633C177.221 193.474 177.294 193.325 177.412 193.216C177.529 193.107 177.682 193.045 177.843 193.042H180.386C180.461 193.04 180.536 193.055 180.606 193.085C180.675 193.115 180.737 193.159 180.787 193.216C180.838 193.272 180.875 193.338 180.898 193.41C180.92 193.482 180.927 193.558 180.917 193.633C180.901 193.791 180.827 193.938 180.71 194.045C180.593 194.153 180.44 194.214 180.281 194.217Z" fill="white"/>
<path d="M152.998 199.415H135.045C134.97 199.416 134.895 199.4 134.826 199.37C134.757 199.34 134.695 199.295 134.645 199.24C134.594 199.184 134.555 199.118 134.532 199.047C134.508 198.975 134.499 198.899 134.507 198.824C134.523 198.664 134.598 198.516 134.716 198.407C134.835 198.298 134.989 198.236 135.15 198.234H153.103C153.179 198.232 153.254 198.247 153.324 198.276C153.393 198.306 153.456 198.351 153.507 198.407C153.558 198.463 153.596 198.529 153.619 198.601C153.643 198.673 153.65 198.749 153.642 198.824C153.625 198.985 153.551 199.133 153.432 199.242C153.314 199.351 153.159 199.413 152.998 199.415Z" fill="white"/>
<path d="M179.116 199.415H156.764C156.689 199.416 156.614 199.4 156.545 199.37C156.476 199.34 156.414 199.295 156.363 199.24C156.313 199.184 156.274 199.118 156.25 199.047C156.227 198.975 156.218 198.899 156.225 198.824C156.242 198.664 156.316 198.516 156.435 198.407C156.553 198.298 156.708 198.236 156.869 198.234H179.213C179.289 198.232 179.364 198.247 179.433 198.276C179.503 198.306 179.565 198.351 179.616 198.407C179.667 198.463 179.706 198.529 179.729 198.601C179.752 198.673 179.76 198.749 179.752 198.824C179.735 198.983 179.662 199.131 179.545 199.24C179.428 199.348 179.275 199.411 179.116 199.415Z" fill="white"/>
<path d="M156.703 204.607H134.598C134.523 204.609 134.448 204.594 134.378 204.565C134.309 204.535 134.247 204.49 134.197 204.434C134.146 204.378 134.109 204.311 134.086 204.239C134.064 204.167 134.057 204.091 134.067 204.016C134.083 203.858 134.157 203.712 134.274 203.604C134.391 203.497 134.544 203.436 134.703 203.433H156.8C156.876 203.43 156.951 203.444 157.02 203.473C157.09 203.502 157.152 203.546 157.203 203.601C157.255 203.656 157.293 203.722 157.317 203.794C157.34 203.866 157.348 203.942 157.339 204.016C157.324 204.176 157.251 204.324 157.134 204.433C157.017 204.542 156.863 204.604 156.703 204.607Z" fill="white"/>
<path d="M178.261 204.607H160.457C160.382 204.609 160.307 204.594 160.238 204.565C160.169 204.535 160.107 204.49 160.056 204.434C160.006 204.378 159.968 204.311 159.946 204.239C159.923 204.167 159.917 204.091 159.926 204.016C159.943 203.858 160.017 203.712 160.134 203.604C160.251 203.497 160.403 203.436 160.562 203.433H178.366C178.441 203.43 178.516 203.444 178.586 203.473C178.655 203.502 178.718 203.546 178.769 203.601C178.82 203.656 178.859 203.722 178.882 203.794C178.905 203.866 178.913 203.942 178.904 204.016C178.888 204.177 178.813 204.325 178.695 204.434C178.576 204.543 178.422 204.605 178.261 204.607Z" fill="white"/>
<path d="M211.058 121.245C210.993 121.319 210.914 121.38 210.825 121.424C210.736 121.468 210.64 121.494 210.541 121.5C210.442 121.506 210.343 121.493 210.249 121.461C210.156 121.428 210.069 121.378 209.996 121.312L179.378 92.0931C179.238 91.9529 179.16 91.7633 179.16 91.5657C179.16 91.3681 179.238 91.1785 179.378 91.0383C179.443 90.9636 179.522 90.9026 179.611 90.8587C179.699 90.8148 179.796 90.789 179.895 90.7827C179.994 90.7765 180.093 90.7899 180.186 90.8222C180.28 90.8545 180.366 90.9051 180.44 90.971L211.058 120.19C211.197 120.33 211.275 120.52 211.275 120.717C211.275 120.915 211.197 121.104 211.058 121.245Z" fill="#E12B3E"/>
<path d="M176.67 121.236C176.609 121.157 176.565 121.066 176.54 120.969C176.515 120.872 176.509 120.771 176.524 120.672C176.538 120.573 176.573 120.478 176.625 120.392C176.677 120.307 176.746 120.233 176.827 120.174L192.446 107.405C192.595 107.277 192.788 107.212 192.984 107.224C193.18 107.237 193.363 107.326 193.494 107.472C193.553 107.552 193.597 107.642 193.621 107.738C193.646 107.834 193.651 107.934 193.636 108.033C193.621 108.131 193.587 108.225 193.536 108.31C193.485 108.395 193.417 108.469 193.337 108.527L177.717 121.304C177.569 121.432 177.376 121.497 177.18 121.485C176.984 121.472 176.801 121.383 176.67 121.236Z" fill="#E12B3E"/>
<path d="M196.85 104.727C196.79 104.648 196.747 104.557 196.722 104.461C196.698 104.365 196.693 104.265 196.708 104.167C196.722 104.069 196.756 103.974 196.808 103.889C196.859 103.804 196.927 103.731 197.007 103.672L212.656 90.8806C212.805 90.7521 212.998 90.6872 213.194 90.6998C213.39 90.7124 213.573 90.8015 213.703 90.9479C213.763 91.0272 213.807 91.1175 213.831 91.2137C213.855 91.3099 213.861 91.41 213.846 91.5082C213.831 91.6063 213.797 91.7006 213.746 91.7855C213.694 91.8704 213.627 91.9442 213.546 92.0027L197.897 104.794C197.749 104.923 197.556 104.988 197.36 104.975C197.164 104.963 196.981 104.873 196.85 104.727Z" fill="#E12B3E"/>
<g opacity="0.7">
<path opacity="0.7" d="M211.058 121.245C210.993 121.32 210.914 121.381 210.825 121.425C210.736 121.469 210.64 121.494 210.541 121.501C210.442 121.507 210.343 121.494 210.249 121.461C210.156 121.429 210.069 121.378 209.996 121.312L179.378 92.0936C179.238 91.9534 179.16 91.7638 179.16 91.5662C179.16 91.3686 179.238 91.179 179.378 91.0388C179.443 90.9641 179.522 90.9031 179.611 90.8592C179.699 90.8153 179.796 90.7895 179.895 90.7832C179.994 90.777 180.093 90.7904 180.186 90.8227C180.28 90.855 180.366 90.9056 180.44 90.9715L211.058 120.19C211.197 120.331 211.275 120.52 211.275 120.718C211.275 120.915 211.197 121.105 211.058 121.245Z" fill="white"/>
</g>
<g opacity="0.7">
<path opacity="0.7" d="M176.67 121.237C176.609 121.157 176.565 121.067 176.54 120.97C176.515 120.873 176.509 120.772 176.524 120.673C176.538 120.574 176.573 120.478 176.625 120.393C176.677 120.307 176.746 120.233 176.827 120.175L192.446 107.405C192.595 107.277 192.788 107.212 192.984 107.225C193.18 107.237 193.363 107.326 193.494 107.473C193.553 107.552 193.597 107.642 193.621 107.739C193.646 107.835 193.651 107.935 193.636 108.033C193.621 108.131 193.587 108.226 193.536 108.31C193.485 108.395 193.417 108.469 193.337 108.528L177.717 121.304C177.569 121.433 177.376 121.498 177.18 121.485C176.984 121.472 176.801 121.383 176.67 121.237Z" fill="white"/>
</g>
<g opacity="0.7">
<path opacity="0.7" d="M196.85 104.727C196.79 104.648 196.747 104.557 196.722 104.461C196.698 104.365 196.693 104.265 196.708 104.167C196.722 104.069 196.756 103.974 196.808 103.889C196.859 103.804 196.927 103.731 197.007 103.672L212.656 90.8806C212.805 90.7521 212.998 90.6872 213.194 90.6998C213.39 90.7124 213.573 90.8015 213.703 90.9479C213.763 91.0272 213.807 91.1175 213.831 91.2137C213.855 91.3099 213.861 91.41 213.846 91.5082C213.831 91.6063 213.797 91.7006 213.746 91.7855C213.694 91.8704 213.627 91.9442 213.546 92.0027L197.897 104.794C197.749 104.923 197.556 104.988 197.36 104.975C197.164 104.963 196.981 104.873 196.85 104.727Z" fill="white"/>
</g>
<path d="M123.982 44.7637H114.257C113.315 44.7677 112.413 45.1446 111.749 45.8119C111.084 46.4792 110.711 47.3827 110.711 48.3244V58.0491C110.711 58.9935 111.086 59.8991 111.754 60.5669C112.422 61.2347 113.328 61.6098 114.272 61.6098H123.997C124.941 61.6098 125.847 61.2347 126.514 60.5669C127.182 59.8991 127.557 58.9935 127.557 58.0491V48.3244C127.557 47.8556 127.465 47.3913 127.285 46.9583C127.105 46.5254 126.841 46.1322 126.509 45.8013C126.177 45.4705 125.783 45.2085 125.349 45.0304C124.915 44.8524 124.45 44.7617 123.982 44.7637ZM119.142 48.2047C120.6 48.2047 121.386 49.3941 121.386 50.8528C121.386 52.3115 120.6 53.5009 119.142 53.5009C117.683 53.5009 116.898 52.319 116.898 50.8528C116.898 49.3867 117.676 48.2047 119.142 48.2047ZM124.984 58.1314H113.292C113.245 58.1315 113.198 58.1223 113.154 58.1043C113.111 58.0864 113.071 58.06 113.038 58.0267L113.786 55.9845C114.019 55.3405 114.445 54.7839 115.006 54.3904C115.567 53.997 116.235 53.7857 116.92 53.7852H121.341C122.027 53.7852 122.696 53.9962 123.259 54.3896C123.821 54.7831 124.248 55.3399 124.483 55.9845L125.231 58.0267C125.199 58.0597 125.16 58.0861 125.118 58.104C125.076 58.122 125.03 58.1313 124.984 58.1314Z" fill="#E12B3E"/>
<path opacity="0.7" d="M123.982 44.7637H114.257C113.315 44.7677 112.413 45.1446 111.749 45.8119C111.084 46.4792 110.711 47.3827 110.711 48.3244V58.0491C110.711 58.9935 111.086 59.8991 111.754 60.5669C112.422 61.2347 113.328 61.6098 114.272 61.6098H123.997C124.941 61.6098 125.847 61.2347 126.514 60.5669C127.182 59.8991 127.557 58.9935 127.557 58.0491V48.3244C127.557 47.8556 127.465 47.3913 127.285 46.9583C127.105 46.5254 126.841 46.1322 126.509 45.8013C126.177 45.4705 125.783 45.2085 125.349 45.0304C124.915 44.8524 124.45 44.7617 123.982 44.7637ZM119.142 48.2047C120.6 48.2047 121.386 49.3941 121.386 50.8528C121.386 52.3115 120.6 53.5009 119.142 53.5009C117.683 53.5009 116.898 52.319 116.898 50.8528C116.898 49.3867 117.676 48.2047 119.142 48.2047ZM124.984 58.1314H113.292C113.245 58.1315 113.198 58.1223 113.154 58.1043C113.111 58.0864 113.071 58.06 113.038 58.0267L113.786 55.9845C114.019 55.3405 114.445 54.7839 115.006 54.3904C115.567 53.997 116.235 53.7857 116.92 53.7852H121.341C122.027 53.7852 122.696 53.9962 123.259 54.3896C123.821 54.7831 124.248 55.3399 124.483 55.9845L125.231 58.0267C125.199 58.0597 125.16 58.0861 125.118 58.104C125.076 58.122 125.03 58.1313 124.984 58.1314Z" fill="white"/>
<path d="M89.5114 84.6196H82.1506C81.5213 84.6187 80.8979 84.7418 80.3162 84.9819C79.7345 85.2221 79.2058 85.5746 78.7605 86.0192C78.3151 86.4639 77.9618 86.992 77.7207 87.5733C77.4797 88.1547 77.3556 88.7778 77.3556 89.4072V96.768C77.3556 98.0397 77.8608 99.2593 78.76 100.159C79.6593 101.058 80.8789 101.563 82.1506 101.563H89.5114C90.1408 101.563 90.7639 101.439 91.3453 101.198C91.9266 100.957 92.4547 100.603 92.8994 100.158C93.344 99.7128 93.6965 99.1841 93.9367 98.6024C94.1768 98.0207 94.2999 97.3973 94.2989 96.768V89.4072C94.2999 88.7782 94.1768 88.1552 93.9365 87.5739C93.6963 86.9926 93.3437 86.4644 92.8989 86.0197C92.4542 85.5749 91.926 85.2223 91.3447 84.9821C90.7634 84.7418 90.1404 84.6186 89.5114 84.6196ZM85.831 97.1046C85.831 97.1046 82.8388 93.8207 82.8388 92.145C82.8388 91.3425 83.1576 90.5729 83.7251 90.0054C84.2925 89.438 85.0622 89.1192 85.8647 89.1192C86.6672 89.1192 87.4368 89.438 88.0043 90.0054C88.5717 90.5729 88.8905 91.3425 88.8905 92.145C88.8531 93.8207 85.831 97.1046 85.831 97.1046Z" fill="#E12B3E"/>
<path d="M85.8329 90.7686C85.5585 90.7671 85.29 90.8472 85.0612 90.9987C84.8325 91.1502 84.654 91.3662 84.5483 91.6194C84.4426 91.8726 84.4146 92.1515 84.4678 92.4206C84.5209 92.6898 84.6529 92.937 84.8469 93.131C85.0409 93.325 85.2881 93.457 85.5573 93.5101C85.8264 93.5633 86.1053 93.5352 86.3585 93.4296C86.6116 93.3239 86.8277 93.1454 86.9792 92.9166C87.1307 92.6879 87.2108 92.4193 87.2093 92.145C87.2093 91.7799 87.0643 91.4298 86.8062 91.1717C86.548 90.9136 86.1979 90.7686 85.8329 90.7686Z" fill="#E12B3E"/>
<g opacity="0.7">
<path opacity="0.7" d="M89.5114 84.6196H82.1506C81.5213 84.6187 80.8979 84.7418 80.3162 84.9819C79.7345 85.2221 79.2058 85.5746 78.7605 86.0192C78.3151 86.4639 77.9618 86.992 77.7207 87.5733C77.4797 88.1547 77.3556 88.7778 77.3556 89.4072V96.768C77.3556 98.0397 77.8608 99.2593 78.76 100.159C79.6593 101.058 80.8789 101.563 82.1506 101.563H89.5114C90.1408 101.563 90.7639 101.439 91.3453 101.198C91.9266 100.957 92.4547 100.603 92.8994 100.158C93.344 99.7128 93.6965 99.1841 93.9367 98.6024C94.1768 98.0207 94.2999 97.3973 94.2989 96.768V89.4072C94.2999 88.7782 94.1768 88.1552 93.9365 87.5739C93.6963 86.9926 93.3437 86.4644 92.8989 86.0197C92.4542 85.5749 91.926 85.2223 91.3447 84.9821C90.7634 84.7418 90.1404 84.6186 89.5114 84.6196ZM85.831 97.1046C85.831 97.1046 82.8388 93.8207 82.8388 92.145C82.8388 91.3425 83.1576 90.5729 83.7251 90.0054C84.2925 89.438 85.0622 89.1192 85.8647 89.1192C86.6672 89.1192 87.4368 89.438 88.0043 90.0054C88.5717 90.5729 88.8905 91.3425 88.8905 92.145C88.8531 93.8207 85.831 97.1046 85.831 97.1046Z" fill="white"/>
<path opacity="0.7" d="M85.8329 90.7691C85.5585 90.7676 85.29 90.8477 85.0612 90.9992C84.8325 91.1507 84.654 91.3667 84.5483 91.6199C84.4426 91.8731 84.4146 92.152 84.4678 92.4211C84.5209 92.6902 84.6529 92.9375 84.8469 93.1315C85.0409 93.3255 85.2881 93.4574 85.5573 93.5106C85.8264 93.5638 86.1053 93.5357 86.3585 93.4301C86.6116 93.3244 86.8277 93.1459 86.9792 92.9171C87.1307 92.6884 87.2108 92.4198 87.2093 92.1455C87.2093 91.7804 87.0643 91.4303 86.8062 91.1722C86.548 90.9141 86.1979 90.7691 85.8329 90.7691Z" fill="white"/>
</g>
<path d="M251.121 63.7569L256.051 60.5702L251.121 57.376V63.7569Z" fill="#E12B3E"/>
<path d="M257.472 51.8701H248.076C247.015 51.8701 245.997 52.2918 245.247 53.0423C244.496 53.7928 244.074 54.8108 244.074 55.8722V65.2677C244.076 66.3285 244.499 67.3453 245.249 68.0954C245.999 68.8455 247.016 69.2678 248.076 69.2698H257.472C258.533 69.2698 259.551 68.8481 260.302 68.0976C261.052 67.3471 261.474 66.3291 261.474 65.2677V55.8722C261.475 55.3464 261.372 54.8255 261.171 54.3395C260.971 53.8535 260.676 53.4119 260.304 53.0401C259.932 52.6683 259.491 52.3735 259.005 52.1728C258.519 51.972 257.998 51.8691 257.472 51.8701ZM252.774 66.8311C251.536 66.8311 250.325 66.4637 249.295 65.7754C248.265 65.0871 247.463 64.1088 246.989 62.9643C246.515 61.8198 246.392 60.5605 246.634 59.3457C246.876 58.131 247.473 57.0153 248.349 56.14C249.226 55.2646 250.342 54.6689 251.557 54.4282C252.772 54.1874 254.031 54.3125 255.175 54.7875C256.319 55.2626 257.297 56.0662 257.984 57.0969C258.671 58.1275 259.037 59.3388 259.035 60.5774C259.034 61.3987 258.872 62.2117 258.556 62.9701C258.241 63.7284 257.78 64.4173 257.198 64.9973C256.617 65.5773 255.927 66.0371 255.168 66.3505C254.409 66.6639 253.595 66.8247 252.774 66.8237V66.8311Z" fill="#E12B3E"/>
<g opacity="0.7">
<path opacity="0.7" d="M251.121 63.7569L256.051 60.5702L251.121 57.376V63.7569Z" fill="white"/>
<path opacity="0.7" d="M257.472 51.8701H248.076C247.015 51.8701 245.997 52.2918 245.247 53.0423C244.496 53.7928 244.074 54.8108 244.074 55.8722V65.2677C244.076 66.3285 244.499 67.3453 245.249 68.0954C245.999 68.8455 247.016 69.2678 248.076 69.2698H257.472C258.533 69.2698 259.551 68.8481 260.302 68.0976C261.052 67.3471 261.474 66.3291 261.474 65.2677V55.8722C261.475 55.3464 261.372 54.8255 261.171 54.3395C260.971 53.8535 260.676 53.4119 260.304 53.0401C259.932 52.6683 259.491 52.3735 259.005 52.1728C258.519 51.972 257.998 51.8691 257.472 51.8701ZM252.774 66.8311C251.536 66.8311 250.325 66.4637 249.295 65.7754C248.265 65.0871 247.463 64.1088 246.989 62.9643C246.515 61.8198 246.392 60.5605 246.634 59.3457C246.876 58.131 247.473 57.0153 248.349 56.14C249.226 55.2646 250.342 54.6689 251.557 54.4282C252.772 54.1874 254.031 54.3125 255.175 54.7875C256.319 55.2626 257.297 56.0662 257.984 57.0969C258.671 58.1275 259.037 59.3388 259.035 60.5774C259.034 61.3987 258.872 62.2117 258.556 62.9701C258.241 63.7284 257.78 64.4173 257.198 64.9973C256.617 65.5773 255.927 66.0371 255.168 66.3505C254.409 66.6639 253.595 66.8247 252.774 66.8237V66.8311Z" fill="white"/>
</g>
<path d="M266.696 87.9039C266.696 87.7094 266.696 87.5149 266.696 87.3279L267.826 86.6995C267.744 86.1647 267.603 85.6404 267.407 85.1361H266.12C265.957 84.7849 265.761 84.4494 265.537 84.1337L266.202 83.0341C265.861 82.6119 265.478 82.2259 265.058 81.8821L263.951 82.5478C263.637 82.3273 263.304 82.1346 262.956 81.9718V80.6777C262.45 80.4865 261.926 80.3462 261.393 80.2588L260.764 81.3884C260.577 81.3884 260.383 81.3884 260.188 81.3884C259.994 81.3884 259.807 81.3884 259.612 81.3884L258.984 80.2588C258.45 80.348 257.927 80.4883 257.42 80.6777V81.9718C257.072 82.1329 256.739 82.3257 256.425 82.5478L255.318 81.8821C254.894 82.2238 254.508 82.61 254.166 83.0341L254.832 84.1337C254.613 84.4513 254.42 84.7866 254.256 85.1361H252.969C252.774 85.6413 252.631 86.1651 252.543 86.6995L253.673 87.3279C253.673 87.5149 253.673 87.7094 253.673 87.9039C253.673 88.0984 253.673 88.2929 253.673 88.4799L252.543 89.1082C252.63 89.6428 252.773 90.1668 252.969 90.6717H254.256C254.42 91.0212 254.613 91.3564 254.832 91.6741L254.166 92.7812C254.51 93.2011 254.896 93.5846 255.318 93.9257L256.425 93.2599C256.737 93.4847 257.07 93.6777 257.42 93.8359V95.13C257.926 95.3228 258.45 95.4632 258.984 95.549L259.612 94.4194C259.807 94.4194 259.994 94.4194 260.188 94.4194C260.383 94.4194 260.577 94.4194 260.764 94.4194L261.393 95.549C261.927 95.4651 262.451 95.3247 262.956 95.13V93.8359C263.305 93.676 263.638 93.4832 263.951 93.2599L265.058 93.9257C265.476 93.5825 265.859 93.1992 266.202 92.7812L265.537 91.6741C265.761 91.3584 265.957 91.0228 266.12 90.6717H267.407C267.604 90.1677 267.745 89.6433 267.826 89.1082L266.696 88.4799C266.681 88.2704 266.696 88.0984 266.696 87.9039ZM260.173 92.3323C259.297 92.3323 258.441 92.0726 257.713 91.586C256.985 91.0994 256.417 90.4078 256.082 89.5986C255.747 88.7894 255.659 87.899 255.83 87.0399C256.001 86.1809 256.422 85.3918 257.042 84.7725C257.661 84.1531 258.45 83.7314 259.309 83.5605C260.168 83.3896 261.059 83.4773 261.868 83.8125C262.677 84.1477 263.369 84.7153 263.855 85.4436C264.342 86.1718 264.602 87.028 264.602 87.9039C264.602 89.0784 264.135 90.2048 263.305 91.0353C262.474 91.8658 261.348 92.3323 260.173 92.3323Z" fill="#E12B3E"/>
<path opacity="0.7" d="M266.696 87.9039C266.696 87.7094 266.696 87.5149 266.696 87.3279L267.826 86.6995C267.744 86.1647 267.603 85.6404 267.407 85.1361H266.12C265.957 84.7849 265.761 84.4494 265.537 84.1337L266.202 83.0341C265.861 82.6119 265.478 82.2259 265.058 81.8821L263.951 82.5478C263.637 82.3273 263.304 82.1346 262.956 81.9718V80.6777C262.45 80.4865 261.926 80.3462 261.393 80.2588L260.764 81.3884C260.577 81.3884 260.383 81.3884 260.188 81.3884C259.994 81.3884 259.807 81.3884 259.612 81.3884L258.984 80.2588C258.45 80.348 257.927 80.4883 257.42 80.6777V81.9718C257.072 82.1329 256.739 82.3257 256.425 82.5478L255.318 81.8821C254.894 82.2238 254.508 82.61 254.166 83.0341L254.832 84.1337C254.613 84.4513 254.42 84.7866 254.256 85.1361H252.969C252.774 85.6413 252.631 86.1651 252.543 86.6995L253.673 87.3279C253.673 87.5149 253.673 87.7094 253.673 87.9039C253.673 88.0984 253.673 88.2929 253.673 88.4799L252.543 89.1082C252.63 89.6428 252.773 90.1668 252.969 90.6717H254.256C254.42 91.0212 254.613 91.3564 254.832 91.6741L254.166 92.7812C254.51 93.2011 254.896 93.5846 255.318 93.9257L256.425 93.2599C256.737 93.4847 257.07 93.6777 257.42 93.8359V95.13C257.926 95.3228 258.45 95.4632 258.984 95.549L259.612 94.4194C259.807 94.4194 259.994 94.4194 260.188 94.4194C260.383 94.4194 260.577 94.4194 260.764 94.4194L261.393 95.549C261.927 95.4651 262.451 95.3247 262.956 95.13V93.8359C263.305 93.676 263.638 93.4832 263.951 93.2599L265.058 93.9257C265.476 93.5825 265.859 93.1992 266.202 92.7812L265.537 91.6741C265.761 91.3584 265.957 91.0228 266.12 90.6717H267.407C267.604 90.1677 267.745 89.6433 267.826 89.1082L266.696 88.4799C266.681 88.2704 266.696 88.0984 266.696 87.9039ZM260.173 92.3323C259.297 92.3323 258.441 92.0726 257.713 91.586C256.985 91.0994 256.417 90.4078 256.082 89.5986C255.747 88.7894 255.659 87.899 255.83 87.0399C256.001 86.1809 256.422 85.3918 257.042 84.7725C257.661 84.1531 258.45 83.7314 259.309 83.5605C260.168 83.3896 261.059 83.4773 261.868 83.8125C262.677 84.1477 263.369 84.7153 263.855 85.4436C264.342 86.1718 264.602 87.028 264.602 87.9039C264.602 89.0784 264.135 90.2048 263.305 91.0353C262.474 91.8658 261.348 92.3323 260.173 92.3323Z" fill="white"/>
<path d="M249.648 110.143C249.648 109.852 249.648 109.567 249.61 109.283L251.301 108.348C251.174 107.545 250.963 106.758 250.672 105.999L248.742 106.037C248.499 105.513 248.208 105.012 247.875 104.541L248.87 102.887C248.36 102.258 247.786 101.684 247.157 101.174L245.503 102.162C245.03 101.833 244.529 101.546 244.007 101.301V99.3715C243.251 99.08 242.466 98.8694 241.666 98.7432L240.731 100.434C240.447 100.434 240.162 100.434 239.871 100.434C239.579 100.434 239.295 100.434 239.01 100.434L238.098 98.7432C237.298 98.8713 236.513 99.0819 235.756 99.3715V101.301C235.234 101.545 234.733 101.833 234.26 102.162L232.644 101.174C232.013 101.684 231.436 102.258 230.924 102.887L231.919 104.541C231.588 105.012 231.3 105.513 231.058 106.037L229.128 105.999C228.835 106.757 228.624 107.545 228.5 108.348L230.191 109.283C230.131 109.855 230.131 110.432 230.191 111.004L228.5 111.946C228.625 112.747 228.835 113.532 229.128 114.288L231.058 114.25C231.298 114.775 231.586 115.276 231.919 115.746L230.924 117.4C231.436 118.029 232.013 118.603 232.644 119.113L234.298 118.125C234.769 118.457 235.27 118.745 235.794 118.985V120.915C236.549 121.209 237.334 121.419 238.135 121.544L239.078 119.853C239.65 119.913 240.226 119.913 240.798 119.853L241.733 121.544C242.534 121.421 243.32 121.21 244.075 120.915V118.985C244.598 118.744 245.099 118.456 245.571 118.125L247.224 119.113C247.853 118.603 248.427 118.029 248.937 117.4L247.942 115.746C248.277 115.276 248.568 114.775 248.81 114.25L250.74 114.288C251.029 113.531 251.24 112.746 251.368 111.946L249.677 111.004C249.633 110.712 249.648 110.435 249.648 110.143ZM239.923 113.988C239.162 113.988 238.419 113.763 237.787 113.34C237.154 112.918 236.662 112.317 236.371 111.615C236.08 110.912 236.003 110.139 236.152 109.393C236.3 108.647 236.666 107.962 237.204 107.425C237.742 106.887 238.427 106.521 239.173 106.372C239.919 106.224 240.692 106.3 241.394 106.591C242.097 106.882 242.697 107.375 243.12 108.007C243.542 108.64 243.768 109.383 243.768 110.143C243.768 110.65 243.668 111.152 243.473 111.62C243.278 112.088 242.993 112.513 242.634 112.87C242.274 113.228 241.848 113.51 241.379 113.702C240.91 113.894 240.407 113.991 239.9 113.988H239.923Z" fill="#E12B3E"/>
<path opacity="0.7" d="M249.648 110.143C249.648 109.852 249.648 109.567 249.61 109.283L251.301 108.348C251.174 107.545 250.963 106.758 250.672 105.999L248.742 106.037C248.499 105.513 248.208 105.012 247.875 104.541L248.87 102.887C248.36 102.258 247.786 101.684 247.157 101.174L245.503 102.162C245.03 101.833 244.529 101.546 244.007 101.301V99.3715C243.251 99.08 242.466 98.8694 241.666 98.7432L240.731 100.434C240.447 100.434 240.162 100.434 239.871 100.434C239.579 100.434 239.295 100.434 239.01 100.434L238.098 98.7432C237.298 98.8713 236.513 99.0819 235.756 99.3715V101.301C235.234 101.545 234.733 101.833 234.26 102.162L232.644 101.174C232.013 101.684 231.436 102.258 230.924 102.887L231.919 104.541C231.588 105.012 231.3 105.513 231.058 106.037L229.128 105.999C228.835 106.757 228.624 107.545 228.5 108.348L230.191 109.283C230.131 109.855 230.131 110.432 230.191 111.004L228.5 111.946C228.625 112.747 228.835 113.532 229.128 114.288L231.058 114.25C231.298 114.775 231.586 115.276 231.919 115.746L230.924 117.4C231.436 118.029 232.013 118.603 232.644 119.113L234.298 118.125C234.769 118.457 235.27 118.745 235.794 118.985V120.915C236.549 121.209 237.334 121.419 238.135 121.544L239.078 119.853C239.65 119.913 240.226 119.913 240.798 119.853L241.733 121.544C242.534 121.421 243.32 121.21 244.075 120.915V118.985C244.598 118.744 245.099 118.456 245.571 118.125L247.224 119.113C247.853 118.603 248.427 118.029 248.937 117.4L247.942 115.746C248.277 115.276 248.568 114.775 248.81 114.25L250.74 114.288C251.029 113.531 251.24 112.746 251.368 111.946L249.677 111.004C249.633 110.712 249.648 110.435 249.648 110.143ZM239.923 113.988C239.162 113.988 238.419 113.763 237.787 113.34C237.154 112.918 236.662 112.317 236.371 111.615C236.08 110.912 236.003 110.139 236.152 109.393C236.3 108.647 236.666 107.962 237.204 107.425C237.742 106.887 238.427 106.521 239.173 106.372C239.919 106.224 240.692 106.3 241.394 106.591C242.097 106.882 242.697 107.375 243.12 108.007C243.542 108.64 243.768 109.383 243.768 110.143C243.768 110.65 243.668 111.152 243.473 111.62C243.278 112.088 242.993 112.513 242.634 112.87C242.274 113.228 241.848 113.51 241.379 113.702C240.91 113.894 240.407 113.991 239.9 113.988H239.923Z" fill="white"/>
<path d="M222.171 66.7714V70.6912L218.43 72.6586C218.285 72.7366 218.164 72.8526 218.079 72.9942C217.994 73.1358 217.949 73.2977 217.949 73.4627C217.949 73.6277 217.994 73.7897 218.079 73.9313C218.164 74.0729 218.285 74.1889 218.43 74.2669L222.171 76.2343V80.154C222.171 80.5727 222.337 80.9741 222.633 81.2701C222.929 81.5661 223.33 81.7324 223.749 81.7324H237.132C237.551 81.7324 237.953 81.5664 238.25 81.2706C238.548 80.9748 238.716 80.5733 238.718 80.154V66.7714C238.718 66.3508 238.55 65.9475 238.253 65.65C237.956 65.3526 237.552 65.1855 237.132 65.1855H223.727C223.311 65.1915 222.914 65.3614 222.622 65.6584C222.331 65.9553 222.169 66.3554 222.171 66.7714Z" fill="#E12B3E"/>
<g opacity="0.9">
<path opacity="0.9" d="M226.748 70.8555H234.355C234.603 70.8555 234.841 70.757 235.017 70.5816C235.192 70.4062 235.29 70.1684 235.29 69.9204C235.29 69.6724 235.192 69.4346 235.017 69.2592C234.841 69.0839 234.603 68.9854 234.355 68.9854H226.748C226.5 68.9854 226.262 69.0839 226.086 69.2592C225.911 69.4346 225.813 69.6724 225.813 69.9204C225.813 70.1684 225.911 70.4062 226.086 70.5816C226.262 70.757 226.5 70.8555 226.748 70.8555Z" fill="white"/>
<path opacity="0.9" d="M234.355 72.5605H226.748C226.5 72.5605 226.262 72.6591 226.086 72.8344C225.911 73.0098 225.813 73.2476 225.813 73.4956C225.813 73.7436 225.911 73.9814 226.086 74.1568C226.262 74.3322 226.5 74.4307 226.748 74.4307H234.355C234.603 74.4307 234.841 74.3322 235.017 74.1568C235.192 73.9814 235.29 73.7436 235.29 73.4956C235.29 73.2476 235.192 73.0098 235.017 72.8344C234.841 72.6591 234.603 72.5605 234.355 72.5605Z" fill="white"/>
<path opacity="0.9" d="M234.355 76.0693H226.748C226.5 76.0693 226.262 76.1679 226.086 76.3432C225.911 76.5186 225.813 76.7564 225.813 77.0044C225.813 77.2524 225.911 77.4902 226.086 77.6656C226.262 77.8409 226.5 77.9395 226.748 77.9395H234.355C234.603 77.9395 234.841 77.8409 235.017 77.6656C235.192 77.4902 235.29 77.2524 235.29 77.0044C235.29 76.7564 235.192 76.5186 235.017 76.3432C234.841 76.1679 234.603 76.0693 234.355 76.0693Z" fill="white"/>
</g>
<path d="M146.542 60.5922H149.737L151.382 63.7115C151.491 63.9149 151.652 64.085 151.85 64.2036C152.048 64.3222 152.274 64.3848 152.504 64.3848C152.735 64.3848 152.961 64.3222 153.159 64.2036C153.356 64.085 153.518 63.9149 153.626 63.7115L155.272 60.5922H158.466C158.77 60.5922 159.07 60.5323 159.35 60.4161C159.63 60.2998 159.884 60.1294 160.098 59.9147C160.312 59.7 160.482 59.4451 160.597 59.1647C160.712 58.8843 160.771 58.5839 160.77 58.2807V46.3792C160.77 45.7681 160.528 45.1821 160.096 44.75C159.663 44.318 159.077 44.0752 158.466 44.0752H146.542C146.24 44.0742 145.94 44.1331 145.66 44.2486C145.38 44.364 145.125 44.5337 144.911 44.7478C144.697 44.962 144.527 45.2164 144.412 45.4963C144.296 45.7763 144.237 46.0764 144.238 46.3792V58.348C144.254 58.9486 144.504 59.5194 144.934 59.9386C145.364 60.3579 145.942 60.5924 146.542 60.5922Z" fill="#E12B3E"/>
<path opacity="0.9" d="M152.513 47.6436L148.832 49.7979V56.0965H151.57V51.87H153.463V56.0965H156.2V49.7979L152.513 47.6436Z" fill="white"/>
<path d="M182.374 231.739H179.532L177.699 228.253C177.608 228.084 177.473 227.943 177.309 227.845C177.144 227.746 176.956 227.694 176.764 227.694C176.572 227.694 176.384 227.746 176.22 227.845C176.055 227.943 175.92 228.084 175.829 228.253L173.996 231.739H171.079C170.383 231.739 169.715 232.015 169.222 232.508C168.73 233 168.453 233.668 168.453 234.364V245.66C168.453 246.356 168.73 247.024 169.222 247.516C169.715 248.009 170.383 248.285 171.079 248.285H182.374C183.071 248.285 183.739 248.009 184.231 247.516C184.724 247.024 185 246.356 185 245.66V234.364C185 233.668 184.724 233 184.231 232.508C183.739 232.015 183.071 231.739 182.374 231.739Z" fill="#E12B3E"/>
<path opacity="0.9" d="M178.329 236.055C177.78 235.507 177.087 235.125 176.329 234.956C175.572 234.787 174.782 234.838 174.052 235.101C173.323 235.365 172.683 235.831 172.208 236.445C171.734 237.059 171.444 237.795 171.373 238.568C171.302 239.341 171.452 240.118 171.806 240.808C172.161 241.498 172.705 242.074 173.374 242.466C174.043 242.859 174.811 243.052 175.586 243.024C176.362 242.997 177.113 242.749 177.753 242.309C177.784 242.495 177.87 242.667 178 242.803L180.543 245.339C180.715 245.51 180.947 245.607 181.19 245.607C181.433 245.607 181.666 245.51 181.837 245.339C182.009 245.167 182.105 244.934 182.105 244.692C182.105 244.449 182.009 244.216 181.837 244.045L179.301 241.509C179.165 241.374 178.99 241.285 178.8 241.254C179.338 240.468 179.585 239.519 179.499 238.57C179.413 237.621 178.999 236.732 178.329 236.055ZM177.461 240.97C177.06 241.37 176.55 241.643 175.994 241.753C175.438 241.863 174.863 241.806 174.339 241.59C173.816 241.373 173.369 241.005 173.054 240.534C172.739 240.063 172.571 239.509 172.571 238.943C172.571 238.376 172.739 237.823 173.054 237.352C173.369 236.881 173.816 236.513 174.339 236.296C174.863 236.079 175.438 236.022 175.994 236.133C176.55 236.243 177.06 236.515 177.461 236.916C177.728 237.182 177.939 237.498 178.083 237.846C178.227 238.194 178.302 238.566 178.302 238.943C178.302 239.319 178.227 239.692 178.083 240.04C177.939 240.388 177.728 240.704 177.461 240.97Z" fill="white"/>
<path d="M303.18 156.515C303.18 156.515 297.083 171.625 291.114 173.256C285.144 174.887 276.153 173.563 276.153 173.563L273.37 174.311L270.64 173.907H270.543L267.468 173.832C267.357 173.841 267.246 173.819 267.147 173.767C267.049 173.715 266.967 173.636 266.912 173.539C266.857 173.443 266.831 173.332 266.837 173.221C266.842 173.11 266.88 173.003 266.944 172.912L268.044 171.416C268.136 171.293 268.264 171.202 268.411 171.154L271.343 170.212C271.459 170.186 271.579 170.186 271.695 170.212L276.183 170.922C276.183 170.922 288.638 168.88 289.91 167.728C291.181 166.576 294.929 154.495 294.929 154.495L303.18 156.515Z" fill="#EEC1BB"/>
<path opacity="0.1" d="M276.459 170.825L276.167 170.87L271.679 170.159C271.563 170.133 271.443 170.133 271.327 170.159L268.395 171.102C268.249 171.149 268.121 171.24 268.028 171.363L266.929 172.859C266.864 172.95 266.827 173.057 266.821 173.168C266.816 173.28 266.842 173.39 266.897 173.487C266.952 173.583 267.033 173.662 267.132 173.714C267.23 173.766 267.342 173.789 267.452 173.78L270.527 173.854H270.624L272.457 174.124C274.02 173.336 275.387 172.209 276.459 170.825Z" fill="black"/>
<path d="M306.859 141.546C302.43 140.095 296.199 143.423 293.813 157.367L303.006 160.083C303.006 160.083 313.187 143.625 306.859 141.546Z" fill="#E12B3E"/>
<path d="M281.098 123.324C281.098 123.787 281.345 124.154 281.644 124.154C281.943 124.154 282.205 123.757 282.182 123.309C282.16 122.86 281.936 122.486 281.636 122.493C281.337 122.501 281.098 122.867 281.098 123.324Z" fill="#263238"/>
<path d="M282.907 123.779L280.731 127.377C280.731 127.377 281.479 128.23 283.117 127.602L282.907 123.779Z" fill="#D4827D"/>
<path d="M283.318 120.436C283.291 120.466 283.257 120.489 283.219 120.502C283.181 120.515 283.14 120.518 283.101 120.511C282.806 120.46 282.504 120.481 282.219 120.571C281.934 120.66 281.675 120.817 281.462 121.027C281.417 121.07 281.357 121.093 281.294 121.093C281.232 121.093 281.171 121.07 281.126 121.027C281.083 120.98 281.059 120.919 281.059 120.855C281.059 120.791 281.083 120.73 281.126 120.683C281.39 120.413 281.716 120.211 282.076 120.095C282.435 119.979 282.818 119.952 283.19 120.017C283.222 120.021 283.252 120.031 283.28 120.046C283.308 120.062 283.332 120.083 283.351 120.108C283.371 120.133 283.385 120.162 283.394 120.192C283.402 120.223 283.404 120.255 283.4 120.286C283.388 120.344 283.36 120.396 283.318 120.436Z" fill="#263238"/>
<path d="M298.698 120.062C299.035 126.144 299.312 128.717 296.626 132.173C292.34 135.876 285.039 136.467 282.885 130.61C280.947 125.373 280.723 116.3 286.348 113.165C287.302 112.634 288.352 112.295 289.437 112.169C290.522 112.044 291.621 112.133 292.672 112.433C293.722 112.732 294.703 113.236 295.559 113.915C296.415 114.594 297.128 115.434 297.659 116.389C298.281 117.518 298.637 118.775 298.698 120.062Z" fill="#EEC1BB"/>
<path d="M290.223 133.37L291.764 142.384L299.274 140.648L296.648 131.447L290.223 133.37Z" fill="#EEC1BB"/>
<path d="M284.816 120.511C285.197 116.561 283.836 121.124 282.01 115.91C280.185 110.696 288.81 106.462 290.187 107.435C291.563 108.407 290.778 109.896 295.341 110.741C296.585 110.939 297.716 111.583 298.52 112.554C299.324 113.525 299.747 114.755 299.709 116.015C299.709 116.015 302.335 117.227 301.4 122.867C300.714 126.481 299.175 129.879 296.912 132.779C296.912 132.779 295.184 130.998 292.423 132.637C291.346 131.934 290.435 131.004 289.753 129.914C288.526 128.074 288.144 126.323 286.461 126.173C282.945 125.852 284.688 121.812 284.816 120.511Z" fill="#263238"/>
<path d="M299.223 116.695C299.223 116.695 302.963 114.406 301.302 112.005C299.642 109.604 300.442 114.653 299.223 116.695Z" fill="#263238"/>
<path d="M285.884 122.807C285.054 123.735 284.626 124.953 284.694 126.196C284.799 127.842 286.415 128.133 287.687 127.236C288.958 126.338 290.163 124.588 289.43 123.144C289.267 122.829 289.028 122.56 288.734 122.361C288.44 122.163 288.102 122.041 287.749 122.008C287.396 121.974 287.04 122.03 286.714 122.169C286.388 122.309 286.103 122.528 285.884 122.807Z" fill="#FFC3BD"/>
<path opacity="0.1" d="M290.363 134.222L290.977 137.798C290.923 136.912 291.044 136.025 291.335 135.187C291.625 134.348 292.078 133.576 292.667 132.913C292.209 132.942 291.764 133.076 291.365 133.302C290.966 133.529 290.623 133.844 290.363 134.222Z" fill="black"/>
<path d="M237.561 157.472H235.414V170.136H237.561V157.472Z" fill="#E12B3E"/>
<path opacity="0.7" d="M237.561 157.472H235.414V170.136H237.561V157.472Z" fill="white"/>
<path d="M222.809 132.322H217.46C216.498 132.322 215.575 132.705 214.895 133.385C214.214 134.065 213.832 134.988 213.832 135.95V160.733C213.832 161.21 213.926 161.681 214.108 162.122C214.291 162.562 214.558 162.962 214.895 163.299C215.232 163.636 215.632 163.903 216.072 164.085C216.512 164.267 216.984 164.361 217.46 164.361H222.809V132.322Z" fill="#E12B3E"/>
<path d="M255.522 132.322H219.331C217.328 132.322 215.703 133.947 215.703 135.95V160.726C215.703 162.729 217.328 164.354 219.331 164.354H255.522C257.526 164.354 259.15 162.729 259.15 160.726V135.95C259.15 133.947 257.526 132.322 255.522 132.322Z" fill="#E12B3E"/>
<path opacity="0.5" d="M255.522 132.322H219.331C217.328 132.322 215.703 133.947 215.703 135.95V160.726C215.703 162.729 217.328 164.354 219.331 164.354H255.522C257.526 164.354 259.15 162.729 259.15 160.726V135.95C259.15 133.947 257.526 132.322 255.522 132.322Z" fill="white"/>
<path d="M255.522 133.818H219.331C218.154 133.818 217.199 134.773 217.199 135.95V160.726C217.199 161.903 218.154 162.858 219.331 162.858H255.522C256.699 162.858 257.654 161.903 257.654 160.726V135.95C257.654 134.773 256.699 133.818 255.522 133.818Z" fill="#263238"/>
<path d="M228.672 175.447C228.735 173.417 229.586 171.491 231.044 170.077C232.502 168.663 234.454 167.872 236.485 167.872C238.517 167.872 240.468 168.663 241.927 170.077C243.385 171.491 244.236 173.417 244.299 175.447H228.672Z" fill="#E12B3E"/>
<path d="M247.111 172.784H231.484V175.32H262.738V174.28L247.111 172.784Z" fill="#E12B3E"/>
<path opacity="0.8" d="M247.111 172.784H231.484V175.32H262.738V174.28L247.111 172.784Z" fill="white"/>
<path d="M247.111 175.32H231.484V172.784L247.111 174.28V175.32Z" fill="#E12B3E"/>
<path opacity="0.6" d="M247.111 175.32H231.484V172.784L247.111 174.28V175.32Z" fill="white"/>
<path d="M281.567 262.625H249.333C248.69 262.626 248.053 262.5 247.459 262.255C246.865 262.009 246.324 261.649 245.869 261.195C245.414 260.74 245.053 260.201 244.807 259.607C244.561 259.013 244.434 258.376 244.434 257.733V183.616C244.434 182.973 244.561 182.336 244.807 181.742C245.053 181.148 245.414 180.608 245.869 180.154C246.324 179.699 246.865 179.339 247.459 179.094C248.053 178.848 248.69 178.723 249.333 178.724H281.567C281.914 178.724 282.247 178.862 282.493 179.107C282.738 179.353 282.876 179.686 282.876 180.033C282.876 180.38 282.738 180.713 282.493 180.958C282.247 181.204 281.914 181.342 281.567 181.342H249.333C249.036 181.337 248.74 181.391 248.463 181.502C248.187 181.612 247.935 181.777 247.722 181.986C247.51 182.195 247.341 182.444 247.226 182.718C247.111 182.993 247.052 183.288 247.052 183.586V257.703C247.052 258.001 247.111 258.296 247.226 258.57C247.341 258.845 247.51 259.094 247.722 259.303C247.935 259.512 248.187 259.676 248.463 259.787C248.74 259.898 249.036 259.952 249.333 259.947H281.567C281.914 259.947 282.247 260.085 282.493 260.33C282.738 260.576 282.876 260.909 282.876 261.256C282.884 261.433 282.856 261.61 282.794 261.775C282.732 261.941 282.637 262.093 282.514 262.221C282.392 262.349 282.245 262.45 282.082 262.52C281.919 262.589 281.744 262.625 281.567 262.625Z" fill="#263238"/>
<g opacity="0.5">
<path opacity="0.5" d="M281.567 262.625H249.333C248.69 262.626 248.053 262.5 247.459 262.255C246.865 262.009 246.324 261.649 245.869 261.195C245.414 260.74 245.053 260.201 244.807 259.607C244.561 259.013 244.434 258.376 244.434 257.733V183.616C244.434 182.973 244.561 182.336 244.807 181.742C245.053 181.148 245.414 180.608 245.869 180.154C246.324 179.699 246.865 179.339 247.459 179.094C248.053 178.848 248.69 178.723 249.333 178.724H281.567C281.914 178.724 282.247 178.862 282.493 179.107C282.738 179.353 282.876 179.686 282.876 180.033C282.876 180.38 282.738 180.713 282.493 180.958C282.247 181.204 281.914 181.342 281.567 181.342H249.333C249.036 181.337 248.74 181.391 248.463 181.502C248.187 181.612 247.935 181.777 247.722 181.986C247.51 182.195 247.341 182.444 247.226 182.718C247.111 182.993 247.052 183.288 247.052 183.586V257.703C247.052 258.001 247.111 258.296 247.226 258.57C247.341 258.845 247.51 259.094 247.722 259.303C247.935 259.512 248.187 259.676 248.463 259.787C248.74 259.898 249.036 259.952 249.333 259.947H281.567C281.914 259.947 282.247 260.085 282.493 260.33C282.738 260.576 282.876 260.909 282.876 261.256C282.884 261.433 282.856 261.61 282.794 261.775C282.732 261.941 282.637 262.093 282.514 262.221C282.392 262.349 282.245 262.45 282.082 262.52C281.919 262.589 281.744 262.625 281.567 262.625Z" fill="white"/>
</g>
<path d="M249.207 175.32H203.434V179.158H249.207V175.32Z" fill="#E12B3E"/>
<path opacity="0.2" d="M249.207 175.32H203.434V179.158H249.207V175.32Z" fill="white"/>
<path d="M286.154 175.32H247.113V179.158H286.154V175.32Z" fill="#E12B3E"/>
<path opacity="0.5" d="M286.154 175.32H247.113V179.158H286.154V175.32Z" fill="white"/>
<path d="M272.464 235.434L274.626 257.292H269.45L264.266 236.002L272.464 235.434Z" fill="#EEC1BB"/>
<path d="M268.964 255.833L275.569 255.945C275.689 255.948 275.806 255.992 275.898 256.069C275.99 256.147 276.054 256.253 276.077 256.372L277.185 261.765C277.231 261.994 277.186 262.232 277.059 262.428C276.931 262.624 276.732 262.762 276.504 262.812H276.317C273.931 262.73 271.829 262.566 268.836 262.513C265.343 262.453 266.218 262.887 262.104 262.88C259.628 262.88 259.224 260.045 260.271 259.925C265.096 259.401 265.62 257.958 267.505 256.267C267.921 255.948 268.441 255.794 268.964 255.833Z" fill="#263238"/>
<path opacity="0.1" d="M274.065 251.584L272.464 235.434L264.266 236.002L268.058 251.584H274.065Z" fill="black"/>
<path d="M307.907 185.038L286.677 185.786C286.677 185.786 258.079 195.788 257.331 203.47C256.509 211.384 266.113 247.747 266.113 247.747H274.649C274.649 247.747 272.292 221.064 271.395 212.896C270.497 204.727 301.16 207.427 306.486 200.463C311.356 194.075 307.907 185.038 307.907 185.038Z" fill="#263238"/>
<path opacity="0.2" d="M307.907 185.038L286.677 185.786C286.677 185.786 258.079 195.788 257.331 203.47C256.509 211.384 266.113 247.747 266.113 247.747H274.649C274.649 247.747 272.292 221.064 271.395 212.896C270.497 204.727 301.16 207.427 306.486 200.463C311.356 194.075 307.907 185.038 307.907 185.038Z" fill="black"/>
<path d="M276.069 246.55L276.256 249.564H265.708L264.676 246.55H276.069Z" fill="#E12B3E"/>
<path d="M252.709 236.474L253.277 257.292H248.191L245.176 236.474H252.709Z" fill="#EEC1BB"/>
<path d="M247.487 255.833L254.092 255.946C254.213 255.948 254.329 255.992 254.421 256.07C254.514 256.147 254.577 256.254 254.601 256.372L255.708 261.766C255.755 261.994 255.71 262.233 255.582 262.429C255.455 262.625 255.256 262.763 255.027 262.813H254.84C252.454 262.731 250.352 262.566 247.36 262.514C243.859 262.454 244.742 262.888 240.627 262.88C238.151 262.88 237.747 260.045 238.795 259.925C243.62 259.402 244.143 257.958 246.028 256.267C246.444 255.948 246.964 255.793 247.487 255.833Z" fill="#263238"/>
<path opacity="0.1" d="M253.12 251.569L252.709 236.474H245.176L247.368 251.584C249.006 251.592 251.258 251.577 253.12 251.569Z" fill="black"/>
<path d="M298.675 186.796C298.675 186.796 300.44 202.939 284.02 203.694C267.601 204.45 254.779 206.328 254.405 212.17C254.031 218.012 254.405 247.777 254.405 247.777H245.481C245.481 247.777 242.01 228.956 240.656 217.287C239.339 205.954 236.916 197.733 248.563 193.895C260.928 189.811 282.906 186.04 282.906 186.04L298.734 185.038L298.675 186.796Z" fill="#263238"/>
<path d="M255.721 246.55L255.16 249.564H245.361L244.328 246.55H255.721Z" fill="#E12B3E"/>
<path d="M302.214 140.484C302.214 140.484 302.214 136.848 294.861 137.267C287.051 137.716 288.525 141.202 288.525 141.202L302.214 140.484Z" fill="#E12B3E"/>
<path opacity="0.3" d="M302.214 140.484C302.214 140.484 302.214 136.848 294.861 137.267C287.051 137.716 288.525 141.202 288.525 141.202L302.214 140.484Z" fill="black"/>
<path d="M309.065 156.791C308.571 163.98 308.743 185.606 308.743 185.606C308.743 185.606 293.034 186.638 280.706 186.234L279.277 144.635C279.283 143.899 279.51 143.183 279.929 142.578C280.348 141.974 280.94 141.51 281.626 141.246C285.112 139.892 293.296 138.359 306.095 140.042C310.509 140.633 309.648 148.293 309.065 156.791Z" fill="#E12B3E"/>
<path d="M281.801 156.515C281.801 156.515 275.697 171.625 269.735 173.256C263.773 174.887 254.774 173.563 254.774 173.563L251.991 174.311L249.268 173.907H249.171L246.089 173.832C245.978 173.841 245.867 173.819 245.769 173.767C245.67 173.715 245.589 173.636 245.534 173.539C245.478 173.443 245.452 173.332 245.458 173.221C245.464 173.11 245.501 173.003 245.565 172.912L246.673 171.416C246.765 171.293 246.893 171.202 247.039 171.154L249.964 170.212C250.082 170.186 250.205 170.186 250.323 170.212L254.811 170.922C254.811 170.922 267.266 168.88 268.531 167.728C269.795 166.576 273.558 154.495 273.558 154.495L281.801 156.515Z" fill="#EEC1BB"/>
<path opacity="0.1" d="M281.641 149.483C281.641 149.483 280.691 150.612 279.539 152.243L279.951 164.287C284.536 162.259 286.354 150.455 286.354 150.455L283.362 148.346L281.641 149.483Z" fill="black"/>
<path d="M285.479 141.546C281.051 140.095 274.812 143.423 272.426 157.367L281.627 160.053C281.627 160.053 291.808 143.625 285.479 141.546Z" fill="#E12B3E"/>
<path d="M291.338 211.526H284.418V231.806H291.338V211.526Z" fill="#263238"/>
<path opacity="0.6" d="M291.338 211.526H284.418V231.806H291.338V211.526Z" fill="white"/>
<path d="M292.408 250.178V224.415H283.342V250.178L262.703 253.043V255.908L287.875 253.761L313.047 255.908V253.043L292.408 250.178Z" fill="#263238"/>
<path d="M262.402 262.932C263.91 262.932 265.133 261.71 265.133 260.202C265.133 258.694 263.91 257.472 262.402 257.472C260.894 257.472 259.672 258.694 259.672 260.202C259.672 261.71 260.894 262.932 262.402 262.932Z" fill="#E12B3E"/>
<path d="M313.047 262.932C314.555 262.932 315.777 261.71 315.777 260.202C315.777 258.694 314.555 257.472 313.047 257.472C311.539 257.472 310.317 258.694 310.317 260.202C310.317 261.71 311.539 262.932 313.047 262.932Z" fill="#E12B3E"/>
<path d="M287.875 262.932C289.383 262.932 290.605 261.71 290.605 260.202C290.605 258.694 289.383 257.472 287.875 257.472C286.367 257.472 285.145 258.694 285.145 260.202C285.145 261.71 286.367 262.932 287.875 262.932Z" fill="#E12B3E"/>
<path opacity="0.3" d="M291.338 211.526H284.418V216.538H291.338V211.526Z" fill="black"/>
<path d="M315.231 165.559H292.685C290.913 165.56 289.205 166.223 287.895 167.416C286.585 168.61 285.767 170.25 285.601 172.014L283.701 192.384C283.49 194.629 282.478 196.723 280.851 198.283C279.223 199.843 277.088 200.766 274.837 200.882L253.076 201.974C251.802 202.039 250.603 202.591 249.724 203.515C248.846 204.439 248.356 205.666 248.356 206.941V207.397C248.356 208.49 248.79 209.539 249.563 210.312C250.336 211.085 251.384 211.519 252.477 211.519H318.747L322.315 173.368C322.411 172.38 322.3 171.383 321.987 170.44C321.675 169.498 321.169 168.631 320.502 167.895C319.835 167.16 319.021 166.572 318.114 166.17C317.206 165.767 316.224 165.559 315.231 165.559Z" fill="#E12B3E"/>
<path opacity="0.3" d="M315.231 165.559H292.685C290.913 165.56 289.205 166.223 287.895 167.416C286.585 168.61 285.767 170.25 285.601 172.014L283.701 192.384C283.49 194.629 282.478 196.723 280.851 198.283C279.223 199.843 277.088 200.766 274.837 200.882L253.076 201.974C251.802 202.039 250.603 202.591 249.724 203.515C248.846 204.439 248.356 205.666 248.356 206.941V207.397C248.356 208.49 248.79 209.539 249.563 210.312C250.336 211.085 251.384 211.519 252.477 211.519H318.747L322.315 173.368C322.411 172.38 322.3 171.383 321.987 170.44C321.675 169.498 321.169 168.631 320.502 167.895C319.835 167.16 319.021 166.572 318.114 166.17C317.206 165.767 316.224 165.559 315.231 165.559Z" fill="white"/>
<path d="M263.481 188.509H266.585V204.749C266.585 205.146 266.427 205.526 266.147 205.807C265.866 206.087 265.486 206.245 265.089 206.245H264.977C264.58 206.245 264.199 206.087 263.919 205.807C263.638 205.526 263.481 205.146 263.481 204.749V188.509Z" fill="#263238"/>
<path opacity="0.2" d="M263.481 188.509H266.585V204.749C266.585 205.146 266.427 205.526 266.147 205.807C265.866 206.087 265.486 206.245 265.089 206.245H264.977C264.58 206.245 264.199 206.087 263.919 205.807C263.638 205.526 263.481 205.146 263.481 204.749V188.509Z" fill="white"/>
<path d="M278.448 183.848H271.543V189.571H278.463C278.851 189.591 279.239 189.532 279.603 189.397C279.968 189.262 280.301 189.054 280.582 188.787C280.864 188.519 281.088 188.197 281.242 187.84C281.395 187.483 281.474 187.098 281.474 186.71C281.474 186.321 281.395 185.937 281.242 185.58C281.088 185.223 280.864 184.9 280.582 184.633C280.301 184.365 279.968 184.158 279.603 184.023C279.239 183.888 278.851 183.829 278.463 183.848H278.448Z" fill="#E12B3E"/>
<path opacity="0.5" d="M278.448 183.848H271.543V189.571H278.463C278.851 189.591 279.239 189.532 279.603 189.397C279.968 189.262 280.301 189.054 280.582 188.787C280.864 188.519 281.088 188.197 281.242 187.84C281.395 187.483 281.474 187.098 281.474 186.71C281.474 186.321 281.395 185.937 281.242 185.58C281.088 185.223 280.864 184.9 280.582 184.633C280.301 184.365 279.968 184.158 279.603 184.023C279.239 183.888 278.851 183.829 278.463 183.848H278.448Z" fill="white"/>
<path d="M275.687 183.849H251.503C249.978 183.849 248.742 185.084 248.742 186.609V186.818C248.742 188.343 249.978 189.579 251.503 189.579H275.687C277.212 189.579 278.447 188.343 278.447 186.818V186.609C278.447 185.084 277.212 183.849 275.687 183.849Z" fill="#E12B3E"/>
<path opacity="0.3" d="M275.687 183.849H251.503C249.978 183.849 248.742 185.084 248.742 186.609V186.818C248.742 188.343 249.978 189.579 251.503 189.579H275.687C277.212 189.579 278.447 188.343 278.447 186.818V186.609C278.447 185.084 277.212 183.849 275.687 183.849Z" fill="white"/>
<path d="M320.303 211.526H287.156L290.852 172.051C291.017 170.287 291.835 168.647 293.145 167.454C294.455 166.26 296.163 165.597 297.936 165.596H320.482C321.472 165.597 322.451 165.804 323.357 166.205C324.262 166.605 325.074 167.19 325.741 167.922C326.407 168.655 326.914 169.518 327.228 170.457C327.543 171.395 327.658 172.39 327.566 173.375L324.342 207.891C324.237 208.888 323.766 209.812 323.02 210.483C322.274 211.155 321.306 211.526 320.303 211.526Z" fill="#E12B3E"/>
<path opacity="0.5" d="M320.303 211.526H287.156L290.852 172.051C291.017 170.287 291.835 168.647 293.145 167.454C294.455 166.26 296.163 165.597 297.936 165.596H320.482C321.472 165.597 322.451 165.804 323.357 166.205C324.262 166.605 325.074 167.19 325.741 167.922C326.407 168.655 326.914 169.518 327.228 170.457C327.543 171.395 327.658 172.39 327.566 173.375L324.342 207.891C324.237 208.888 323.766 209.812 323.02 210.483C322.274 211.155 321.306 211.526 320.303 211.526Z" fill="white"/>
<path d="M242.872 262.625H210.638C209.995 262.626 209.358 262.5 208.764 262.255C208.169 262.009 207.629 261.649 207.174 261.195C206.719 260.74 206.358 260.201 206.112 259.607C205.865 259.013 205.738 258.376 205.738 257.733V183.616C205.738 182.973 205.865 182.336 206.112 181.742C206.358 181.148 206.719 180.608 207.174 180.154C207.629 179.699 208.169 179.339 208.764 179.094C209.358 178.848 209.995 178.723 210.638 178.724H242.872C243.219 178.724 243.552 178.862 243.797 179.107C244.043 179.353 244.181 179.686 244.181 180.033C244.181 180.38 244.043 180.713 243.797 180.958C243.552 181.204 243.219 181.342 242.872 181.342H210.638C210.34 181.337 210.044 181.391 209.768 181.502C209.491 181.612 209.239 181.777 209.027 181.986C208.815 182.195 208.646 182.444 208.531 182.718C208.416 182.993 208.357 183.288 208.357 183.586V257.703C208.357 258.001 208.416 258.296 208.531 258.57C208.646 258.845 208.815 259.094 209.027 259.303C209.239 259.512 209.491 259.676 209.768 259.787C210.044 259.898 210.34 259.952 210.638 259.947H242.872C243.219 259.947 243.552 260.085 243.797 260.33C244.043 260.576 244.181 260.909 244.181 261.256C244.189 261.433 244.161 261.61 244.099 261.775C244.037 261.941 243.942 262.093 243.819 262.221C243.697 262.349 243.55 262.45 243.387 262.52C243.224 262.589 243.049 262.625 242.872 262.625Z" fill="#263238"/>
<g opacity="0.5">
<path opacity="0.5" d="M242.872 262.625H210.638C209.995 262.626 209.358 262.5 208.764 262.255C208.169 262.009 207.629 261.649 207.174 261.195C206.719 260.74 206.358 260.201 206.112 259.607C205.865 259.013 205.738 258.376 205.738 257.733V183.616C205.738 182.973 205.865 182.336 206.112 181.742C206.358 181.148 206.719 180.608 207.174 180.154C207.629 179.699 208.169 179.339 208.764 179.094C209.358 178.848 209.995 178.723 210.638 178.724H242.872C243.219 178.724 243.552 178.862 243.797 179.107C244.043 179.353 244.181 179.686 244.181 180.033C244.181 180.38 244.043 180.713 243.797 180.958C243.552 181.204 243.219 181.342 242.872 181.342H210.638C210.34 181.337 210.044 181.391 209.768 181.502C209.491 181.612 209.239 181.777 209.027 181.986C208.815 182.195 208.646 182.444 208.531 182.718C208.416 182.993 208.357 183.288 208.357 183.586V257.703C208.357 258.001 208.416 258.296 208.531 258.57C208.646 258.845 208.815 259.094 209.027 259.303C209.239 259.512 209.491 259.676 209.768 259.787C210.044 259.898 210.34 259.952 210.638 259.947H242.872C243.219 259.947 243.552 260.085 243.797 260.33C244.043 260.576 244.181 260.909 244.181 261.256C244.189 261.433 244.161 261.61 244.099 261.775C244.037 261.941 243.942 262.093 243.819 262.221C243.697 262.349 243.55 262.45 243.387 262.52C243.224 262.589 243.049 262.625 242.872 262.625Z" fill="white"/>
</g>
<path d="M221.567 139.728L219.323 138.232C219.266 138.196 219.219 138.145 219.186 138.086C219.154 138.027 219.137 137.96 219.137 137.892C219.137 137.824 219.154 137.757 219.186 137.698C219.219 137.638 219.266 137.588 219.323 137.552L221.567 136.055C221.65 136.001 221.75 135.982 221.847 136.002C221.944 136.021 222.029 136.078 222.084 136.16C222.135 136.242 222.153 136.341 222.134 136.436C222.114 136.531 222.059 136.614 221.979 136.669L220.116 137.903L221.979 139.137C222.059 139.192 222.114 139.276 222.134 139.371C222.153 139.466 222.135 139.564 222.084 139.646C222.024 139.723 221.938 139.774 221.842 139.79C221.746 139.805 221.648 139.783 221.567 139.728Z" fill="white"/>
<path d="M226.533 139.623C226.488 139.541 226.477 139.445 226.5 139.355C226.524 139.264 226.581 139.186 226.66 139.137L228.523 137.903L226.66 136.646C226.58 136.591 226.525 136.507 226.507 136.412C226.488 136.316 226.509 136.218 226.563 136.137C226.59 136.097 226.624 136.062 226.664 136.035C226.704 136.008 226.748 135.989 226.796 135.979C226.843 135.969 226.892 135.969 226.939 135.978C226.986 135.987 227.032 136.006 227.072 136.032L229.316 137.529C229.373 137.565 229.42 137.615 229.453 137.675C229.485 137.734 229.502 137.801 229.502 137.869C229.502 137.937 229.485 138.003 229.453 138.063C229.42 138.122 229.373 138.173 229.316 138.209L227.072 139.705C227.032 139.737 226.985 139.76 226.936 139.773C226.887 139.786 226.835 139.788 226.785 139.781C226.734 139.773 226.686 139.755 226.643 139.728C226.599 139.701 226.562 139.665 226.533 139.623Z" fill="white"/>
<path d="M223.461 140.633C223.414 140.618 223.371 140.595 223.334 140.564C223.297 140.532 223.266 140.494 223.244 140.451C223.222 140.408 223.208 140.361 223.204 140.312C223.201 140.264 223.206 140.215 223.221 140.169L224.77 135.277C224.783 135.231 224.806 135.188 224.837 135.151C224.867 135.114 224.905 135.083 224.947 135.061C224.99 135.038 225.037 135.025 225.084 135.021C225.132 135.017 225.18 135.022 225.226 135.037C225.272 135.051 225.315 135.074 225.352 135.104C225.389 135.135 225.42 135.172 225.442 135.215C225.465 135.258 225.478 135.304 225.482 135.352C225.486 135.4 225.481 135.448 225.466 135.494L223.925 140.393C223.91 140.44 223.887 140.483 223.855 140.52C223.824 140.557 223.786 140.588 223.743 140.61C223.7 140.632 223.652 140.646 223.604 140.65C223.556 140.654 223.507 140.648 223.461 140.633Z" fill="white"/>
<path d="M236.162 144.374H219.503C219.452 144.374 219.402 144.364 219.355 144.344C219.308 144.324 219.266 144.296 219.23 144.259C219.195 144.223 219.167 144.18 219.148 144.133C219.129 144.086 219.12 144.035 219.121 143.985C219.12 143.934 219.129 143.884 219.148 143.836C219.167 143.789 219.195 143.746 219.23 143.71C219.266 143.674 219.308 143.645 219.355 143.625C219.402 143.606 219.452 143.596 219.503 143.596H236.162C236.265 143.596 236.364 143.637 236.437 143.71C236.51 143.783 236.551 143.882 236.551 143.985C236.551 144.036 236.541 144.086 236.521 144.134C236.502 144.181 236.473 144.224 236.437 144.26C236.401 144.296 236.358 144.325 236.311 144.344C236.264 144.364 236.213 144.374 236.162 144.374Z" fill="white"/>
<path d="M255.298 144.374H238.631C238.58 144.374 238.53 144.364 238.482 144.344C238.435 144.325 238.392 144.296 238.356 144.26C238.32 144.224 238.291 144.181 238.272 144.134C238.252 144.087 238.242 144.036 238.242 143.985C238.25 143.887 238.294 143.796 238.366 143.729C238.438 143.663 238.533 143.626 238.631 143.626H255.283C255.386 143.626 255.485 143.667 255.558 143.74C255.631 143.813 255.672 143.912 255.672 144.015C255.665 144.11 255.622 144.2 255.553 144.266C255.484 144.332 255.393 144.371 255.298 144.374Z" fill="white"/>
<path d="M229.025 147.8H219.503C219.452 147.8 219.402 147.79 219.355 147.77C219.308 147.75 219.266 147.722 219.23 147.685C219.195 147.649 219.167 147.606 219.148 147.559C219.129 147.512 219.12 147.462 219.121 147.411C219.121 147.31 219.161 147.213 219.233 147.141C219.305 147.069 219.402 147.029 219.503 147.029H229.025C229.127 147.029 229.225 147.069 229.298 147.141C229.371 147.212 229.412 147.309 229.414 147.411C229.414 147.514 229.373 147.613 229.301 147.686C229.228 147.759 229.129 147.8 229.025 147.8Z" fill="white"/>
<path d="M247.096 147.8H231.499C231.448 147.8 231.398 147.79 231.351 147.77C231.304 147.75 231.262 147.722 231.226 147.685C231.191 147.649 231.163 147.606 231.144 147.559C231.126 147.512 231.116 147.462 231.117 147.411C231.117 147.31 231.158 147.213 231.229 147.141C231.301 147.069 231.398 147.029 231.499 147.029H247.096C247.197 147.029 247.294 147.069 247.366 147.141C247.437 147.213 247.477 147.31 247.477 147.411C247.478 147.462 247.469 147.512 247.45 147.559C247.432 147.606 247.404 147.649 247.368 147.685C247.333 147.722 247.29 147.75 247.244 147.77C247.197 147.79 247.146 147.8 247.096 147.8Z" fill="white"/>
<path d="M244.877 151.233H219.503C219.401 151.231 219.304 151.189 219.233 151.116C219.161 151.044 219.121 150.946 219.121 150.844C219.12 150.793 219.129 150.743 219.148 150.696C219.167 150.649 219.195 150.606 219.23 150.569C219.266 150.533 219.308 150.504 219.355 150.485C219.402 150.465 219.452 150.455 219.503 150.455H244.877C244.98 150.455 245.079 150.496 245.152 150.569C245.225 150.642 245.266 150.741 245.266 150.844C245.266 150.947 245.225 151.046 245.152 151.119C245.079 151.192 244.98 151.233 244.877 151.233Z" fill="white"/>
<path d="M252.654 151.233H247.358C247.255 151.233 247.156 151.192 247.083 151.119C247.01 151.046 246.969 150.947 246.969 150.844C246.969 150.741 247.01 150.642 247.083 150.569C247.156 150.496 247.255 150.455 247.358 150.455H252.654C252.757 150.455 252.856 150.496 252.929 150.569C253.002 150.642 253.043 150.741 253.043 150.844C253.043 150.947 253.002 151.046 252.929 151.119C252.856 151.192 252.757 151.233 252.654 151.233Z" fill="white"/>
<path d="M231.352 154.659H219.503C219.452 154.659 219.402 154.649 219.355 154.629C219.308 154.609 219.266 154.581 219.23 154.544C219.195 154.508 219.167 154.465 219.148 154.418C219.129 154.371 219.12 154.321 219.121 154.27C219.12 154.219 219.129 154.169 219.148 154.122C219.167 154.074 219.195 154.031 219.23 153.995C219.266 153.959 219.308 153.93 219.355 153.911C219.402 153.891 219.452 153.881 219.503 153.881H231.352C231.455 153.881 231.554 153.922 231.627 153.995C231.7 154.068 231.741 154.167 231.741 154.27C231.741 154.373 231.7 154.472 231.627 154.545C231.554 154.618 231.455 154.659 231.352 154.659Z" fill="white"/>
<path d="M248.578 154.659H233.834C233.731 154.659 233.632 154.618 233.559 154.545C233.486 154.472 233.445 154.373 233.445 154.27C233.445 154.167 233.486 154.068 233.559 153.995C233.632 153.922 233.731 153.881 233.834 153.881H248.578C248.682 153.881 248.781 153.922 248.854 153.995C248.927 154.068 248.967 154.167 248.967 154.27C248.967 154.373 248.927 154.472 248.854 154.545C248.781 154.618 248.682 154.659 248.578 154.659Z" fill="white"/>
<path d="M236.162 158.085H219.503C219.452 158.085 219.402 158.075 219.355 158.055C219.308 158.036 219.266 158.007 219.23 157.971C219.195 157.934 219.167 157.891 219.148 157.844C219.129 157.797 219.12 157.747 219.121 157.696C219.121 157.595 219.161 157.498 219.233 157.426C219.305 157.355 219.402 157.315 219.503 157.315H236.162C236.213 157.314 236.263 157.323 236.31 157.341C236.357 157.36 236.4 157.388 236.436 157.424C236.473 157.459 236.501 157.502 236.521 157.548C236.541 157.595 236.551 157.645 236.551 157.696C236.551 157.799 236.51 157.898 236.437 157.971C236.364 158.044 236.265 158.085 236.162 158.085Z" fill="white"/>
<path d="M250.398 158.085H238.631C238.528 158.085 238.429 158.044 238.356 157.971C238.283 157.898 238.242 157.799 238.242 157.696C238.242 157.645 238.252 157.595 238.272 157.548C238.292 157.502 238.32 157.459 238.357 157.424C238.393 157.388 238.436 157.36 238.483 157.341C238.53 157.323 238.581 157.314 238.631 157.315H250.383C250.484 157.315 250.581 157.355 250.653 157.426C250.724 157.498 250.765 157.595 250.765 157.696C250.767 157.796 250.729 157.893 250.661 157.965C250.592 158.038 250.498 158.081 250.398 158.085Z" fill="white"/>
<path d="M105.827 91.1279C106.134 94.6512 105.371 101.032 102.715 103.097C107.046 104.66 111.639 107.353 114.572 110.906C117.481 106.672 114.175 104.256 114.175 104.256C110.435 102.925 110.831 100.09 111.796 97.4789L105.827 91.1279Z" fill="#B97964"/>
<path d="M119.987 88.0907C119.942 88.5321 120.151 88.9136 120.443 88.9435C120.735 88.9734 120.997 88.6293 121.041 88.1954C121.086 87.7616 120.877 87.3726 120.585 87.3427C120.293 87.3127 120.039 87.6494 119.987 88.0907Z" fill="#263238"/>
<path d="M120.473 87.3501L121.557 87.1406C121.557 87.1406 120.937 87.941 120.473 87.3501Z" fill="#263238"/>
<path d="M120.136 88.5615C120.441 89.6137 120.886 90.6201 121.46 91.5537C121.217 91.694 120.947 91.78 120.668 91.8058C120.389 91.8317 120.108 91.7967 119.844 91.7033L120.136 88.5615Z" fill="#A24E3F"/>
<path d="M121.244 85.7639C121.313 85.7529 121.376 85.7186 121.423 85.6666C121.47 85.6168 121.495 85.5514 121.495 85.4834C121.495 85.4154 121.47 85.3499 121.423 85.3001C121.116 85.0193 120.745 84.8163 120.343 84.7083C119.941 84.6002 119.519 84.5903 119.112 84.6792C119.055 84.7188 119.014 84.7784 118.999 84.8464C118.984 84.9143 118.995 84.9855 119.03 85.0458C119.053 85.0842 119.086 85.1156 119.125 85.1367C119.165 85.1578 119.209 85.1677 119.254 85.1655C119.577 85.1036 119.911 85.1181 120.228 85.2077C120.545 85.2973 120.836 85.4595 121.079 85.6816C121.123 85.7275 121.181 85.7566 121.244 85.7639Z" fill="#263238"/>
<path d="M105.474 85.2777C105.301 90.7459 105.114 93.0723 107.553 96.1244C111.226 100.71 117.876 99.7076 119.657 94.3814C121.257 89.5864 121.272 81.4177 116.238 78.7696C111.204 76.1215 105.631 79.7944 105.474 85.2777Z" fill="#B97964"/>
<path d="M105.711 95.6084C100.333 94.6883 101.874 91.2996 101.874 91.2996C96.5775 90.2299 100.669 87.6416 100.669 87.6416C96.2633 85.7416 100.669 84.036 100.669 84.036C96.4204 80.5127 102.48 79.2934 102.48 79.2934C100.983 73.7952 106.22 76.0543 106.22 76.0543C109.062 71.3266 111.516 75.8374 111.516 75.8374C116.498 69.1049 117.71 74.7826 117.71 74.7826C122.804 73.4436 120.852 78.7997 120.852 78.7997C125.041 79.9217 121.749 82.0462 121.749 82.0462C123.365 84.0884 117.523 84.44 117.523 84.44C117.523 84.44 120.306 88.9283 117.523 90.1626L110.446 95.5859C110.446 95.5859 107.177 94.2544 105.711 95.6084Z" fill="#263238"/>
<path d="M111 91.1949C111 91.1949 114.74 82.2182 111.815 74.5582L114.284 73.7129C114.284 73.7129 117.508 84.8514 111 91.1949Z" fill="#E12B3E"/>
<path d="M114.736 90.2079C115.349 91.4945 115.589 92.0556 116.472 92.4521C116.744 92.6085 117.057 92.6812 117.37 92.6612C117.684 92.6411 117.985 92.5292 118.235 92.3394C118.486 92.1495 118.675 91.8901 118.779 91.5936C118.883 91.297 118.897 90.9764 118.82 90.6717C118.589 89.3851 117.601 87.4925 116.232 87.4551C115.912 87.4567 115.598 87.5442 115.323 87.7085C115.049 87.8728 114.823 88.1079 114.67 88.3892C114.517 88.6704 114.443 88.9876 114.454 89.3075C114.466 89.6275 114.563 89.9384 114.736 90.2079Z" fill="#B97964"/>
<path d="M110.865 108.893C110.865 108.893 115.93 112.634 117.987 114.13L132.641 107.218C132.62 106.405 132.845 105.605 133.285 104.922C133.725 104.239 134.361 103.704 135.11 103.388L136.157 102.954L138.364 101.966C138.775 101.783 139.227 101.711 139.675 101.758C140.123 101.806 140.551 101.97 140.915 102.236C141.342 102.547 141.663 102.983 141.833 103.484C142.003 103.985 142.014 104.526 141.865 105.033C141.557 106.085 140.982 107.039 140.195 107.802C139.408 108.566 138.437 109.112 137.376 109.387L135.237 109.948C135.237 109.948 122.677 119.463 118.189 119.688C113.7 119.912 107.125 115.506 107.125 115.506L110.865 108.893Z" fill="#B97964"/>
<path d="M98.6871 102.588C102.555 102.588 106.878 104.997 113.648 109.41C112.676 112.592 110.867 115.454 108.412 117.699C108.412 117.699 104.671 116.696 99.7044 112.021C93.72 106.358 96.3158 102.595 98.6871 102.588Z" fill="#263238"/>
<path d="M172.147 113.793H135.493C135.184 113.798 134.879 113.738 134.595 113.616C134.312 113.493 134.058 113.312 133.85 113.085C133.642 112.857 133.485 112.588 133.389 112.294C133.293 112.001 133.261 111.691 133.294 111.385L136.054 79.8319C136.12 79.1795 136.423 78.5739 136.905 78.1299C137.388 77.686 138.016 77.4345 138.672 77.4231H175.327C175.635 77.4181 175.94 77.4787 176.223 77.6009C176.506 77.7232 176.759 77.9043 176.967 78.1322C177.174 78.3601 177.331 78.6295 177.426 78.9226C177.521 79.2157 177.552 79.5256 177.518 79.8319L174.758 111.385C174.692 112.036 174.39 112.64 173.909 113.084C173.428 113.528 172.802 113.78 172.147 113.793Z" fill="#E12B3E"/>
<path opacity="0.4" d="M172.147 113.793H135.493C135.184 113.798 134.879 113.738 134.595 113.616C134.312 113.493 134.058 113.312 133.85 113.085C133.642 112.857 133.485 112.588 133.389 112.294C133.293 112.001 133.261 111.691 133.294 111.385L136.054 79.8319C136.12 79.1795 136.423 78.5739 136.905 78.1299C137.388 77.686 138.016 77.4345 138.672 77.4231H175.327C175.635 77.4181 175.94 77.4787 176.223 77.6009C176.506 77.7232 176.759 77.9043 176.967 78.1322C177.174 78.3601 177.331 78.6295 177.426 78.9226C177.521 79.2157 177.552 79.5256 177.518 79.8319L174.758 111.385C174.692 112.036 174.39 112.64 173.909 113.084C173.428 113.528 172.802 113.78 172.147 113.793Z" fill="white"/>
<path opacity="0.7" d="M172.283 112.297C172.531 112.293 172.768 112.197 172.951 112.029C173.133 111.861 173.246 111.631 173.27 111.384L176.031 79.8317C176.043 79.7157 176.031 79.5983 175.995 79.4873C175.959 79.3764 175.9 79.2743 175.821 79.188C175.743 79.1017 175.647 79.0331 175.54 78.9867C175.433 78.9404 175.317 78.9173 175.2 78.919H138.546C138.297 78.9232 138.058 79.0184 137.875 79.1865C137.692 79.3547 137.576 79.5842 137.551 79.8317L134.798 111.384C134.785 111.5 134.797 111.618 134.833 111.729C134.87 111.84 134.929 111.942 135.007 112.028C135.086 112.114 135.182 112.183 135.289 112.229C135.396 112.276 135.512 112.299 135.628 112.297H172.283Z" fill="white"/>
<path d="M146.81 93.7461L134.841 111.071V111.385C134.828 111.501 134.84 111.618 134.876 111.729C134.912 111.84 134.972 111.942 135.05 112.029C135.129 112.115 135.225 112.184 135.332 112.23C135.439 112.276 135.555 112.3 135.671 112.298H156.437L146.81 93.7461Z" fill="#E12B3E"/>
<path opacity="0.3" d="M146.81 93.7461L134.841 111.071V111.385C134.828 111.501 134.84 111.618 134.876 111.729C134.912 111.84 134.972 111.942 135.05 112.029C135.129 112.115 135.225 112.184 135.332 112.23C135.439 112.276 135.555 112.3 135.671 112.298H156.437L146.81 93.7461Z" fill="white"/>
<path d="M173.376 110.181L163.345 91.1279L148.488 112.298H172.284C172.532 112.293 172.769 112.198 172.952 112.03C173.134 111.861 173.247 111.632 173.271 111.385L173.376 110.181Z" fill="#E12B3E"/>
<path d="M159.469 87.761C159.378 88.6727 158.955 89.5192 158.28 90.1397C157.606 90.7602 156.728 91.1116 155.811 91.1272C155.38 91.135 154.952 91.051 154.556 90.8805C154.16 90.7101 153.804 90.4572 153.513 90.1388C153.223 89.8203 153.003 89.4435 152.869 89.0335C152.735 88.6235 152.69 88.1897 152.737 87.761C152.827 86.8478 153.249 85.9996 153.923 85.3775C154.598 84.7555 155.477 84.403 156.395 84.3872C156.827 84.3792 157.255 84.4635 157.652 84.6344C158.049 84.8052 158.405 85.0588 158.696 85.3781C158.987 85.6974 159.206 86.0752 159.34 86.4861C159.473 86.897 159.517 87.3316 159.469 87.761Z" fill="#E12B3E"/>
<path opacity="0.4" d="M159.469 87.761C159.378 88.6727 158.955 89.5192 158.28 90.1397C157.606 90.7602 156.728 91.1116 155.811 91.1272C155.38 91.135 154.952 91.051 154.556 90.8805C154.16 90.7101 153.804 90.4572 153.513 90.1388C153.223 89.8203 153.003 89.4435 152.869 89.0335C152.735 88.6235 152.69 88.1897 152.737 87.761C152.827 86.8478 153.249 85.9996 153.923 85.3775C154.598 84.7555 155.477 84.403 156.395 84.3872C156.827 84.3792 157.255 84.4635 157.652 84.6344C158.049 84.8052 158.405 85.0588 158.696 85.3781C158.987 85.6974 159.206 86.0752 159.34 86.4861C159.473 86.897 159.517 87.3316 159.469 87.761Z" fill="white"/>
<path d="M67.995 241.149L64.2697 252.191L69.9773 254.525L74.4431 244.336L67.995 241.149Z" fill="#B97964"/>
<path d="M72.0278 254.247C71.9985 254.229 71.9747 254.204 71.9588 254.174C71.943 254.143 71.9358 254.109 71.938 254.075C71.9422 254.042 71.9568 254.011 71.9796 253.987C72.0025 253.963 72.0325 253.946 72.0652 253.94C72.1849 253.94 74.8779 253.312 75.8802 253.94C76.0698 254.056 76.2066 254.241 76.2617 254.457C76.3036 254.576 76.3074 254.706 76.2726 254.828C76.2378 254.95 76.166 255.058 76.0673 255.137C75.6858 255.407 74.7956 255.294 73.9802 255.04C73.3079 254.832 72.6547 254.567 72.0278 254.247ZM72.5963 254.195C73.7707 254.718 75.4314 255.22 75.8653 254.89C75.9251 254.846 75.9999 254.771 75.9401 254.539C75.9285 254.471 75.9007 254.407 75.859 254.352C75.8173 254.298 75.763 254.254 75.7007 254.225C75.6125 254.169 75.5168 254.126 75.4165 254.097C74.4787 253.951 73.5217 253.984 72.5963 254.195Z" fill="#E12B3E"/>
<path d="M71.944 254.21C71.9296 254.185 71.922 254.156 71.922 254.128C71.922 254.099 71.9296 254.07 71.944 254.045C71.944 253.97 72.6921 252.25 73.7468 251.801C73.8973 251.738 74.0588 251.706 74.2219 251.706C74.3849 251.706 74.5464 251.738 74.6969 251.801C75.1083 251.973 75.1756 252.235 75.1382 252.415C75.0485 253.2 73.0287 254.135 72.146 254.24C72.1356 254.245 72.124 254.248 72.1124 254.248C72.1007 254.248 72.0891 254.245 72.0787 254.24C72.0556 254.247 72.0311 254.247 72.0075 254.242C71.9839 254.237 71.9621 254.226 71.944 254.21ZM74.4799 252.093C74.2868 252.022 74.0747 252.022 73.8815 252.093C73.2156 252.506 72.6932 253.115 72.3854 253.836C73.3504 253.604 74.7268 252.811 74.824 252.34C74.824 252.295 74.824 252.175 74.5697 252.07H74.4799V252.093Z" fill="#E12B3E"/>
<path d="M71.6392 253.118L64.4729 250.873C64.3416 250.833 64.2006 250.838 64.0728 250.889C63.9451 250.939 63.8382 251.031 63.7697 251.15L60.6728 256.581C60.6058 256.695 60.5622 256.822 60.5444 256.953C60.5266 257.084 60.535 257.218 60.569 257.346C60.6031 257.474 60.6622 257.594 60.7429 257.699C60.8237 257.804 60.9244 257.892 61.0393 257.957C61.1004 257.995 61.1657 258.025 61.2338 258.047C63.8295 258.795 66.1709 259.364 69.3876 260.366C73.1877 261.533 72.0805 261.69 76.524 263.134C79.202 264.002 80.6383 261.092 79.5162 260.591C74.4968 258.346 74.4444 256.581 73.0081 254.09C72.6832 253.612 72.1974 253.267 71.6392 253.118Z" fill="#263238"/>
<path opacity="0.2" d="M66.2072 246.446L72.1916 249.468L74.4432 244.336L67.995 241.149L66.2072 246.446Z" fill="#263238"/>
<path d="M93.2953 139.025C93.2953 139.025 85.2537 145.166 86.9742 164.406C87.1388 166.187 87.7223 168.049 87.7223 170.084C87.7223 171.438 87.3483 172.388 86.9069 175.433C86.2636 179.861 85.0817 196.378 83.8324 198.525C82.5832 200.672 82.0745 200.29 78.5961 206.215C74.8558 212.588 69.9935 223.764 66.2308 242.705C68.7432 244.478 71.6129 245.681 74.6389 246.228C74.6389 246.228 95.1878 213.823 99.5564 201.756C103.469 190.962 108.129 156.514 108.129 156.514L108.503 141.553L93.2953 139.025Z" fill="#E12B3E"/>
<path opacity="0.1" d="M102.092 164.406H96.2723C96.2723 164.406 94.3573 182.719 100.686 197.994C101.344 195.54 102.01 192.6 102.661 189.421L105.182 173.293C104.823 170.57 104.546 168.491 104.501 168.356C104.374 167.93 102.092 164.406 102.092 164.406Z" fill="black"/>
<path d="M101.133 245.593L101.17 257.33L107.791 256.888L108.808 245.593H101.133Z" fill="#B97964"/>
<path d="M108.557 256.686C108.524 256.682 108.493 256.668 108.469 256.645C108.445 256.622 108.428 256.592 108.422 256.559C108.415 256.526 108.418 256.492 108.431 256.461C108.445 256.43 108.468 256.404 108.497 256.387C108.602 256.327 110.943 254.891 112.103 255.145C112.319 255.194 112.509 255.322 112.634 255.504C112.711 255.605 112.756 255.727 112.763 255.854C112.769 255.981 112.737 256.107 112.671 256.215C112.096 256.647 111.384 256.856 110.666 256.806C109.961 256.83 109.255 256.79 108.557 256.686ZM109.081 256.454C110.36 256.567 112.073 256.492 112.394 256.036C112.439 255.976 112.477 255.878 112.349 255.677C112.315 255.618 112.267 255.568 112.21 255.53C112.153 255.492 112.088 255.468 112.02 255.46C111.919 255.444 111.815 255.444 111.714 255.46C110.779 255.616 109.885 255.954 109.081 256.454Z" fill="#E12B3E"/>
<path d="M108.465 256.686C108.44 256.67 108.42 256.648 108.405 256.622C108.391 256.596 108.383 256.566 108.383 256.536C108.383 256.454 108.51 254.591 109.355 253.843C109.476 253.733 109.618 253.648 109.772 253.594C109.926 253.54 110.09 253.518 110.253 253.529C110.702 253.529 110.852 253.784 110.874 253.971C111.046 254.719 109.453 256.282 108.63 256.679C108.608 256.686 108.584 256.686 108.562 256.679C108.532 256.692 108.498 256.695 108.465 256.686ZM110.156 253.843C109.95 253.848 109.753 253.928 109.602 254.068C109.109 254.677 108.816 255.425 108.764 256.207C109.595 255.676 110.635 254.472 110.575 254.008C110.575 253.963 110.537 253.843 110.246 253.828H110.156V253.843Z" fill="#E12B3E"/>
<path d="M107.822 255.751L100.341 256.021C100.205 256.027 100.074 256.079 99.9709 256.169C99.8677 256.258 99.7978 256.38 99.7726 256.514L98.6356 262.663C98.5851 262.924 98.6402 263.195 98.7889 263.415C98.9376 263.635 99.1677 263.787 99.4285 263.838C99.5006 263.845 99.5733 263.845 99.6454 263.838C102.346 263.688 104.74 263.456 108.106 263.344C112.078 263.202 111.098 263.711 115.758 263.613C118.579 263.546 118.975 260.329 117.778 260.217C112.295 259.724 111.667 258.093 109.49 256.215C109.01 255.859 108.416 255.694 107.822 255.751Z" fill="#263238"/>
<path opacity="0.2" d="M101.155 251.667L108.277 251.517L108.808 245.593H101.133L101.155 251.667Z" fill="#263238"/>
<path d="M97.7777 136.894C97.7777 136.894 89.7511 147.523 95.6981 168.312L102.431 198.675C102.431 198.675 96.0422 212.484 99.4384 248.914C102.73 249.377 106.075 249.301 109.343 248.69C109.343 248.69 116.823 210.218 117.953 197.224C119.202 182.906 118.454 139.751 118.454 139.751L97.7777 136.894Z" fill="#E12B3E"/>
<path d="M102.625 102.438C102.625 102.438 101.383 97.1265 109.357 99.4454C117.332 101.764 116.658 106.305 116.658 106.305L102.625 102.438Z" fill="#263238"/>
<path opacity="0.4" d="M102.625 102.438C102.625 102.438 101.383 97.1265 109.357 99.4454C117.332 101.764 116.658 106.305 116.658 106.305L102.625 102.438Z" fill="black"/>
<path d="M122.404 115.724C122.404 117.586 121.656 120.279 120.908 123.294C120.563 124.723 120.249 126.211 120.04 127.722C118.91 135.951 118.544 144.621 118.544 144.621C114.142 145.581 109.589 145.624 105.169 144.748C100.75 143.871 96.5581 142.094 92.8556 139.527C92.8556 139.527 95.9899 136.871 95.3466 118.476C95.0549 110.188 92.0627 100.336 105.759 101.885C117.324 103.194 121.214 106.784 122.149 112.402C122.149 112.47 122.149 112.544 122.149 112.619L122.217 113.143C122.33 113.999 122.392 114.86 122.404 115.724Z" fill="#263238"/>
<path opacity="0.4" d="M122.402 115.723C122.402 117.586 121.654 120.279 120.906 123.294C117.779 119.553 114.645 112.484 114.645 112.484L117.225 108.684L121.774 110.801C121.931 111.327 122.056 111.861 122.148 112.402C122.148 112.469 122.148 112.544 122.148 112.619L122.215 113.142C122.328 113.998 122.39 114.86 122.402 115.723Z" fill="black"/>
<path d="M127.166 112.477C127.166 112.477 131.655 116.905 133.427 118.686L148.942 114.033C149.044 113.231 149.383 112.477 149.916 111.869C150.449 111.262 151.152 110.827 151.934 110.622L153.026 110.337L155.36 109.694C155.795 109.576 156.253 109.575 156.689 109.689C157.124 109.803 157.523 110.029 157.844 110.345C158.22 110.716 158.472 111.193 158.566 111.713C158.66 112.233 158.59 112.769 158.368 113.247C157.906 114.242 157.195 115.1 156.303 115.738C155.412 116.376 154.371 116.773 153.281 116.89L151.081 117.122C151.081 117.122 137.235 124.685 132.777 124.266C128.318 123.847 122.461 118.484 122.461 118.484L127.166 112.477Z" fill="#B97964"/>
<path d="M116.02 104.421C119.85 104.982 123.762 108.026 129.836 113.397C128.397 116.401 126.178 118.964 123.411 120.818C123.411 120.818 119.872 119.269 115.653 113.906C110.552 107.413 113.701 104.077 116.02 104.421Z" fill="#263238"/>
</svg>
