<svg width="375" height="277" viewBox="0 0 375 277" fill="none" xmlns="http://www.w3.org/2000/svg">
<path d="M337.057 257.5H312.281V257.687H337.057V257.5Z" fill="#EBEBEB"/>
<path d="M248.278 259.534H241.778V259.721H248.278V259.534Z" fill="#EBEBEB"/>
<path d="M311.531 250.558H297.176V250.745H311.531V250.558Z" fill="#EBEBEB"/>
<path d="M72.0586 251.814H39.7502V252.001H72.0586V251.814Z" fill="#EBEBEB"/>
<path d="M83.4581 251.814H78.7229V252.001H83.4581V251.814Z" fill="#EBEBEB"/>
<path d="M168.933 254.972H98.8557V255.159H168.933V254.972Z" fill="#EBEBEB"/>
<path d="M177.795 212.101H33.3615C32.2286 212.101 31.1422 211.651 30.3411 210.85C29.5401 210.048 29.0901 208.962 29.0901 207.829V4.78573C29.1 3.65938 29.5543 2.58253 30.3543 1.78956C31.1543 0.996596 32.2351 0.551715 33.3615 0.551758H177.795C178.928 0.551758 180.014 1.00178 180.815 1.80281C181.617 2.60385 182.067 3.69029 182.067 4.82313V207.829C182.067 208.962 181.617 210.048 180.815 210.85C180.014 211.651 178.928 212.101 177.795 212.101ZM33.3615 0.701369C32.2788 0.703346 31.2411 1.1343 30.4756 1.89983C29.71 2.66537 29.2791 3.70309 29.2771 4.78573V207.829C29.2791 208.912 29.71 209.95 30.4756 210.715C31.2411 211.481 32.2788 211.912 33.3615 211.914H177.795C178.878 211.912 179.915 211.481 180.681 210.715C181.447 209.95 181.878 208.912 181.88 207.829V4.78573C181.878 3.70309 181.447 2.66537 180.681 1.89983C179.915 1.1343 178.878 0.703346 177.795 0.701369H33.3615Z" fill="#EBEBEB"/>
<path d="M339.607 212.101H195.158C194.026 212.099 192.941 211.648 192.14 210.847C191.34 210.047 190.889 208.961 190.887 207.829V4.78573C190.899 3.65999 191.354 2.58427 192.153 1.79172C192.953 0.999174 194.033 0.553664 195.158 0.551758H339.607C340.731 0.555651 341.808 1.00227 342.605 1.79482C343.401 2.58736 343.854 3.66197 343.864 4.78573V207.829C343.864 208.959 343.416 210.044 342.618 210.844C341.82 211.645 340.737 212.097 339.607 212.101ZM195.158 0.701369C194.076 0.703346 193.038 1.1343 192.273 1.89983C191.507 2.66537 191.076 3.70309 191.074 4.78573V207.829C191.076 208.912 191.507 209.95 192.273 210.715C193.038 211.481 194.076 211.912 195.158 211.914H339.607C340.69 211.912 341.727 211.481 342.493 210.715C343.259 209.95 343.689 208.912 343.691 207.829V4.78573C343.689 3.70309 343.259 2.66537 342.493 1.89983C341.727 1.1343 340.69 0.703346 339.607 0.701369H195.158Z" fill="#EBEBEB"/>
<path d="M374.534 245.464H0.508057V245.651H374.534V245.464Z" fill="#EBEBEB"/>
<path d="M312.26 30.2266H218.91V129.635H312.26V30.2266Z" fill="#EBEBEB"/>
<path d="M306.648 35.8369H224.52V124.025H306.648V35.8369Z" fill="#F5F5F5"/>
<path d="M256.754 124.025H281.44L304.614 35.8369H279.929L256.754 124.025Z" fill="#FAFAFA"/>
<path d="M268.46 35.8369L245.285 124.025H251.27L274.444 35.8369H268.46Z" fill="#FAFAFA"/>
<path d="M313.433 34.9022H217.727L215.707 30.1895H315.453L313.433 34.9022Z" fill="#F5F5F5"/>
<path d="M313.433 37.6326H217.727L215.707 32.9199H315.453L313.433 37.6326Z" fill="#F0F0F0"/>
<path d="M313.433 40.3631H217.727L215.707 35.6504H315.453L313.433 40.3631Z" fill="#E6E6E6"/>
<path d="M313.433 43.0936H217.727L215.707 38.3809H315.453L313.433 43.0936Z" fill="#E0E0E0"/>
<path d="M318.94 24.2871H212.231V30.5707H318.94V24.2871Z" fill="#E0E0E0"/>
<path d="M213.319 87.5426C213.032 87.5426 212.756 87.4283 212.552 87.2249C212.349 87.0215 212.235 86.7456 212.235 86.4579V49.8034C212.235 49.5157 212.349 49.2399 212.552 49.0364C212.756 48.833 213.032 48.7188 213.319 48.7188C213.607 48.7187 213.883 48.833 214.086 49.0364C214.29 49.2399 214.404 49.5157 214.404 49.8034V86.4579C214.404 86.7456 214.29 87.0215 214.086 87.2249C213.883 87.4283 213.607 87.5426 213.319 87.5426Z" fill="#E0E0E0"/>
<path d="M213.711 29.3145H212.926V51.0827H213.711V29.3145Z" fill="#E0E0E0"/>
<path d="M68.2217 28.3047H66.8752V133.309H68.2217V28.3047Z" fill="#E0E0E0"/>
<path d="M152.042 28.3047H150.696V133.309H152.042V28.3047Z" fill="#E0E0E0"/>
<path d="M157.323 34.9022H61.602L59.5823 30.1895H159.335L157.323 34.9022Z" fill="#F5F5F5"/>
<path d="M157.323 41.3729H61.602L59.5823 36.6602H159.335L157.323 41.3729Z" fill="#F5F5F5"/>
<path d="M157.323 47.8436H61.602L59.5823 43.1309H159.335L157.323 47.8436Z" fill="#F5F5F5"/>
<path d="M157.323 54.3143H61.602L59.5823 49.6016H159.335L157.323 54.3143Z" fill="#F5F5F5"/>
<path d="M157.323 60.785H61.602L59.5823 56.0723H159.335L157.323 60.785Z" fill="#F5F5F5"/>
<path d="M157.323 67.2557H61.602L59.5823 62.543H159.335L157.323 67.2557Z" fill="#F5F5F5"/>
<path d="M157.323 73.7264H61.602L59.5823 69.0137H159.335L157.323 73.7264Z" fill="#F5F5F5"/>
<path d="M157.323 80.1971H61.602L59.5823 75.4844H159.335L157.323 80.1971Z" fill="#F5F5F5"/>
<path d="M157.323 86.6678H61.602L59.5823 81.9551H159.335L157.323 86.6678Z" fill="#F5F5F5"/>
<path d="M157.323 93.1385H61.602L59.5823 88.4258H159.335L157.323 93.1385Z" fill="#F5F5F5"/>
<path d="M157.323 99.6082H61.602L59.5823 94.8955H159.335L157.323 99.6082Z" fill="#F5F5F5"/>
<path d="M157.323 106.072H61.602L59.5823 101.359H159.335L157.323 106.072Z" fill="#F5F5F5"/>
<path d="M157.323 112.55H61.602L59.5823 107.83H159.335L157.323 112.55Z" fill="#F5F5F5"/>
<path d="M157.323 119.014H61.602L59.5823 114.301H159.335L157.323 119.014Z" fill="#F5F5F5"/>
<path d="M157.323 125.484H61.602L59.5823 120.771H159.335L157.323 125.484Z" fill="#F5F5F5"/>
<path d="M157.323 131.954H61.602L59.5823 127.241H159.335L157.323 131.954Z" fill="#F5F5F5"/>
<path d="M159.335 131.954H59.5823V134.647H159.335V131.954Z" fill="#E0E0E0"/>
<path d="M162.811 24.2871H56.1018V30.5707H162.811V24.2871Z" fill="#E0E0E0"/>
<path d="M57.2021 87.5426C56.9144 87.5426 56.6385 87.4283 56.4351 87.2249C56.2317 87.0215 56.1174 86.7456 56.1174 86.4579V49.8034C56.1174 49.5157 56.2317 49.2399 56.4351 49.0364C56.6385 48.833 56.9144 48.7188 57.2021 48.7188C57.4898 48.7187 57.7657 48.833 57.9691 49.0364C58.1725 49.2399 58.2868 49.5157 58.2868 49.8034V86.4579C58.2868 86.7456 58.1725 87.0215 57.9691 87.2249C57.7657 87.4283 57.4898 87.5426 57.2021 87.5426Z" fill="#E0E0E0"/>
<path d="M57.5904 29.3145H56.8049V51.0827H57.5904V29.3145Z" fill="#E0E0E0"/>
<path d="M67.3254 200.565C67.2357 200.662 67.7369 201.366 65.6872 201.059C60.6379 200.311 51.8483 198.254 49.4021 193.062C45.9087 185.649 56.7405 188.357 56.3665 184.564C55.9925 180.772 43.6496 181.43 42.3555 175.872C41.0614 170.314 49.4096 172.962 49.5218 170.254C49.634 167.546 39.9991 169.222 38.0841 163.222C36.1691 157.223 43.4551 161.644 42.6173 159.146C41.7795 156.647 33.6407 145.374 38.0617 144.065C42.4827 142.756 49.9707 154.328 52.8731 155.966C55.7755 157.605 58.3189 148.157 61.7599 152.151C65.201 156.146 59.7402 170.105 64.1238 172.805C67.3928 174.825 66.4727 169.267 70.7814 170.307C76.6088 171.713 74.6414 192.382 67.3254 200.565Z" fill="#EBEBEB"/>
<path d="M51.741 170.284C53.2267 170.394 54.6922 170.693 56.1021 171.174C55.1673 169.77 54.1297 168.438 52.9977 167.187C52.9369 167.115 52.9055 167.023 52.9098 166.929C52.9141 166.835 52.9537 166.746 53.0208 166.68C53.0879 166.613 53.1775 166.575 53.2717 166.572C53.3659 166.569 53.4577 166.602 53.5288 166.664C55.9688 169.4 58.0571 172.431 59.7451 175.685C61.3385 166.117 57.3289 157.732 57.284 157.672C57.2601 157.606 57.2615 157.533 57.288 157.468C57.3144 157.403 57.364 157.35 57.4272 157.32C57.4904 157.289 57.5628 157.283 57.6302 157.302C57.6977 157.322 57.7556 157.365 57.7927 157.425C57.8376 157.515 62.109 166.439 60.1715 176.478C60.6877 177.458 61.2113 178.513 61.72 179.642C63.53 183.669 64.96 187.857 65.9914 192.15C67.8597 188.625 68.884 184.715 68.9836 180.727C68.9845 180.691 68.9926 180.655 69.0075 180.622C69.0223 180.588 69.0435 180.558 69.0699 180.533C69.0963 180.508 69.1273 180.489 69.1613 180.476C69.1953 180.463 69.2315 180.457 69.2678 180.458C69.3051 180.459 69.3419 180.467 69.376 180.482C69.4102 180.497 69.441 180.519 69.4667 180.546C69.4924 180.573 69.5125 180.605 69.5258 180.64C69.5392 180.675 69.5456 180.712 69.5446 180.749C69.4548 185.025 68.3059 189.212 66.2008 192.935C68.1096 201.383 68.7475 210.069 68.0934 218.705C68.0905 218.755 68.078 218.803 68.0565 218.847C68.035 218.891 68.005 218.931 67.9681 218.964C67.9313 218.996 67.8884 219.021 67.8418 219.037C67.7953 219.053 67.746 219.06 67.6969 219.057H67.652C67.5615 219.041 67.4805 218.991 67.425 218.917C67.3696 218.844 67.3438 218.752 67.3528 218.661C68.2729 205.196 66.2681 194.416 63.4854 186.233C61.9412 184.444 59.8277 183.242 57.501 182.829C57.4289 182.814 57.365 182.773 57.322 182.714C57.279 182.654 57.2601 182.58 57.2691 182.507C57.2737 182.471 57.2855 182.436 57.3038 182.404C57.3222 182.372 57.3467 182.344 57.3759 182.322C57.4052 182.299 57.4386 182.283 57.4742 182.274C57.5098 182.265 57.5469 182.263 57.5833 182.268C59.6238 182.62 61.5168 183.561 63.0291 184.976C61.4125 180.423 59.2738 176.073 56.6557 172.012C55.078 171.353 53.4022 170.959 51.6961 170.845C51.622 170.839 51.5531 170.805 51.5042 170.749C51.4552 170.693 51.4301 170.62 51.4343 170.546C51.4361 170.508 51.4456 170.471 51.4623 170.437C51.4789 170.403 51.5023 170.373 51.531 170.349C51.5598 170.324 51.5932 170.306 51.6293 170.295C51.6654 170.284 51.7034 170.28 51.741 170.284Z" fill="#F5F5F5"/>
<path d="M73.8162 203.431C78.0127 203.506 85.1791 199.609 88.0291 195.823C90.8792 192.038 82.8526 194.327 83.6755 191.335C84.4983 188.343 94.4025 190.55 96.2278 186.218C98.053 181.887 90.9166 182.89 91.2009 180.675C91.4851 178.461 98.8833 178.917 101.255 174.317C103.626 169.716 97.1254 172.297 98.1428 170.39C99.1601 168.482 107.321 160.463 103.91 158.795C100.499 157.127 92.8466 165.475 90.2882 166.41C87.7299 167.345 87.124 161.57 83.7877 164.33C80.4514 167.091 82.9499 179.149 79.0301 180.743C76.1052 181.932 77.347 176.404 73.9807 177.803C68.0263 180.249 72.0882 203.394 73.8162 203.431Z" fill="#E0E0E0"/>
<g opacity="0.3">
<path opacity="0.3" d="M73.8162 203.431C78.0127 203.506 85.1791 199.609 88.0291 195.823C90.8792 192.038 82.8526 194.327 83.6755 191.335C84.4983 188.343 94.4025 190.55 96.2278 186.218C98.053 181.887 90.9166 182.89 91.2009 180.675C91.4851 178.461 98.8833 178.917 101.255 174.317C103.626 169.716 97.1254 172.297 98.1428 170.39C99.1601 168.482 107.321 160.463 103.91 158.795C100.499 157.127 92.8466 165.475 90.2882 166.41C87.7299 167.345 87.124 161.57 83.7877 164.33C80.4514 167.091 82.9499 179.149 79.0301 180.743C76.1052 181.932 77.347 176.404 73.9807 177.803C68.0263 180.249 72.0882 203.394 73.8162 203.431Z" fill="#E0E0E0"/>
</g>
<path d="M75.1781 198.396C75.1147 198.373 75.0617 198.328 75.0285 198.269C73.4291 194.758 72.7791 190.889 73.1434 187.048C73.1409 187.007 73.1472 186.967 73.1617 186.929C73.1763 186.891 73.1989 186.856 73.228 186.828C73.257 186.799 73.2919 186.777 73.3301 186.763C73.3684 186.749 73.4092 186.744 73.4498 186.747C73.4904 186.75 73.5298 186.762 73.5654 186.782C73.601 186.802 73.6319 186.829 73.656 186.862C73.6802 186.895 73.697 186.932 73.7053 186.972C73.7137 187.012 73.7134 187.053 73.7045 187.093C73.3911 190.739 73.9741 194.406 75.4025 197.775C77.1371 193.096 79.2746 188.575 81.7909 184.265C81.0428 175.289 85.6658 167.883 85.7107 167.808C85.7504 167.746 85.8132 167.702 85.8855 167.685C85.9577 167.669 86.0334 167.683 86.0959 167.722C86.1584 167.762 86.2026 167.825 86.2187 167.897C86.2349 167.969 86.2216 168.045 86.1819 168.107C83.5082 172.751 82.165 178.041 82.2996 183.398C85.3157 178.223 88.9149 173.412 93.0266 169.057C93.0604 169.019 93.1019 168.987 93.1485 168.965C93.195 168.943 93.2457 168.931 93.2972 168.929C93.3487 168.927 93.4 168.936 93.4478 168.956C93.4957 168.975 93.5391 169.004 93.5752 169.04C93.6114 169.077 93.6396 169.121 93.6581 169.169C93.6766 169.217 93.6849 169.268 93.6825 169.32C93.6802 169.371 93.6672 169.422 93.6445 169.468C93.6217 169.514 93.5896 169.555 93.5503 169.589C90.5125 172.785 87.7708 176.25 85.3591 179.942C87.8861 178.99 90.5658 178.508 93.266 178.52C93.3401 178.524 93.4097 178.557 93.46 178.611C93.5103 178.666 93.5373 178.738 93.5353 178.812C93.5333 178.884 93.5033 178.953 93.4516 179.003C93.3999 179.053 93.3306 179.081 93.2585 179.081C90.3558 179.057 87.4781 179.619 84.7981 180.735C83.1457 183.272 81.6227 185.891 80.2349 188.582C81.3619 187.8 82.6451 187.272 83.9961 187.034C85.347 186.796 86.7334 186.855 88.0596 187.205C88.1317 187.225 88.1933 187.271 88.2311 187.336C88.2689 187.4 88.2798 187.477 88.2615 187.549C88.252 187.585 88.2355 187.618 88.213 187.647C88.1905 187.676 88.1624 187.701 88.1303 187.719C88.0983 187.737 88.063 187.748 88.0264 187.753C87.9898 187.757 87.9528 187.754 87.9174 187.744C86.4797 187.374 84.9731 187.363 83.5303 187.713C82.0875 188.062 80.7529 188.762 79.644 189.749C74.8209 199.31 72.0704 209.781 71.5725 220.478C71.5686 220.575 71.5275 220.666 71.4578 220.733C71.3881 220.8 71.2951 220.838 71.1985 220.838C71.1018 220.838 71.0089 220.8 70.9392 220.733C70.8694 220.666 70.8283 220.575 70.8245 220.478C71.1384 212.938 72.6067 205.491 75.1781 198.396Z" fill="#F5F5F5"/>
<path d="M61.9909 244.416C57.9889 236.891 55.3557 226.014 55.3557 221.227C55.3751 219.275 55.8234 217.351 56.6688 215.592C57.5142 213.833 58.7361 212.281 60.248 211.046H80.752C82.2639 212.281 83.4858 213.833 84.3312 215.592C85.1766 217.351 85.6249 219.275 85.6443 221.227C85.6443 225.999 83.0112 236.876 79.0091 244.416H61.9909Z" fill="#F0F0F0"/>
<path d="M183.915 276.366C264.018 276.366 328.954 272.574 328.954 267.898C328.954 263.221 264.018 259.43 183.915 259.43C103.812 259.43 38.8752 263.221 38.8752 267.898C38.8752 272.574 103.812 276.366 183.915 276.366Z" fill="#F5F5F5"/>
<path d="M219.426 48.9059H201.473C200.888 48.9184 200.325 49.1262 199.872 49.4963C199.419 49.8665 199.103 50.3775 198.975 50.9481L198.855 51.5091C198.545 52.901 197.776 54.1482 196.671 55.0504C195.567 55.9526 194.192 56.4574 192.766 56.4837H175.71C174.357 56.5139 173.048 56.0078 172.067 55.0758C171.086 54.1438 170.513 52.8617 170.474 51.5091V50.9481C170.46 50.3939 170.227 49.8677 169.826 49.4849C169.425 49.1021 168.889 48.8939 168.334 48.9059H150.381C147.433 48.9584 144.605 50.0895 142.434 52.0855C140.263 54.0815 138.899 56.8038 138.599 59.7377L124.192 224.713C124.04 226.092 124.183 227.488 124.613 228.808C125.042 230.127 125.748 231.34 126.683 232.366C127.618 233.391 128.761 234.206 130.035 234.755C131.309 235.305 132.686 235.576 134.074 235.552H203.096C206.046 235.498 208.873 234.365 211.044 232.368C213.215 230.371 214.579 227.647 214.878 224.713L229.316 59.7377C229.467 58.3583 229.322 56.9624 228.892 55.6432C228.461 54.324 227.755 53.1116 226.819 52.0868C225.883 51.062 224.74 50.2482 223.465 49.6997C222.191 49.1513 220.814 48.8807 219.426 48.9059Z" fill="#BB3194"/>
<path opacity="0.7" d="M219.426 48.9059H201.473C200.888 48.9184 200.325 49.1262 199.872 49.4963C199.419 49.8665 199.103 50.3775 198.975 50.9481L198.855 51.5091C198.545 52.901 197.776 54.1482 196.671 55.0504C195.567 55.9526 194.192 56.4574 192.766 56.4837H175.71C174.357 56.5139 173.048 56.0078 172.067 55.0758C171.086 54.1438 170.513 52.8617 170.474 51.5091V50.9481C170.46 50.3939 170.227 49.8677 169.826 49.4849C169.425 49.1021 168.889 48.8939 168.334 48.9059H150.381C147.433 48.9584 144.605 50.0895 142.434 52.0855C140.263 54.0815 138.899 56.8038 138.599 59.7377L124.192 224.713C124.04 226.092 124.183 227.488 124.613 228.808C125.042 230.127 125.748 231.34 126.683 232.366C127.618 233.391 128.761 234.206 130.035 234.755C131.309 235.305 132.686 235.576 134.074 235.552H203.096C206.046 235.498 208.873 234.365 211.044 232.368C213.215 230.371 214.579 227.647 214.878 224.713L229.316 59.7377C229.467 58.3583 229.322 56.9624 228.892 55.6432C228.461 54.324 227.755 53.1116 226.819 52.0868C225.883 51.062 224.74 50.2482 223.465 49.6997C222.191 49.1513 220.814 48.8807 219.426 48.9059Z" fill="white"/>
<path d="M212.433 124.788H175.778C175.47 124.793 175.164 124.733 174.881 124.61C174.598 124.488 174.344 124.307 174.136 124.08C173.928 123.852 173.771 123.582 173.675 123.289C173.579 122.996 173.546 122.686 173.579 122.38L176.339 90.8193C176.405 90.1669 176.708 89.5613 177.191 89.1174C177.673 88.6734 178.302 88.4219 178.958 88.4106H215.612C215.921 88.4044 216.227 88.4643 216.511 88.586C216.795 88.7078 217.049 88.8888 217.257 89.1168C217.465 89.3448 217.623 89.6146 217.718 89.9082C217.814 90.2018 217.845 90.5124 217.811 90.8193L215.051 122.38C214.984 123.031 214.68 123.636 214.198 124.08C213.716 124.523 213.088 124.775 212.433 124.788Z" fill="white"/>
<path d="M200.24 223.471H138.9C138.133 223.485 137.373 223.336 136.668 223.033C135.964 222.73 135.333 222.28 134.816 221.714C134.299 221.147 133.909 220.477 133.672 219.748C133.434 219.02 133.355 218.248 133.439 217.486C133.605 215.866 134.359 214.362 135.558 213.26C136.757 212.157 138.318 211.532 139.947 211.502H201.287C202.054 211.488 202.815 211.637 203.519 211.94C204.223 212.243 204.855 212.693 205.371 213.259C205.888 213.825 206.278 214.495 206.516 215.224C206.753 215.953 206.832 216.724 206.748 217.486C206.584 219.107 205.83 220.612 204.631 221.715C203.431 222.818 201.869 223.442 200.24 223.471Z" fill="white"/>
<path d="M205.124 79.733H148.848C148.417 79.746 147.988 79.6655 147.59 79.497C147.193 79.3286 146.837 79.0762 146.546 78.7571C146.255 78.4381 146.037 78.0599 145.906 77.6486C145.776 77.2373 145.736 76.8026 145.789 76.3742L146.245 71.1379C146.34 70.2301 146.763 69.3882 147.435 68.771C148.108 68.1537 148.983 67.8036 149.895 67.7866H206.171C206.601 67.7789 207.027 67.8626 207.422 68.0322C207.817 68.2018 208.171 68.4534 208.461 68.7704C208.751 69.0873 208.97 69.4623 209.104 69.8705C209.238 70.2787 209.284 70.7107 209.238 71.1379L208.774 76.3742C208.681 77.2834 208.259 78.1271 207.586 78.7459C206.914 79.3647 206.038 79.7158 205.124 79.733Z" fill="white"/>
<path d="M216.57 70.9581C216.545 71.2115 216.427 71.4467 216.24 71.6191C216.052 71.7914 215.808 71.8889 215.553 71.8931C215.434 71.8949 215.315 71.8712 215.205 71.8237C215.095 71.7762 214.997 71.7059 214.916 71.6175C214.836 71.5292 214.775 71.4247 214.738 71.311C214.7 71.1973 214.688 71.077 214.7 70.9581C214.726 70.7054 214.844 70.4711 215.032 70.2999C215.22 70.1288 215.464 70.0329 215.718 70.0305C215.837 70.0277 215.955 70.0504 216.065 70.097C216.175 70.1437 216.274 70.2132 216.354 70.3011C216.435 70.3889 216.496 70.4929 216.533 70.6062C216.571 70.7195 216.583 70.8395 216.57 70.9581Z" fill="white"/>
<path d="M216.321 73.7564C216.297 74.0092 216.181 74.2443 215.994 74.4168C215.808 74.5893 215.565 74.6871 215.311 74.6915C215.191 74.6932 215.073 74.6696 214.963 74.6221C214.853 74.5746 214.755 74.5043 214.674 74.4159C214.593 74.3275 214.533 74.223 214.495 74.1094C214.458 73.9957 214.445 73.8754 214.458 73.7564C214.482 73.5037 214.598 73.2686 214.785 73.0961C214.971 72.9236 215.214 72.8258 215.468 72.8214C215.588 72.8196 215.706 72.8433 215.816 72.8908C215.926 72.9383 216.024 73.0086 216.105 73.097C216.185 73.1854 216.246 73.2899 216.284 73.4035C216.321 73.5172 216.334 73.6375 216.321 73.7564Z" fill="white"/>
<path d="M216.082 76.5465C216.057 76.7999 215.939 77.0351 215.751 77.2075C215.564 77.3798 215.32 77.4773 215.065 77.4815C214.945 77.4833 214.827 77.4596 214.717 77.4121C214.607 77.3646 214.509 77.2943 214.428 77.2059C214.347 77.1176 214.286 77.0131 214.249 76.8994C214.212 76.7857 214.199 76.6654 214.212 76.5465C214.238 76.2931 214.355 76.0579 214.543 75.8855C214.73 75.7132 214.975 75.6156 215.229 75.6114C215.349 75.6097 215.468 75.6334 215.577 75.6809C215.687 75.7284 215.786 75.7986 215.866 75.887C215.947 75.9754 216.008 76.0799 216.045 76.1936C216.082 76.3073 216.095 76.4275 216.082 76.5465Z" fill="white"/>
<path d="M207.877 176.852H139.408C139.099 176.858 138.793 176.798 138.509 176.677C138.226 176.555 137.971 176.374 137.763 176.146C137.555 175.918 137.398 175.648 137.302 175.354C137.206 175.061 137.175 174.75 137.209 174.443L140.396 138.425C140.461 137.772 140.764 137.167 141.247 136.723C141.729 136.279 142.358 136.027 143.014 136.016H211.46C211.768 136.011 212.074 136.071 212.357 136.194C212.64 136.316 212.893 136.497 213.101 136.725C213.308 136.953 213.464 137.222 213.56 137.515C213.655 137.808 213.686 138.118 213.652 138.425L210.503 174.443C210.437 175.097 210.133 175.704 209.649 176.148C209.165 176.592 208.534 176.842 207.877 176.852Z" fill="white"/>
<path d="M158.245 184.378H136.925C136.851 184.379 136.777 184.365 136.708 184.335C136.639 184.306 136.578 184.262 136.527 184.207C136.477 184.151 136.439 184.086 136.416 184.015C136.393 183.944 136.386 183.868 136.394 183.794C136.409 183.635 136.482 183.486 136.599 183.377C136.717 183.268 136.87 183.206 137.03 183.203H158.35C158.425 183.202 158.5 183.216 158.569 183.246C158.639 183.276 158.7 183.321 158.751 183.377C158.801 183.433 158.839 183.499 158.861 183.571C158.884 183.643 158.89 183.719 158.881 183.794C158.864 183.952 158.791 184.099 158.673 184.206C158.556 184.314 158.404 184.375 158.245 184.378Z" fill="white"/>
<path d="M184.89 184.378H162.007C161.932 184.38 161.857 184.367 161.787 184.338C161.718 184.309 161.655 184.265 161.604 184.21C161.553 184.154 161.514 184.088 161.491 184.017C161.468 183.945 161.46 183.869 161.469 183.794C161.483 183.635 161.556 183.486 161.674 183.377C161.791 183.268 161.944 183.206 162.104 183.203H184.995C185.07 183.202 185.145 183.216 185.214 183.246C185.284 183.276 185.346 183.321 185.396 183.377C185.447 183.433 185.484 183.499 185.507 183.571C185.529 183.643 185.536 183.719 185.526 183.794C185.509 183.952 185.436 184.099 185.319 184.206C185.201 184.314 185.049 184.375 184.89 184.378Z" fill="white"/>
<path d="M150.868 189.576H136.476C136.4 189.578 136.325 189.563 136.255 189.533C136.186 189.504 136.123 189.459 136.072 189.403C136.021 189.347 135.983 189.281 135.96 189.209C135.936 189.137 135.929 189.061 135.937 188.986C135.953 188.827 136.027 188.679 136.144 188.57C136.261 188.462 136.413 188.399 136.573 188.395H150.996C151.071 188.394 151.145 188.41 151.214 188.44C151.283 188.47 151.345 188.515 151.396 188.57C151.447 188.626 151.485 188.692 151.509 188.763C151.533 188.835 151.541 188.911 151.534 188.986C151.517 189.149 151.44 189.301 151.316 189.411C151.193 189.52 151.033 189.579 150.868 189.576Z" fill="white"/>
<path d="M178.275 189.577H154.652C154.576 189.578 154.501 189.563 154.431 189.534C154.362 189.504 154.299 189.459 154.248 189.403C154.197 189.347 154.159 189.281 154.135 189.209C154.112 189.137 154.104 189.061 154.113 188.986C154.129 188.825 154.204 188.677 154.323 188.568C154.441 188.459 154.595 188.397 154.756 188.395H178.372C178.448 188.393 178.523 188.408 178.593 188.438C178.662 188.468 178.725 188.512 178.776 188.568C178.827 188.624 178.865 188.69 178.889 188.762C178.912 188.834 178.919 188.91 178.911 188.986C178.896 189.145 178.823 189.294 178.706 189.403C178.589 189.512 178.435 189.574 178.275 189.577Z" fill="white"/>
<path d="M174.461 194.769H136.019C135.943 194.771 135.868 194.758 135.799 194.729C135.729 194.7 135.667 194.656 135.615 194.601C135.564 194.545 135.526 194.479 135.502 194.408C135.479 194.336 135.471 194.26 135.48 194.185C135.496 194.025 135.571 193.877 135.69 193.768C135.808 193.659 135.962 193.597 136.123 193.594H174.566C174.641 193.594 174.716 193.609 174.785 193.64C174.854 193.67 174.916 193.714 174.966 193.77C175.017 193.826 175.056 193.891 175.079 193.963C175.103 194.034 175.112 194.11 175.104 194.185C175.086 194.344 175.011 194.491 174.893 194.598C174.774 194.705 174.621 194.766 174.461 194.769Z" fill="white"/>
<path d="M180.789 194.768H178.253C178.178 194.771 178.103 194.757 178.033 194.728C177.964 194.699 177.901 194.656 177.85 194.6C177.799 194.545 177.76 194.479 177.737 194.407C177.714 194.336 177.706 194.26 177.715 194.185C177.729 194.025 177.802 193.877 177.92 193.768C178.037 193.659 178.19 193.597 178.35 193.594H180.894C180.969 193.592 181.044 193.607 181.113 193.637C181.183 193.667 181.245 193.711 181.295 193.767C181.346 193.823 181.383 193.89 181.406 193.962C181.428 194.034 181.435 194.11 181.425 194.185C181.409 194.343 181.335 194.49 181.218 194.597C181.101 194.705 180.948 194.766 180.789 194.768Z" fill="white"/>
<path d="M153.506 199.967H135.553C135.478 199.968 135.403 199.952 135.334 199.922C135.265 199.892 135.203 199.847 135.152 199.791C135.102 199.736 135.063 199.67 135.039 199.598C135.016 199.527 135.007 199.451 135.015 199.376C135.031 199.216 135.105 199.068 135.224 198.959C135.343 198.85 135.497 198.788 135.658 198.785H153.611C153.687 198.784 153.762 198.798 153.832 198.828C153.901 198.858 153.963 198.903 154.014 198.959C154.065 199.014 154.104 199.081 154.127 199.153C154.151 199.225 154.158 199.301 154.15 199.376C154.133 199.536 154.059 199.685 153.94 199.794C153.822 199.903 153.667 199.964 153.506 199.967Z" fill="white"/>
<path d="M179.624 199.967H157.272C157.197 199.968 157.122 199.952 157.053 199.922C156.984 199.892 156.922 199.847 156.871 199.791C156.82 199.736 156.782 199.67 156.758 199.598C156.734 199.527 156.726 199.451 156.733 199.376C156.75 199.216 156.824 199.068 156.943 198.959C157.061 198.85 157.216 198.788 157.377 198.785H179.721C179.797 198.784 179.872 198.798 179.941 198.828C180.011 198.858 180.073 198.903 180.124 198.959C180.175 199.014 180.214 199.081 180.237 199.153C180.26 199.225 180.268 199.301 180.259 199.376C180.243 199.535 180.17 199.683 180.053 199.791C179.936 199.9 179.783 199.963 179.624 199.967Z" fill="white"/>
<path d="M157.211 205.159H135.106C135.031 205.161 134.956 205.146 134.886 205.116C134.817 205.086 134.755 205.042 134.705 204.986C134.654 204.93 134.617 204.863 134.594 204.791C134.572 204.719 134.565 204.643 134.575 204.568C134.591 204.41 134.665 204.263 134.782 204.156C134.899 204.048 135.052 203.988 135.211 203.985H157.308C157.384 203.982 157.459 203.996 157.528 204.025C157.598 204.054 157.66 204.097 157.711 204.153C157.763 204.208 157.801 204.274 157.824 204.346C157.848 204.417 157.855 204.493 157.847 204.568C157.832 204.728 157.759 204.876 157.642 204.985C157.524 205.094 157.371 205.156 157.211 205.159Z" fill="white"/>
<path d="M178.769 205.159H160.965C160.89 205.161 160.815 205.146 160.746 205.116C160.677 205.086 160.615 205.042 160.564 204.986C160.514 204.93 160.476 204.863 160.454 204.791C160.431 204.719 160.425 204.643 160.434 204.568C160.451 204.41 160.524 204.263 160.642 204.156C160.759 204.048 160.911 203.988 161.07 203.985H178.874C178.949 203.982 179.024 203.996 179.094 204.025C179.163 204.054 179.226 204.097 179.277 204.153C179.328 204.208 179.367 204.274 179.39 204.346C179.413 204.417 179.421 204.493 179.412 204.568C179.396 204.728 179.321 204.877 179.203 204.986C179.084 205.095 178.93 205.156 178.769 205.159Z" fill="white"/>
<path d="M211.566 121.796C211.501 121.871 211.422 121.932 211.333 121.976C211.244 122.02 211.147 122.046 211.049 122.052C210.95 122.058 210.851 122.045 210.757 122.012C210.664 121.98 210.577 121.93 210.503 121.864L179.886 92.6448C179.746 92.5047 179.668 92.3151 179.668 92.1175C179.668 91.9198 179.746 91.7302 179.886 91.5901C179.951 91.5154 180.03 91.4543 180.119 91.4105C180.207 91.3666 180.304 91.3408 180.403 91.3345C180.502 91.3282 180.601 91.3417 180.694 91.374C180.788 91.4063 180.874 91.4569 180.948 91.5228L211.566 120.742C211.705 120.882 211.783 121.071 211.783 121.269C211.783 121.467 211.705 121.656 211.566 121.796Z" fill="#BB3194"/>
<path d="M177.178 121.788C177.117 121.709 177.073 121.618 177.048 121.521C177.022 121.424 177.017 121.323 177.032 121.224C177.046 121.125 177.081 121.03 177.133 120.944C177.185 120.859 177.254 120.784 177.335 120.726L192.954 107.957C193.103 107.828 193.296 107.763 193.492 107.776C193.688 107.789 193.871 107.878 194.002 108.024C194.061 108.103 194.105 108.194 194.129 108.29C194.154 108.386 194.159 108.486 194.144 108.584C194.129 108.683 194.095 108.777 194.044 108.862C193.993 108.947 193.925 109.02 193.844 109.079L178.225 121.856C178.077 121.984 177.884 122.049 177.688 122.036C177.492 122.024 177.309 121.935 177.178 121.788Z" fill="#BB3194"/>
<path d="M197.358 105.279C197.298 105.199 197.255 105.109 197.23 105.013C197.206 104.917 197.201 104.817 197.215 104.718C197.23 104.62 197.264 104.526 197.315 104.441C197.367 104.356 197.435 104.282 197.515 104.224L213.164 91.4323C213.313 91.3039 213.506 91.2389 213.702 91.2515C213.897 91.2641 214.081 91.3532 214.211 91.4997C214.271 91.5789 214.314 91.6693 214.339 91.7655C214.363 91.8617 214.368 91.9618 214.354 92.0599C214.339 92.1581 214.305 92.2524 214.254 92.3373C214.202 92.4222 214.135 92.496 214.054 92.5544L198.405 105.346C198.257 105.475 198.064 105.539 197.868 105.527C197.672 105.514 197.489 105.425 197.358 105.279Z" fill="#BB3194"/>
<g opacity="0.7">
<path opacity="0.7" d="M211.566 121.796C211.501 121.871 211.422 121.932 211.333 121.976C211.244 122.02 211.147 122.046 211.049 122.052C210.95 122.058 210.851 122.045 210.757 122.012C210.664 121.98 210.577 121.93 210.503 121.864L179.886 92.6448C179.746 92.5047 179.668 92.3151 179.668 92.1175C179.668 91.9198 179.746 91.7302 179.886 91.5901C179.951 91.5154 180.03 91.4543 180.119 91.4105C180.207 91.3666 180.304 91.3408 180.403 91.3345C180.502 91.3282 180.601 91.3417 180.694 91.374C180.788 91.4063 180.874 91.4569 180.948 91.5228L211.566 120.742C211.705 120.882 211.783 121.071 211.783 121.269C211.783 121.467 211.705 121.656 211.566 121.796Z" fill="white"/>
</g>
<g opacity="0.7">
<path opacity="0.7" d="M177.178 121.788C177.117 121.709 177.073 121.618 177.048 121.521C177.022 121.424 177.017 121.323 177.032 121.224C177.046 121.125 177.081 121.03 177.133 120.944C177.185 120.859 177.254 120.784 177.335 120.726L192.954 107.957C193.103 107.828 193.296 107.763 193.492 107.776C193.688 107.789 193.871 107.878 194.002 108.024C194.061 108.103 194.105 108.194 194.129 108.29C194.154 108.386 194.159 108.486 194.144 108.584C194.129 108.683 194.095 108.777 194.044 108.862C193.993 108.947 193.925 109.02 193.844 109.079L178.225 121.856C178.077 121.984 177.884 122.049 177.688 122.036C177.492 122.024 177.309 121.935 177.178 121.788Z" fill="white"/>
</g>
<g opacity="0.7">
<path opacity="0.7" d="M197.358 105.279C197.298 105.199 197.255 105.109 197.23 105.013C197.206 104.917 197.201 104.817 197.215 104.718C197.23 104.62 197.264 104.526 197.315 104.441C197.367 104.356 197.435 104.282 197.515 104.224L213.164 91.4323C213.313 91.3039 213.506 91.2389 213.702 91.2515C213.897 91.2641 214.081 91.3532 214.211 91.4997C214.271 91.5789 214.314 91.6693 214.339 91.7655C214.363 91.8617 214.368 91.9618 214.354 92.0599C214.339 92.1581 214.305 92.2524 214.254 92.3373C214.202 92.4222 214.135 92.496 214.054 92.5544L198.405 105.346C198.257 105.475 198.064 105.539 197.868 105.527C197.672 105.514 197.489 105.425 197.358 105.279Z" fill="white"/>
</g>
<path d="M124.49 45.3155H114.765C113.823 45.3194 112.921 45.6963 112.257 46.3637C111.592 47.031 111.219 47.9344 111.219 48.8762V58.6009C111.219 59.5452 111.594 60.4509 112.262 61.1187C112.93 61.7864 113.835 62.1616 114.78 62.1616H124.504C125.449 62.1616 126.355 61.7864 127.022 61.1187C127.69 60.4509 128.065 59.5452 128.065 58.6009V48.8762C128.065 48.4073 127.973 47.9431 127.793 47.5101C127.613 47.0771 127.349 46.6839 127.017 46.3531C126.685 46.0222 126.291 45.7603 125.857 45.5822C125.423 45.4041 124.958 45.3135 124.49 45.3155ZM119.65 48.7565C121.108 48.7565 121.894 49.9459 121.894 51.4046C121.894 52.8633 121.108 54.0527 119.65 54.0527C118.191 54.0527 117.406 52.8708 117.406 51.4046C117.406 49.9384 118.183 48.7565 119.65 48.7565ZM125.492 58.6831H113.8C113.753 58.6833 113.706 58.6741 113.662 58.6561C113.619 58.6381 113.579 58.6117 113.546 58.5784L114.294 56.5362C114.527 55.8922 114.953 55.3357 115.514 54.9422C116.075 54.5487 116.743 54.3374 117.428 54.337H121.849C122.535 54.337 123.204 54.548 123.766 54.9414C124.328 55.3348 124.756 55.8916 124.991 56.5362L125.739 58.5784C125.707 58.6115 125.668 58.6378 125.626 58.6558C125.584 58.6738 125.538 58.6831 125.492 58.6831Z" fill="#BB3194"/>
<path opacity="0.7" d="M124.49 45.3155H114.765C113.823 45.3194 112.921 45.6963 112.257 46.3637C111.592 47.031 111.219 47.9344 111.219 48.8762V58.6009C111.219 59.5452 111.594 60.4509 112.262 61.1187C112.93 61.7864 113.835 62.1616 114.78 62.1616H124.504C125.449 62.1616 126.355 61.7864 127.022 61.1187C127.69 60.4509 128.065 59.5452 128.065 58.6009V48.8762C128.065 48.4073 127.973 47.9431 127.793 47.5101C127.613 47.0771 127.349 46.6839 127.017 46.3531C126.685 46.0222 126.291 45.7603 125.857 45.5822C125.423 45.4041 124.958 45.3135 124.49 45.3155ZM119.65 48.7565C121.108 48.7565 121.894 49.9459 121.894 51.4046C121.894 52.8633 121.108 54.0527 119.65 54.0527C118.191 54.0527 117.406 52.8708 117.406 51.4046C117.406 49.9384 118.183 48.7565 119.65 48.7565ZM125.492 58.6831H113.8C113.753 58.6833 113.706 58.6741 113.662 58.6561C113.619 58.6381 113.579 58.6117 113.546 58.5784L114.294 56.5362C114.527 55.8922 114.953 55.3357 115.514 54.9422C116.075 54.5487 116.743 54.3374 117.428 54.337H121.849C122.535 54.337 123.204 54.548 123.766 54.9414C124.328 55.3348 124.756 55.8916 124.991 56.5362L125.739 58.5784C125.707 58.6115 125.668 58.6378 125.626 58.6558C125.584 58.6738 125.538 58.6831 125.492 58.6831Z" fill="white"/>
<path d="M90.0194 85.1719H82.6585C82.0292 85.1709 81.4058 85.294 80.8241 85.5342C80.2424 85.7743 79.7138 86.1268 79.2684 86.5715C78.823 87.0161 78.4697 87.5442 78.2287 88.1256C77.9876 88.7069 77.8635 89.3301 77.8635 89.9594V97.3202C77.8635 98.5919 78.3687 99.8116 79.2679 100.711C80.1672 101.61 81.3868 102.115 82.6585 102.115H90.0194C90.6487 102.115 91.2719 101.991 91.8532 101.75C92.4345 101.509 92.9626 101.156 93.4073 100.71C93.852 100.265 94.2044 99.7363 94.4446 99.1546C94.6848 98.5729 94.8079 97.9496 94.8069 97.3202V89.9594C94.8079 89.3304 94.6847 88.7074 94.4445 88.1261C94.2042 87.5448 93.8516 87.0167 93.4068 86.5719C92.9621 86.1272 92.4339 85.7746 91.8526 85.5343C91.2713 85.2941 90.6483 85.1709 90.0194 85.1719ZM86.3389 97.6569C86.3389 97.6569 83.3467 94.3729 83.3467 92.6973C83.3467 91.8948 83.6655 91.1251 84.233 90.5577C84.8005 89.9902 85.5701 89.6714 86.3726 89.6714C87.1751 89.6714 87.9448 89.9902 88.5122 90.5577C89.0797 91.1251 89.3985 91.8948 89.3985 92.6973C89.3611 94.3729 86.3389 97.6569 86.3389 97.6569Z" fill="#BB3194"/>
<path d="M86.3408 91.3203C86.0665 91.3189 85.7979 91.399 85.5692 91.5504C85.3404 91.7019 85.1619 91.918 85.0562 92.1712C84.9506 92.4243 84.9225 92.7032 84.9757 92.9724C85.0289 93.2415 85.1608 93.4888 85.3548 93.6828C85.5488 93.8768 85.7961 94.0087 86.0652 94.0619C86.3343 94.115 86.6132 94.087 86.8664 93.9813C87.1196 93.8757 87.3356 93.6971 87.4871 93.4684C87.6386 93.2397 87.7187 92.9711 87.7172 92.6967C87.7172 92.3317 87.5722 91.9816 87.3141 91.7235C87.056 91.4653 86.7059 91.3203 86.3408 91.3203Z" fill="#BB3194"/>
<g opacity="0.7">
<path opacity="0.7" d="M90.0194 85.1714H82.6585C82.0292 85.1704 81.4058 85.2935 80.8241 85.5337C80.2424 85.7738 79.7138 86.1263 79.2684 86.571C78.823 87.0156 78.4697 87.5437 78.2287 88.1251C77.9876 88.7064 77.8635 89.3296 77.8635 89.9589V97.3197C77.8635 98.5915 78.3687 99.8111 79.2679 100.71C80.1672 101.61 81.3868 102.115 82.6585 102.115H90.0194C90.6487 102.115 91.2719 101.991 91.8532 101.75C92.4345 101.509 92.9626 101.155 93.4073 100.71C93.852 100.265 94.2044 99.7359 94.4446 99.1541C94.6848 98.5724 94.8079 97.9491 94.8069 97.3197V89.9589C94.8079 89.3299 94.6847 88.7069 94.4445 88.1257C94.2042 87.5444 93.8516 87.0162 93.4068 86.5714C92.9621 86.1267 92.4339 85.7741 91.8526 85.5338C91.2713 85.2936 90.6483 85.1704 90.0194 85.1714ZM86.3389 97.6564C86.3389 97.6564 83.3467 94.3724 83.3467 92.6968C83.3467 91.8943 83.6655 91.1246 84.233 90.5572C84.8005 89.9897 85.5701 89.6709 86.3726 89.6709C87.1751 89.6709 87.9448 89.9897 88.5122 90.5572C89.0797 91.1246 89.3985 91.8943 89.3985 92.6968C89.3611 94.3724 86.3389 97.6564 86.3389 97.6564Z" fill="white"/>
<path opacity="0.7" d="M86.3408 91.3208C86.0665 91.3193 85.7979 91.3994 85.5692 91.5509C85.3404 91.7024 85.1619 91.9185 85.0562 92.1717C84.9506 92.4248 84.9225 92.7037 84.9757 92.9729C85.0289 93.242 85.1608 93.4893 85.3548 93.6833C85.5488 93.8773 85.7961 94.0092 86.0652 94.0624C86.3343 94.1155 86.6132 94.0875 86.8664 93.9818C87.1196 93.8761 87.3356 93.6976 87.4871 93.4689C87.6386 93.2402 87.7187 92.9716 87.7172 92.6972C87.7172 92.3322 87.5722 91.9821 87.3141 91.724C87.056 91.4658 86.7059 91.3208 86.3408 91.3208Z" fill="white"/>
</g>
<path d="M251.629 64.3086L256.559 61.1219L251.629 57.9277V64.3086Z" fill="#BB3194"/>
<path d="M257.98 52.4219H248.584C247.523 52.4219 246.505 52.8435 245.754 53.5941C245.004 54.3446 244.582 55.3625 244.582 56.424V65.8195C244.584 66.8803 245.007 67.8971 245.757 68.6472C246.507 69.3973 247.524 69.8196 248.584 69.8216H257.98C259.041 69.8216 260.059 69.3999 260.81 68.6494C261.56 67.8988 261.982 66.8809 261.982 65.8195V56.424C261.983 55.8981 261.88 55.3773 261.679 54.8913C261.479 54.4053 261.184 53.9637 260.812 53.5919C260.44 53.22 259.999 52.9253 259.513 52.7245C259.027 52.5237 258.506 52.4209 257.98 52.4219ZM253.282 67.3829C252.043 67.3829 250.833 67.0155 249.803 66.3272C248.773 65.6389 247.97 64.6606 247.497 63.516C247.023 62.3715 246.9 61.1122 247.142 59.8975C247.384 58.6827 247.981 57.5671 248.857 56.6917C249.734 55.8164 250.85 55.2207 252.065 54.9799C253.28 54.7392 254.539 54.8642 255.683 55.3393C256.827 55.8143 257.805 56.618 258.492 57.6486C259.179 58.6793 259.545 59.8905 259.543 61.1292C259.542 61.9504 259.38 62.7635 259.064 63.5218C258.749 64.2802 258.288 64.969 257.706 65.549C257.125 66.1291 256.435 66.5889 255.676 66.9023C254.917 67.2156 254.103 67.3764 253.282 67.3754V67.3829Z" fill="#BB3194"/>
<g opacity="0.7">
<path opacity="0.7" d="M251.629 64.3086L256.559 61.1219L251.629 57.9277V64.3086Z" fill="white"/>
<path opacity="0.7" d="M257.98 52.4219H248.584C247.523 52.4219 246.505 52.8435 245.754 53.5941C245.004 54.3446 244.582 55.3625 244.582 56.424V65.8195C244.584 66.8803 245.007 67.8971 245.757 68.6472C246.507 69.3973 247.524 69.8196 248.584 69.8216H257.98C259.041 69.8216 260.059 69.3999 260.81 68.6494C261.56 67.8988 261.982 66.8809 261.982 65.8195V56.424C261.983 55.8981 261.88 55.3773 261.679 54.8913C261.479 54.4053 261.184 53.9637 260.812 53.5919C260.44 53.22 259.999 52.9253 259.513 52.7245C259.027 52.5237 258.506 52.4209 257.98 52.4219ZM253.282 67.3829C252.043 67.3829 250.833 67.0155 249.803 66.3272C248.773 65.6389 247.97 64.6606 247.497 63.516C247.023 62.3715 246.9 61.1122 247.142 59.8975C247.384 58.6827 247.981 57.5671 248.857 56.6917C249.734 55.8164 250.85 55.2207 252.065 54.9799C253.28 54.7392 254.539 54.8642 255.683 55.3393C256.827 55.8143 257.805 56.618 258.492 57.6486C259.179 58.6793 259.545 59.8905 259.543 61.1292C259.542 61.9504 259.38 62.7635 259.064 63.5218C258.749 64.2802 258.288 64.969 257.706 65.549C257.125 66.1291 256.435 66.5889 255.676 66.9023C254.917 67.2156 254.103 67.3764 253.282 67.3754V67.3829Z" fill="white"/>
</g>
<path d="M267.204 88.4556C267.204 88.2611 267.204 88.0667 267.204 87.8796L268.334 87.2513C268.251 86.7164 268.111 86.1922 267.915 85.6878H266.628C266.465 85.3367 266.269 85.0012 266.045 84.6855L266.71 83.5858C266.369 83.1637 265.986 82.7777 265.566 82.4338L264.459 83.0996C264.145 82.8791 263.812 82.6863 263.464 82.5236V81.2295C262.958 81.0383 262.434 80.8979 261.9 80.8105L261.272 81.9401C261.085 81.9401 260.891 81.9401 260.696 81.9401C260.502 81.9401 260.315 81.9401 260.12 81.9401L259.492 80.8105C258.958 80.8998 258.435 81.0401 257.928 81.2295V82.5236C257.58 82.6847 257.247 82.8775 256.933 83.0996L255.826 82.4338C255.402 82.7756 255.016 83.1618 254.674 83.5858L255.34 84.6855C255.121 85.0031 254.928 85.3383 254.764 85.6878H253.477C253.282 86.193 253.139 86.7169 253.051 87.2513L254.181 87.8796C254.181 88.0667 254.181 88.2611 254.181 88.4556C254.181 88.6501 254.181 88.8446 254.181 89.0316L253.051 89.66C253.138 90.1946 253.281 90.7185 253.477 91.2234H254.764C254.928 91.5729 255.121 91.9082 255.34 92.2258L254.674 93.3329C255.018 93.7528 255.404 94.1363 255.826 94.4774L256.933 93.8117C257.245 94.0365 257.578 94.2295 257.928 94.3877V95.6818C258.434 95.8746 258.958 96.015 259.492 96.1007L260.12 94.9712C260.315 94.9712 260.502 94.9712 260.696 94.9712C260.891 94.9712 261.085 94.9712 261.272 94.9712L261.9 96.1007C262.435 96.0169 262.959 95.8765 263.464 95.6818V94.3877C263.813 94.2278 264.146 94.0349 264.459 93.8117L265.566 94.4774C265.984 94.1343 266.367 93.7509 266.71 93.3329L266.045 92.2258C266.269 91.9101 266.465 91.5746 266.628 91.2234H267.915C268.112 90.7194 268.252 90.195 268.334 89.66L267.204 89.0316C267.189 88.8222 267.204 88.6501 267.204 88.4556ZM260.681 92.8841C259.805 92.8841 258.949 92.6244 258.221 92.1378C257.493 91.6512 256.925 90.9595 256.59 90.1503C256.255 89.3411 256.167 88.4507 256.338 87.5917C256.509 86.7327 256.93 85.9436 257.55 85.3242C258.169 84.7049 258.958 84.2831 259.817 84.1123C260.676 83.9414 261.567 84.0291 262.376 84.3643C263.185 84.6994 263.877 85.2671 264.363 85.9953C264.85 86.7236 265.11 87.5798 265.11 88.4556C265.11 89.6301 264.643 90.7565 263.813 91.587C262.982 92.4175 261.856 92.8841 260.681 92.8841Z" fill="#BB3194"/>
<path opacity="0.7" d="M267.204 88.4556C267.204 88.2611 267.204 88.0667 267.204 87.8796L268.334 87.2513C268.251 86.7164 268.111 86.1922 267.915 85.6878H266.628C266.465 85.3367 266.269 85.0012 266.045 84.6855L266.71 83.5858C266.369 83.1637 265.986 82.7777 265.566 82.4338L264.459 83.0996C264.145 82.8791 263.812 82.6863 263.464 82.5236V81.2295C262.958 81.0383 262.434 80.8979 261.9 80.8105L261.272 81.9401C261.085 81.9401 260.891 81.9401 260.696 81.9401C260.502 81.9401 260.315 81.9401 260.12 81.9401L259.492 80.8105C258.958 80.8998 258.435 81.0401 257.928 81.2295V82.5236C257.58 82.6847 257.247 82.8775 256.933 83.0996L255.826 82.4338C255.402 82.7756 255.016 83.1618 254.674 83.5858L255.34 84.6855C255.121 85.0031 254.928 85.3383 254.764 85.6878H253.477C253.282 86.193 253.139 86.7169 253.051 87.2513L254.181 87.8796C254.181 88.0667 254.181 88.2611 254.181 88.4556C254.181 88.6501 254.181 88.8446 254.181 89.0316L253.051 89.66C253.138 90.1946 253.281 90.7185 253.477 91.2234H254.764C254.928 91.5729 255.121 91.9082 255.34 92.2258L254.674 93.3329C255.018 93.7528 255.404 94.1363 255.826 94.4774L256.933 93.8117C257.245 94.0365 257.578 94.2295 257.928 94.3877V95.6818C258.434 95.8746 258.958 96.015 259.492 96.1007L260.12 94.9712C260.315 94.9712 260.502 94.9712 260.696 94.9712C260.891 94.9712 261.085 94.9712 261.272 94.9712L261.9 96.1007C262.435 96.0169 262.959 95.8765 263.464 95.6818V94.3877C263.813 94.2278 264.146 94.0349 264.459 93.8117L265.566 94.4774C265.984 94.1343 266.367 93.7509 266.71 93.3329L266.045 92.2258C266.269 91.9101 266.465 91.5746 266.628 91.2234H267.915C268.112 90.7194 268.252 90.195 268.334 89.66L267.204 89.0316C267.189 88.8222 267.204 88.6501 267.204 88.4556ZM260.681 92.8841C259.805 92.8841 258.949 92.6244 258.221 92.1378C257.493 91.6512 256.925 90.9595 256.59 90.1503C256.255 89.3411 256.167 88.4507 256.338 87.5917C256.509 86.7327 256.93 85.9436 257.55 85.3242C258.169 84.7049 258.958 84.2831 259.817 84.1123C260.676 83.9414 261.567 84.0291 262.376 84.3643C263.185 84.6994 263.877 85.2671 264.363 85.9953C264.85 86.7236 265.11 87.5798 265.11 88.4556C265.11 89.6301 264.643 90.7565 263.813 91.587C262.982 92.4175 261.856 92.8841 260.681 92.8841Z" fill="white"/>
<path d="M250.155 110.695C250.155 110.403 250.155 110.119 250.118 109.835L251.809 108.9C251.681 108.097 251.471 107.31 251.18 106.551L249.25 106.588C249.007 106.065 248.716 105.564 248.383 105.092L249.377 103.439C248.868 102.81 248.294 102.236 247.664 101.726L246.011 102.714C245.538 102.385 245.037 102.097 244.515 101.853V99.9233C243.759 99.6318 242.974 99.4212 242.174 99.2949L241.239 100.986C240.954 100.986 240.67 100.986 240.378 100.986C240.087 100.986 239.802 100.986 239.518 100.986L238.606 99.2949C237.806 99.423 237.021 99.6336 236.264 99.9233V101.853C235.742 102.097 235.241 102.385 234.768 102.714L233.152 101.726C232.521 102.236 231.944 102.81 231.432 103.439L232.427 105.092C232.095 105.564 231.808 106.065 231.566 106.588L229.636 106.551C229.342 107.309 229.132 108.096 229.008 108.9L230.699 109.835C230.639 110.407 230.639 110.984 230.699 111.555L229.008 112.498C229.133 113.299 229.343 114.084 229.636 114.839L231.566 114.802C231.806 115.326 232.094 115.827 232.427 116.298L231.432 117.951C231.944 118.581 232.521 119.155 233.152 119.664L234.805 118.677C235.277 119.008 235.778 119.296 236.302 119.537V121.467C237.057 121.76 237.842 121.971 238.643 122.096L239.586 120.405C240.157 120.465 240.734 120.465 241.306 120.405L242.241 122.096C243.042 121.973 243.828 121.762 244.582 121.467V119.537C245.106 119.296 245.607 119.008 246.079 118.677L247.732 119.664C248.361 119.155 248.935 118.581 249.445 117.951L248.45 116.298C248.785 115.828 249.076 115.327 249.318 114.802L251.248 114.839C251.537 114.083 251.748 113.298 251.876 112.498L250.185 111.555C250.14 111.264 250.155 110.987 250.155 110.695ZM240.431 114.54C239.67 114.54 238.927 114.315 238.295 113.892C237.662 113.47 237.17 112.869 236.879 112.167C236.587 111.464 236.511 110.691 236.66 109.945C236.808 109.199 237.174 108.514 237.712 107.976C238.25 107.439 238.935 107.072 239.681 106.924C240.427 106.776 241.2 106.852 241.902 107.143C242.605 107.434 243.205 107.927 243.628 108.559C244.05 109.191 244.276 109.935 244.276 110.695C244.276 111.202 244.176 111.704 243.981 112.172C243.786 112.64 243.501 113.065 243.142 113.422C242.782 113.779 242.356 114.062 241.887 114.254C241.418 114.446 240.915 114.543 240.408 114.54H240.431Z" fill="#BB3194"/>
<path opacity="0.7" d="M250.155 110.695C250.155 110.403 250.155 110.119 250.118 109.835L251.809 108.9C251.681 108.097 251.471 107.31 251.18 106.551L249.25 106.588C249.007 106.065 248.716 105.564 248.383 105.092L249.377 103.439C248.868 102.81 248.294 102.236 247.664 101.726L246.011 102.714C245.538 102.385 245.037 102.097 244.515 101.853V99.9233C243.759 99.6318 242.974 99.4212 242.174 99.2949L241.239 100.986C240.954 100.986 240.67 100.986 240.378 100.986C240.087 100.986 239.802 100.986 239.518 100.986L238.606 99.2949C237.806 99.423 237.021 99.6336 236.264 99.9233V101.853C235.742 102.097 235.241 102.385 234.768 102.714L233.152 101.726C232.521 102.236 231.944 102.81 231.432 103.439L232.427 105.092C232.095 105.564 231.808 106.065 231.566 106.588L229.636 106.551C229.342 107.309 229.132 108.096 229.008 108.9L230.699 109.835C230.639 110.407 230.639 110.984 230.699 111.555L229.008 112.498C229.133 113.299 229.343 114.084 229.636 114.839L231.566 114.802C231.806 115.326 232.094 115.827 232.427 116.298L231.432 117.951C231.944 118.581 232.521 119.155 233.152 119.664L234.805 118.677C235.277 119.008 235.778 119.296 236.302 119.537V121.467C237.057 121.76 237.842 121.971 238.643 122.096L239.586 120.405C240.157 120.465 240.734 120.465 241.306 120.405L242.241 122.096C243.042 121.973 243.828 121.762 244.582 121.467V119.537C245.106 119.296 245.607 119.008 246.079 118.677L247.732 119.664C248.361 119.155 248.935 118.581 249.445 117.951L248.45 116.298C248.785 115.828 249.076 115.327 249.318 114.802L251.248 114.839C251.537 114.083 251.748 113.298 251.876 112.498L250.185 111.555C250.14 111.264 250.155 110.987 250.155 110.695ZM240.431 114.54C239.67 114.54 238.927 114.315 238.295 113.892C237.662 113.47 237.17 112.869 236.879 112.167C236.587 111.464 236.511 110.691 236.66 109.945C236.808 109.199 237.174 108.514 237.712 107.976C238.25 107.439 238.935 107.072 239.681 106.924C240.427 106.776 241.2 106.852 241.902 107.143C242.605 107.434 243.205 107.927 243.628 108.559C244.05 109.191 244.276 109.935 244.276 110.695C244.276 111.202 244.176 111.704 243.981 112.172C243.786 112.64 243.501 113.065 243.142 113.422C242.782 113.779 242.356 114.062 241.887 114.254C241.418 114.446 240.915 114.543 240.408 114.54H240.431Z" fill="white"/>
<path d="M222.679 67.3232V71.243L218.938 73.2103C218.793 73.2884 218.671 73.4043 218.587 73.546C218.502 73.6876 218.457 73.8495 218.457 74.0145C218.457 74.1795 218.502 74.3414 218.587 74.483C218.671 74.6246 218.793 74.7406 218.938 74.8186L222.679 76.786V80.7058C222.679 81.1244 222.845 81.5259 223.141 81.8219C223.437 82.1179 223.838 82.2842 224.257 82.2842H237.64C238.059 82.2842 238.461 82.1181 238.758 81.8224C239.056 81.5266 239.224 81.1251 239.226 80.7058V67.3232C239.226 66.9026 239.058 66.4992 238.761 66.2018C238.464 65.9044 238.06 65.7373 237.64 65.7373H224.235C223.819 65.7432 223.422 65.9131 223.13 66.2101C222.839 66.5071 222.677 66.9071 222.679 67.3232Z" fill="#BB3194"/>
<g opacity="0.9">
<path opacity="0.9" d="M227.256 71.4072H234.863C235.111 71.4072 235.349 71.3087 235.524 71.1334C235.7 70.958 235.798 70.7202 235.798 70.4722C235.798 70.2242 235.7 69.9863 235.524 69.811C235.349 69.6356 235.111 69.5371 234.863 69.5371H227.256C227.008 69.5371 226.77 69.6356 226.594 69.811C226.419 69.9863 226.321 70.2242 226.321 70.4722C226.321 70.7202 226.419 70.958 226.594 71.1334C226.77 71.3087 227.008 71.4072 227.256 71.4072Z" fill="white"/>
<path opacity="0.9" d="M234.863 73.1123H227.256C227.008 73.1123 226.77 73.2108 226.594 73.3862C226.419 73.5615 226.321 73.7994 226.321 74.0474C226.321 74.2954 226.419 74.5332 226.594 74.7086C226.77 74.8839 227.008 74.9824 227.256 74.9824H234.863C235.111 74.9824 235.349 74.8839 235.524 74.7086C235.7 74.5332 235.798 74.2954 235.798 74.0474C235.798 73.7994 235.7 73.5615 235.524 73.3862C235.349 73.2108 235.111 73.1123 234.863 73.1123Z" fill="white"/>
<path opacity="0.9" d="M234.863 76.6211H227.256C227.008 76.6211 226.77 76.7196 226.594 76.895C226.419 77.0703 226.321 77.3082 226.321 77.5562C226.321 77.8042 226.419 78.042 226.594 78.2173C226.77 78.3927 227.008 78.4912 227.256 78.4912H234.863C235.111 78.4912 235.349 78.3927 235.524 78.2173C235.7 78.042 235.798 77.8042 235.798 77.5562C235.798 77.3082 235.7 77.0703 235.524 76.895C235.349 76.7196 235.111 76.6211 234.863 76.6211Z" fill="white"/>
</g>
<path d="M147.05 61.1439H150.245L151.89 64.2633C151.999 64.4667 152.16 64.6367 152.358 64.7553C152.556 64.8739 152.782 64.9366 153.012 64.9366C153.243 64.9366 153.469 64.8739 153.667 64.7553C153.864 64.6367 154.026 64.4667 154.134 64.2633L155.78 61.1439H158.974C159.277 61.1439 159.578 61.0841 159.858 60.9678C160.138 60.8516 160.392 60.6812 160.606 60.4665C160.82 60.2517 160.99 59.9969 161.105 59.7165C161.22 59.4361 161.279 59.1357 161.278 58.8325V46.931C161.278 46.3199 161.036 45.7339 160.603 45.3018C160.171 44.8697 159.585 44.627 158.974 44.627H147.05C146.747 44.626 146.447 44.6849 146.167 44.8003C145.887 44.9158 145.633 45.0854 145.419 45.2996C145.205 45.5137 145.035 45.7681 144.92 46.0481C144.804 46.3281 144.745 46.6281 144.746 46.931V58.8998C144.762 59.5004 145.012 60.0712 145.442 60.4904C145.872 60.9096 146.45 61.1441 147.05 61.1439Z" fill="#BB3194"/>
<path opacity="0.9" d="M153.02 48.1953L149.34 50.3497V56.6483H152.078V52.4218H153.971V56.6483H156.708V50.3497L153.02 48.1953Z" fill="white"/>
<path d="M182.882 232.29H180.04L178.207 228.804C178.116 228.636 177.981 228.495 177.817 228.396C177.652 228.298 177.464 228.246 177.272 228.246C177.08 228.246 176.892 228.298 176.728 228.396C176.563 228.495 176.428 228.636 176.337 228.804L174.504 232.29H171.587C170.89 232.29 170.223 232.567 169.73 233.059C169.238 233.552 168.961 234.22 168.961 234.916V246.211C168.961 246.908 169.238 247.576 169.73 248.068C170.223 248.561 170.89 248.837 171.587 248.837H182.882C183.579 248.837 184.247 248.561 184.739 248.068C185.231 247.576 185.508 246.908 185.508 246.211V234.916C185.508 234.22 185.231 233.552 184.739 233.059C184.247 232.567 183.579 232.29 182.882 232.29Z" fill="#BB3194"/>
<path opacity="0.9" d="M178.837 236.607C178.288 236.058 177.595 235.677 176.837 235.508C176.08 235.339 175.29 235.389 174.56 235.653C173.83 235.917 173.191 236.383 172.716 236.997C172.242 237.611 171.952 238.347 171.881 239.12C171.81 239.893 171.96 240.67 172.314 241.36C172.669 242.05 173.213 242.625 173.882 243.018C174.551 243.41 175.319 243.604 176.094 243.576C176.87 243.548 177.621 243.3 178.261 242.861C178.292 243.046 178.378 243.218 178.508 243.355L181.051 245.891C181.223 246.062 181.455 246.159 181.698 246.159C181.941 246.159 182.173 246.062 182.345 245.891C182.517 245.719 182.613 245.486 182.613 245.243C182.613 245.001 182.517 244.768 182.345 244.596L179.809 242.061C179.673 241.926 179.498 241.837 179.308 241.806C179.846 241.02 180.093 240.071 180.007 239.122C179.921 238.173 179.507 237.284 178.837 236.607ZM177.969 241.522C177.568 241.922 177.058 242.195 176.502 242.305C175.946 242.415 175.37 242.358 174.847 242.141C174.324 241.924 173.877 241.557 173.562 241.086C173.247 240.615 173.079 240.061 173.079 239.495C173.079 238.928 173.247 238.374 173.562 237.903C173.877 237.432 174.324 237.065 174.847 236.848C175.37 236.631 175.946 236.574 176.502 236.684C177.058 236.795 177.568 237.067 177.969 237.467C178.235 237.734 178.447 238.05 178.591 238.397C178.735 238.745 178.809 239.118 178.809 239.495C178.809 239.871 178.735 240.244 178.591 240.592C178.447 240.94 178.235 241.256 177.969 241.522Z" fill="white"/>
<path d="M303.688 157.067C303.688 157.067 297.591 172.177 291.622 173.808C285.652 175.439 276.661 174.115 276.661 174.115L273.878 174.863L271.148 174.459H271.05L267.976 174.384C267.865 174.393 267.754 174.371 267.655 174.319C267.557 174.267 267.475 174.188 267.42 174.091C267.365 173.994 267.339 173.884 267.345 173.773C267.35 173.662 267.388 173.555 267.452 173.464L268.552 171.968C268.644 171.845 268.772 171.754 268.918 171.706L271.851 170.763C271.967 170.738 272.087 170.738 272.202 170.763L276.691 171.474C276.691 171.474 289.146 169.432 290.417 168.28C291.689 167.128 295.437 155.047 295.437 155.047L303.688 157.067Z" fill="#EEC1BB"/>
<path opacity="0.1" d="M276.967 171.377L276.675 171.421L272.187 170.711C272.071 170.685 271.951 170.685 271.835 170.711L268.903 171.653C268.757 171.701 268.629 171.792 268.536 171.915L267.437 173.411C267.372 173.502 267.335 173.609 267.329 173.72C267.323 173.831 267.35 173.942 267.405 174.038C267.46 174.135 267.541 174.214 267.64 174.266C267.738 174.318 267.849 174.341 267.96 174.331L271.035 174.406H271.132L272.965 174.675C274.528 173.888 275.895 172.761 276.967 171.377Z" fill="black"/>
<path d="M307.367 142.098C302.938 140.646 296.707 143.975 294.321 157.919L303.514 160.634C303.514 160.634 313.695 144.177 307.367 142.098Z" fill="#BB3194"/>
<path d="M281.606 123.875C281.606 124.339 281.853 124.706 282.152 124.706C282.451 124.706 282.713 124.309 282.69 123.86C282.668 123.412 282.444 123.038 282.144 123.045C281.845 123.053 281.606 123.419 281.606 123.875Z" fill="#263238"/>
<path d="M283.415 124.331L281.239 127.929C281.239 127.929 281.987 128.782 283.625 128.154L283.415 124.331Z" fill="#D4827D"/>
<path d="M283.825 120.988C283.799 121.018 283.765 121.041 283.727 121.054C283.689 121.067 283.648 121.07 283.609 121.063C283.314 121.012 283.012 121.033 282.727 121.122C282.442 121.212 282.183 121.369 281.97 121.579C281.925 121.621 281.864 121.645 281.802 121.645C281.74 121.645 281.679 121.621 281.634 121.579C281.591 121.532 281.567 121.47 281.567 121.407C281.567 121.343 281.591 121.282 281.634 121.235C281.898 120.964 282.224 120.762 282.584 120.646C282.943 120.53 283.326 120.504 283.698 120.569C283.73 120.573 283.76 120.583 283.788 120.598C283.816 120.614 283.84 120.635 283.859 120.66C283.879 120.685 283.893 120.713 283.902 120.744C283.91 120.775 283.912 120.807 283.908 120.838C283.896 120.895 283.868 120.948 283.825 120.988Z" fill="#263238"/>
<path d="M299.206 120.614C299.543 126.696 299.82 129.269 297.134 132.725C292.848 136.428 285.547 137.019 283.393 131.162C281.455 125.925 281.231 116.851 286.856 113.717C287.81 113.185 288.86 112.847 289.945 112.721C291.03 112.596 292.129 112.685 293.18 112.984C294.23 113.284 295.211 113.787 296.067 114.466C296.923 115.145 297.636 115.986 298.167 116.941C298.789 118.07 299.145 119.326 299.206 120.614Z" fill="#EEC1BB"/>
<path d="M290.731 133.922L292.272 142.936L299.782 141.2L297.156 131.999L290.731 133.922Z" fill="#EEC1BB"/>
<path d="M285.323 121.063C285.705 117.113 284.344 121.676 282.518 116.462C280.693 111.248 289.318 107.014 290.695 107.987C292.071 108.959 291.285 110.448 295.849 111.293C297.093 111.491 298.224 112.135 299.028 113.106C299.832 114.076 300.255 115.307 300.217 116.567C300.217 116.567 302.843 117.779 301.908 123.419C301.222 127.033 299.683 130.431 297.419 133.331C297.419 133.331 295.691 131.55 292.931 133.188C291.854 132.485 290.943 131.556 290.261 130.465C289.034 128.625 288.652 126.875 286.969 126.725C283.453 126.404 285.196 122.364 285.323 121.063Z" fill="#263238"/>
<path d="M299.731 117.247C299.731 117.247 303.471 114.958 301.81 112.557C300.15 110.156 300.95 115.205 299.731 117.247Z" fill="#263238"/>
<path d="M286.392 123.359C285.562 124.286 285.134 125.505 285.202 126.748C285.307 128.393 286.923 128.685 288.195 127.787C289.466 126.89 290.671 125.139 289.938 123.696C289.775 123.381 289.536 123.111 289.242 122.913C288.948 122.714 288.61 122.593 288.257 122.559C287.904 122.526 287.548 122.581 287.222 122.721C286.896 122.861 286.611 123.08 286.392 123.359Z" fill="#FFC3BD"/>
<path opacity="0.1" d="M290.871 134.774L291.485 138.35C291.431 137.464 291.552 136.577 291.843 135.739C292.133 134.9 292.586 134.128 293.175 133.465C292.717 133.494 292.272 133.627 291.873 133.854C291.473 134.081 291.131 134.395 290.871 134.774Z" fill="black"/>
<path d="M238.069 158.023H235.922V170.688H238.069V158.023Z" fill="#BB3194"/>
<path opacity="0.7" d="M238.069 158.023H235.922V170.688H238.069V158.023Z" fill="white"/>
<path d="M223.317 132.874H217.968C217.006 132.874 216.083 133.256 215.403 133.937C214.722 134.617 214.34 135.54 214.34 136.502V161.285C214.34 161.761 214.434 162.233 214.616 162.673C214.799 163.114 215.066 163.514 215.403 163.85C215.74 164.187 216.14 164.455 216.58 164.637C217.02 164.819 217.492 164.913 217.968 164.913H223.317V132.874Z" fill="#BB3194"/>
<path d="M256.03 132.874H219.839C217.836 132.874 216.211 134.498 216.211 136.502V161.278C216.211 163.281 217.836 164.906 219.839 164.906H256.03C258.034 164.906 259.658 163.281 259.658 161.278V136.502C259.658 134.498 258.034 132.874 256.03 132.874Z" fill="#BB3194"/>
<path opacity="0.5" d="M256.03 132.874H219.839C217.836 132.874 216.211 134.498 216.211 136.502V161.278C216.211 163.281 217.836 164.906 219.839 164.906H256.03C258.034 164.906 259.658 163.281 259.658 161.278V136.502C259.658 134.498 258.034 132.874 256.03 132.874Z" fill="white"/>
<path d="M256.03 134.37H219.839C218.662 134.37 217.707 135.325 217.707 136.502V161.278C217.707 162.455 218.662 163.409 219.839 163.409H256.03C257.207 163.409 258.162 162.455 258.162 161.278V136.502C258.162 135.325 257.207 134.37 256.03 134.37Z" fill="#263238"/>
<path d="M229.18 175.999C229.243 173.969 230.093 172.043 231.552 170.629C233.01 169.215 234.962 168.424 236.993 168.424C239.025 168.424 240.976 169.215 242.435 170.629C243.893 172.043 244.744 173.969 244.807 175.999H229.18Z" fill="#BB3194"/>
<path d="M247.619 173.336H231.992V175.872H263.246V174.832L247.619 173.336Z" fill="#BB3194"/>
<path opacity="0.8" d="M247.619 173.336H231.992V175.872H263.246V174.832L247.619 173.336Z" fill="white"/>
<path d="M247.619 175.872H231.992V173.336L247.619 174.832V175.872Z" fill="#BB3194"/>
<path opacity="0.6" d="M247.619 175.872H231.992V173.336L247.619 174.832V175.872Z" fill="white"/>
<path d="M282.075 263.177H249.841C249.198 263.178 248.561 263.052 247.967 262.807C247.372 262.561 246.832 262.201 246.377 261.747C245.922 261.292 245.561 260.753 245.315 260.158C245.068 259.564 244.942 258.928 244.942 258.285V184.168C244.942 183.525 245.068 182.888 245.315 182.294C245.561 181.7 245.922 181.16 246.377 180.706C246.832 180.251 247.372 179.891 247.967 179.646C248.561 179.4 249.198 179.274 249.841 179.275H282.075C282.422 179.275 282.755 179.413 283.001 179.659C283.246 179.904 283.384 180.237 283.384 180.584C283.384 180.932 283.246 181.265 283.001 181.51C282.755 181.756 282.422 181.894 282.075 181.894H249.841C249.544 181.889 249.248 181.943 248.971 182.054C248.694 182.164 248.443 182.329 248.23 182.537C248.018 182.746 247.849 182.995 247.734 183.27C247.619 183.545 247.56 183.84 247.56 184.138V258.255C247.56 258.552 247.619 258.847 247.734 259.122C247.849 259.397 248.018 259.646 248.23 259.855C248.443 260.064 248.694 260.228 248.971 260.339C249.248 260.449 249.544 260.504 249.841 260.499H282.075C282.422 260.499 282.755 260.637 283.001 260.882C283.246 261.128 283.384 261.461 283.384 261.808C283.392 261.985 283.364 262.161 283.302 262.327C283.24 262.493 283.145 262.644 283.022 262.772C282.9 262.9 282.753 263.002 282.59 263.072C282.427 263.141 282.252 263.177 282.075 263.177Z" fill="#263238"/>
<g opacity="0.5">
<path opacity="0.5" d="M282.075 263.177H249.841C249.198 263.178 248.561 263.052 247.967 262.807C247.372 262.561 246.832 262.201 246.377 261.747C245.922 261.292 245.561 260.753 245.315 260.158C245.068 259.564 244.942 258.928 244.942 258.285V184.168C244.942 183.525 245.068 182.888 245.315 182.294C245.561 181.7 245.922 181.16 246.377 180.706C246.832 180.251 247.372 179.891 247.967 179.646C248.561 179.4 249.198 179.274 249.841 179.275H282.075C282.422 179.275 282.755 179.413 283.001 179.659C283.246 179.904 283.384 180.237 283.384 180.584C283.384 180.932 283.246 181.265 283.001 181.51C282.755 181.756 282.422 181.894 282.075 181.894H249.841C249.544 181.889 249.248 181.943 248.971 182.054C248.694 182.164 248.443 182.329 248.23 182.537C248.018 182.746 247.849 182.995 247.734 183.27C247.619 183.545 247.56 183.84 247.56 184.138V258.255C247.56 258.552 247.619 258.847 247.734 259.122C247.849 259.397 248.018 259.646 248.23 259.855C248.443 260.064 248.694 260.228 248.971 260.339C249.248 260.449 249.544 260.504 249.841 260.499H282.075C282.422 260.499 282.755 260.637 283.001 260.882C283.246 261.128 283.384 261.461 283.384 261.808C283.392 261.985 283.364 262.161 283.302 262.327C283.24 262.493 283.145 262.644 283.022 262.772C282.9 262.9 282.753 263.002 282.59 263.072C282.427 263.141 282.252 263.177 282.075 263.177Z" fill="white"/>
</g>
<path d="M249.715 175.872H203.942V179.71H249.715V175.872Z" fill="#BB3194"/>
<path opacity="0.2" d="M249.715 175.872H203.942V179.71H249.715V175.872Z" fill="white"/>
<path d="M286.662 175.872H247.621V179.71H286.662V175.872Z" fill="#BB3194"/>
<path opacity="0.5" d="M286.662 175.872H247.621V179.71H286.662V175.872Z" fill="white"/>
<path d="M272.972 235.985L275.134 257.843H269.958L264.774 236.554L272.972 235.985Z" fill="#EEC1BB"/>
<path d="M269.471 256.385L276.077 256.497C276.197 256.5 276.313 256.544 276.406 256.621C276.498 256.699 276.562 256.805 276.585 256.923L277.693 262.317C277.739 262.546 277.694 262.784 277.567 262.98C277.439 263.176 277.24 263.314 277.012 263.364H276.825C274.439 263.282 272.337 263.117 269.344 263.065C265.851 263.005 266.726 263.439 262.612 263.431C260.136 263.431 259.732 260.596 260.779 260.477C265.604 259.953 266.128 258.509 268.013 256.819C268.429 256.5 268.948 256.346 269.471 256.385Z" fill="#263238"/>
<path opacity="0.1" d="M274.573 252.136L272.972 235.985L264.774 236.554L268.566 252.136H274.573Z" fill="black"/>
<path d="M308.415 185.59L287.185 186.338C287.185 186.338 258.587 196.339 257.839 204.022C257.016 211.936 266.621 248.299 266.621 248.299H275.157C275.157 248.299 272.8 221.616 271.903 213.447C271.005 205.279 301.668 207.979 306.994 201.015C311.864 194.626 308.415 185.59 308.415 185.59Z" fill="#263238"/>
<path opacity="0.2" d="M308.415 185.59L287.185 186.338C287.185 186.338 258.587 196.339 257.839 204.022C257.016 211.936 266.621 248.299 266.621 248.299H275.157C275.157 248.299 272.8 221.616 271.903 213.447C271.005 205.279 301.668 207.979 306.994 201.015C311.864 194.626 308.415 185.59 308.415 185.59Z" fill="black"/>
<path d="M276.577 247.102L276.764 250.116H266.216L265.184 247.102H276.577Z" fill="#BB3194"/>
<path d="M253.217 237.025L253.785 257.844H248.698L245.684 237.025H253.217Z" fill="#EEC1BB"/>
<path d="M247.995 256.385L254.6 256.497C254.721 256.5 254.837 256.544 254.929 256.621C255.022 256.699 255.085 256.806 255.109 256.924L256.216 262.317C256.263 262.546 256.218 262.784 256.09 262.98C255.963 263.176 255.763 263.314 255.535 263.365H255.348C252.962 263.282 250.86 263.118 247.868 263.065C244.367 263.005 245.25 263.439 241.135 263.432C238.659 263.432 238.255 260.597 239.303 260.477C244.127 259.953 244.651 258.51 246.536 256.819C246.952 256.499 247.472 256.345 247.995 256.385Z" fill="#263238"/>
<path opacity="0.1" d="M253.628 252.121L253.217 237.025H245.684L247.876 252.136C249.514 252.144 251.765 252.129 253.628 252.121Z" fill="black"/>
<path d="M299.183 187.348C299.183 187.348 300.948 203.491 284.528 204.246C268.108 205.002 255.287 206.879 254.913 212.722C254.539 218.564 254.913 248.329 254.913 248.329H245.989C245.989 248.329 242.518 229.508 241.164 217.838C239.847 206.505 237.423 198.284 249.071 194.447C261.436 190.362 283.414 186.592 283.414 186.592L299.242 185.59L299.183 187.348Z" fill="#263238"/>
<path d="M256.229 247.102L255.668 250.116H245.868L244.836 247.102H256.229Z" fill="#BB3194"/>
<path d="M302.722 141.035C302.722 141.035 302.722 137.4 295.369 137.819C287.559 138.268 289.033 141.754 289.033 141.754L302.722 141.035Z" fill="#BB3194"/>
<path opacity="0.3" d="M302.722 141.035C302.722 141.035 302.722 137.4 295.369 137.819C287.559 138.268 289.033 141.754 289.033 141.754L302.722 141.035Z" fill="black"/>
<path d="M309.573 157.343C309.079 164.531 309.251 186.157 309.251 186.157C309.251 186.157 293.542 187.19 281.214 186.786L279.785 145.187C279.791 144.451 280.018 143.734 280.437 143.13C280.856 142.525 281.447 142.061 282.134 141.798C285.62 140.444 293.804 138.911 306.603 140.594C311.017 141.185 310.156 148.845 309.573 157.343Z" fill="#BB3194"/>
<path d="M282.309 157.067C282.309 157.067 276.205 172.177 270.243 173.808C264.281 175.439 255.282 174.115 255.282 174.115L252.499 174.863L249.776 174.459H249.679L246.597 174.384C246.486 174.393 246.375 174.371 246.276 174.319C246.178 174.267 246.097 174.188 246.041 174.091C245.986 173.994 245.96 173.884 245.966 173.773C245.972 173.662 246.009 173.555 246.073 173.464L247.181 171.968C247.273 171.845 247.401 171.754 247.547 171.706L250.472 170.763C250.59 170.737 250.713 170.737 250.831 170.763L255.319 171.474C255.319 171.474 267.774 169.432 269.039 168.28C270.303 167.128 274.065 155.047 274.065 155.047L282.309 157.067Z" fill="#EEC1BB"/>
<path opacity="0.1" d="M282.149 150.035C282.149 150.035 281.199 151.164 280.047 152.795L280.459 164.838C285.044 162.811 286.862 151.007 286.862 151.007L283.87 148.897L282.149 150.035Z" fill="black"/>
<path d="M285.987 142.098C281.559 140.646 275.32 143.975 272.934 157.919L282.135 160.604C282.135 160.604 292.316 144.177 285.987 142.098Z" fill="#BB3194"/>
<path d="M291.845 212.078H284.926V232.358H291.845V212.078Z" fill="#263238"/>
<path opacity="0.6" d="M291.845 212.078H284.926V232.358H291.845V212.078Z" fill="white"/>
<path d="M292.916 250.73V224.967H283.85V250.73L263.211 253.595V256.46L288.383 254.313L313.555 256.46V253.595L292.916 250.73Z" fill="#263238"/>
<path d="M262.91 263.484C264.418 263.484 265.641 262.262 265.641 260.754C265.641 259.246 264.418 258.023 262.91 258.023C261.402 258.023 260.18 259.246 260.18 260.754C260.18 262.262 261.402 263.484 262.91 263.484Z" fill="#BB3194"/>
<path d="M313.555 263.484C315.063 263.484 316.285 262.262 316.285 260.754C316.285 259.246 315.063 258.023 313.555 258.023C312.047 258.023 310.824 259.246 310.824 260.754C310.824 262.262 312.047 263.484 313.555 263.484Z" fill="#BB3194"/>
<path d="M288.383 263.484C289.891 263.484 291.113 262.262 291.113 260.754C291.113 259.246 289.891 258.023 288.383 258.023C286.875 258.023 285.653 259.246 285.653 260.754C285.653 262.262 286.875 263.484 288.383 263.484Z" fill="#BB3194"/>
<path opacity="0.3" d="M291.845 212.078H284.926V217.09H291.845V212.078Z" fill="black"/>
<path d="M315.739 166.11H293.193C291.421 166.112 289.713 166.774 288.402 167.968C287.092 169.162 286.275 170.801 286.109 172.566L284.209 192.935C283.998 195.18 282.986 197.274 281.359 198.835C279.731 200.395 277.596 201.317 275.345 201.433L253.584 202.525C252.31 202.591 251.11 203.142 250.232 204.067C249.354 204.991 248.864 206.217 248.864 207.493V207.949C248.864 209.042 249.298 210.09 250.071 210.863C250.844 211.636 251.892 212.071 252.985 212.071H319.255L322.823 173.92C322.919 172.932 322.808 171.934 322.495 170.992C322.183 170.049 321.677 169.183 321.01 168.447C320.343 167.712 319.529 167.124 318.622 166.722C317.714 166.319 316.732 166.111 315.739 166.11Z" fill="#BB3194"/>
<path opacity="0.3" d="M315.739 166.11H293.193C291.421 166.112 289.713 166.774 288.402 167.968C287.092 169.162 286.275 170.801 286.109 172.566L284.209 192.935C283.998 195.18 282.986 197.274 281.359 198.835C279.731 200.395 277.596 201.317 275.345 201.433L253.584 202.525C252.31 202.591 251.11 203.142 250.232 204.067C249.354 204.991 248.864 206.217 248.864 207.493V207.949C248.864 209.042 249.298 210.09 250.071 210.863C250.844 211.636 251.892 212.071 252.985 212.071H319.255L322.823 173.92C322.919 172.932 322.808 171.934 322.495 170.992C322.183 170.049 321.677 169.183 321.01 168.447C320.343 167.712 319.529 167.124 318.622 166.722C317.714 166.319 316.732 166.111 315.739 166.11Z" fill="white"/>
<path d="M263.989 189.061H267.093V205.301C267.093 205.698 266.935 206.078 266.655 206.359C266.374 206.639 265.994 206.797 265.597 206.797H265.485C265.088 206.797 264.707 206.639 264.427 206.359C264.146 206.078 263.989 205.698 263.989 205.301V189.061Z" fill="#263238"/>
<path opacity="0.2" d="M263.989 189.061H267.093V205.301C267.093 205.698 266.935 206.078 266.655 206.359C266.374 206.639 265.994 206.797 265.597 206.797H265.485C265.088 206.797 264.707 206.639 264.427 206.359C264.146 206.078 263.989 205.698 263.989 205.301V189.061Z" fill="white"/>
<path d="M278.956 184.4H272.051V190.123H278.97C279.359 190.143 279.747 190.083 280.111 189.949C280.475 189.814 280.809 189.606 281.09 189.339C281.372 189.071 281.596 188.749 281.75 188.392C281.903 188.035 281.982 187.65 281.982 187.262C281.982 186.873 281.903 186.488 281.75 186.131C281.596 185.774 281.372 185.452 281.09 185.185C280.809 184.917 280.475 184.709 280.111 184.575C279.747 184.44 279.359 184.38 278.97 184.4H278.956Z" fill="#BB3194"/>
<path opacity="0.5" d="M278.956 184.4H272.051V190.123H278.97C279.359 190.143 279.747 190.083 280.111 189.949C280.475 189.814 280.809 189.606 281.09 189.339C281.372 189.071 281.596 188.749 281.75 188.392C281.903 188.035 281.982 187.65 281.982 187.262C281.982 186.873 281.903 186.488 281.75 186.131C281.596 185.774 281.372 185.452 281.09 185.185C280.809 184.917 280.475 184.709 280.111 184.575C279.747 184.44 279.359 184.38 278.97 184.4H278.956Z" fill="white"/>
<path d="M276.195 184.4H252.011C250.486 184.4 249.25 185.636 249.25 187.161V187.37C249.25 188.895 250.486 190.13 252.011 190.13H276.195C277.72 190.13 278.955 188.895 278.955 187.37V187.161C278.955 185.636 277.72 184.4 276.195 184.4Z" fill="#BB3194"/>
<path opacity="0.3" d="M276.195 184.4H252.011C250.486 184.4 249.25 185.636 249.25 187.161V187.37C249.25 188.895 250.486 190.13 252.011 190.13H276.195C277.72 190.13 278.955 188.895 278.955 187.37V187.161C278.955 185.636 277.72 184.4 276.195 184.4Z" fill="white"/>
<path d="M320.81 212.078H287.664L291.36 172.603C291.525 170.839 292.343 169.199 293.653 168.005C294.963 166.811 296.671 166.149 298.444 166.147H320.99C321.98 166.148 322.959 166.356 323.865 166.756C324.77 167.157 325.582 167.742 326.249 168.474C326.915 169.206 327.422 170.069 327.736 171.008C328.05 171.947 328.166 172.941 328.074 173.927L324.85 208.442C324.745 209.44 324.274 210.364 323.528 211.035C322.782 211.706 321.814 212.078 320.81 212.078Z" fill="#BB3194"/>
<path opacity="0.5" d="M320.81 212.078H287.664L291.36 172.603C291.525 170.839 292.343 169.199 293.653 168.005C294.963 166.811 296.671 166.149 298.444 166.147H320.99C321.98 166.148 322.959 166.356 323.865 166.756C324.77 167.157 325.582 167.742 326.249 168.474C326.915 169.206 327.422 170.069 327.736 171.008C328.05 171.947 328.166 172.941 328.074 173.927L324.85 208.442C324.745 209.44 324.274 210.364 323.528 211.035C322.782 211.706 321.814 212.078 320.81 212.078Z" fill="white"/>
<path d="M243.38 263.177H211.146C210.503 263.178 209.866 263.052 209.272 262.807C208.677 262.561 208.137 262.201 207.682 261.747C207.227 261.292 206.866 260.753 206.619 260.158C206.373 259.564 206.246 258.928 206.246 258.285V184.168C206.246 183.525 206.373 182.888 206.619 182.294C206.866 181.7 207.227 181.16 207.682 180.706C208.137 180.251 208.677 179.891 209.272 179.646C209.866 179.4 210.503 179.274 211.146 179.275H243.38C243.727 179.275 244.06 179.413 244.305 179.659C244.551 179.904 244.689 180.237 244.689 180.584C244.689 180.932 244.551 181.265 244.305 181.51C244.06 181.756 243.727 181.894 243.38 181.894H211.146C210.848 181.889 210.552 181.943 210.276 182.054C209.999 182.164 209.747 182.329 209.535 182.537C209.323 182.746 209.154 182.995 209.039 183.27C208.924 183.545 208.864 183.84 208.865 184.138V258.255C208.864 258.552 208.924 258.847 209.039 259.122C209.154 259.397 209.323 259.646 209.535 259.855C209.747 260.064 209.999 260.228 210.276 260.339C210.552 260.449 210.848 260.504 211.146 260.499H243.38C243.727 260.499 244.06 260.637 244.305 260.882C244.551 261.128 244.689 261.461 244.689 261.808C244.697 261.985 244.669 262.161 244.607 262.327C244.545 262.493 244.449 262.644 244.327 262.772C244.205 262.9 244.058 263.002 243.895 263.072C243.732 263.141 243.557 263.177 243.38 263.177Z" fill="#263238"/>
<g opacity="0.5">
<path opacity="0.5" d="M243.38 263.177H211.146C210.503 263.178 209.866 263.052 209.272 262.807C208.677 262.561 208.137 262.201 207.682 261.747C207.227 261.292 206.866 260.753 206.619 260.158C206.373 259.564 206.246 258.928 206.246 258.285V184.168C206.246 183.525 206.373 182.888 206.619 182.294C206.866 181.7 207.227 181.16 207.682 180.706C208.137 180.251 208.677 179.891 209.272 179.646C209.866 179.4 210.503 179.274 211.146 179.275H243.38C243.727 179.275 244.06 179.413 244.305 179.659C244.551 179.904 244.689 180.237 244.689 180.584C244.689 180.932 244.551 181.265 244.305 181.51C244.06 181.756 243.727 181.894 243.38 181.894H211.146C210.848 181.889 210.552 181.943 210.276 182.054C209.999 182.164 209.747 182.329 209.535 182.537C209.323 182.746 209.154 182.995 209.039 183.27C208.924 183.545 208.864 183.84 208.865 184.138V258.255C208.864 258.552 208.924 258.847 209.039 259.122C209.154 259.397 209.323 259.646 209.535 259.855C209.747 260.064 209.999 260.228 210.276 260.339C210.552 260.449 210.848 260.504 211.146 260.499H243.38C243.727 260.499 244.06 260.637 244.305 260.882C244.551 261.128 244.689 261.461 244.689 261.808C244.697 261.985 244.669 262.161 244.607 262.327C244.545 262.493 244.449 262.644 244.327 262.772C244.205 262.9 244.058 263.002 243.895 263.072C243.732 263.141 243.557 263.177 243.38 263.177Z" fill="white"/>
</g>
<path d="M222.075 140.28L219.831 138.784C219.774 138.748 219.727 138.697 219.694 138.638C219.662 138.578 219.645 138.512 219.645 138.444C219.645 138.376 219.662 138.309 219.694 138.25C219.727 138.19 219.774 138.14 219.831 138.103L222.075 136.607C222.158 136.553 222.258 136.534 222.355 136.553C222.452 136.573 222.537 136.63 222.591 136.712C222.643 136.794 222.661 136.893 222.642 136.987C222.622 137.082 222.567 137.166 222.487 137.221L220.624 138.455L222.487 139.689C222.567 139.744 222.622 139.828 222.642 139.922C222.661 140.017 222.643 140.116 222.591 140.198C222.532 140.275 222.446 140.326 222.35 140.341C222.254 140.357 222.156 140.335 222.075 140.28Z" fill="white"/>
<path d="M227.041 140.175C226.996 140.093 226.985 139.997 227.008 139.907C227.032 139.816 227.089 139.738 227.168 139.689L229.031 138.454L227.168 137.198C227.088 137.143 227.033 137.059 227.014 136.963C226.996 136.868 227.017 136.769 227.071 136.689C227.098 136.649 227.132 136.614 227.172 136.587C227.212 136.56 227.256 136.541 227.304 136.531C227.351 136.521 227.4 136.521 227.447 136.53C227.494 136.539 227.539 136.558 227.58 136.584L229.824 138.08C229.881 138.117 229.928 138.167 229.961 138.227C229.993 138.286 230.01 138.353 230.01 138.421C230.01 138.489 229.993 138.555 229.961 138.615C229.928 138.674 229.881 138.725 229.824 138.761L227.58 140.257C227.54 140.289 227.493 140.312 227.444 140.324C227.395 140.337 227.343 140.34 227.293 140.332C227.242 140.325 227.194 140.307 227.151 140.28C227.107 140.253 227.07 140.217 227.041 140.175Z" fill="white"/>
<path d="M223.969 141.186C223.922 141.171 223.879 141.148 223.842 141.116C223.805 141.085 223.774 141.047 223.752 141.004C223.73 140.961 223.716 140.913 223.712 140.865C223.708 140.817 223.714 140.768 223.729 140.722L225.278 135.83C225.291 135.783 225.314 135.741 225.345 135.703C225.375 135.666 225.413 135.636 225.455 135.613C225.498 135.591 225.544 135.577 225.592 135.574C225.64 135.57 225.688 135.575 225.734 135.59C225.78 135.604 225.823 135.627 225.86 135.657C225.897 135.688 225.928 135.725 225.95 135.768C225.973 135.81 225.986 135.857 225.99 135.905C225.994 135.953 225.988 136.001 225.973 136.046L224.432 140.946C224.418 140.993 224.395 141.036 224.363 141.073C224.332 141.11 224.294 141.141 224.251 141.163C224.207 141.185 224.16 141.199 224.112 141.203C224.064 141.206 224.015 141.201 223.969 141.186Z" fill="white"/>
<path d="M236.67 144.925H220.011C219.96 144.925 219.91 144.915 219.863 144.896C219.816 144.876 219.774 144.847 219.738 144.811C219.703 144.775 219.675 144.732 219.656 144.685C219.637 144.638 219.628 144.587 219.629 144.536C219.628 144.486 219.637 144.435 219.656 144.388C219.675 144.341 219.703 144.298 219.738 144.262C219.774 144.226 219.816 144.197 219.863 144.177C219.91 144.158 219.96 144.147 220.011 144.147H236.67C236.773 144.147 236.872 144.188 236.945 144.261C237.018 144.334 237.059 144.433 237.059 144.536C237.059 144.588 237.049 144.638 237.029 144.685C237.01 144.732 236.981 144.775 236.945 144.812C236.909 144.848 236.866 144.876 236.819 144.896C236.771 144.915 236.721 144.925 236.67 144.925Z" fill="white"/>
<path d="M255.806 144.926H239.139C239.088 144.926 239.038 144.916 238.99 144.896C238.943 144.877 238.9 144.848 238.864 144.812C238.828 144.776 238.799 144.733 238.78 144.686C238.76 144.638 238.75 144.588 238.75 144.537C238.758 144.439 238.802 144.347 238.874 144.281C238.946 144.214 239.041 144.177 239.139 144.178H255.791C255.894 144.178 255.993 144.219 256.066 144.292C256.139 144.365 256.18 144.464 256.18 144.567C256.173 144.662 256.13 144.751 256.061 144.818C255.992 144.884 255.901 144.922 255.806 144.926Z" fill="white"/>
<path d="M229.533 148.352H220.011C219.96 148.352 219.91 148.341 219.863 148.322C219.816 148.302 219.774 148.273 219.738 148.237C219.703 148.201 219.675 148.158 219.656 148.111C219.637 148.064 219.628 148.013 219.629 147.963C219.629 147.861 219.669 147.764 219.741 147.693C219.812 147.621 219.91 147.581 220.011 147.581H229.533C229.635 147.581 229.733 147.621 229.806 147.692C229.879 147.764 229.92 147.861 229.922 147.963C229.922 148.066 229.881 148.165 229.808 148.238C229.736 148.311 229.637 148.352 229.533 148.352Z" fill="white"/>
<path d="M247.604 148.352H232.007C231.956 148.352 231.906 148.341 231.859 148.322C231.812 148.302 231.77 148.273 231.734 148.237C231.699 148.201 231.671 148.158 231.652 148.111C231.633 148.064 231.624 148.013 231.625 147.963C231.625 147.861 231.666 147.764 231.737 147.693C231.809 147.621 231.906 147.581 232.007 147.581H247.604C247.705 147.581 247.802 147.621 247.873 147.693C247.945 147.764 247.985 147.861 247.985 147.963C247.986 148.013 247.977 148.064 247.958 148.111C247.94 148.158 247.912 148.201 247.876 148.237C247.841 148.273 247.798 148.302 247.751 148.322C247.705 148.341 247.654 148.352 247.604 148.352Z" fill="white"/>
<path d="M245.385 151.785H220.011C219.909 151.783 219.812 151.741 219.74 151.668C219.669 151.596 219.629 151.498 219.629 151.396C219.628 151.345 219.637 151.295 219.656 151.248C219.675 151.2 219.703 151.157 219.738 151.121C219.774 151.085 219.816 151.056 219.863 151.037C219.91 151.017 219.96 151.007 220.011 151.007H245.385C245.488 151.007 245.587 151.048 245.66 151.121C245.733 151.194 245.774 151.293 245.774 151.396C245.774 151.499 245.733 151.598 245.66 151.671C245.587 151.744 245.488 151.785 245.385 151.785Z" fill="white"/>
<path d="M253.162 151.785H247.866C247.763 151.785 247.664 151.744 247.591 151.671C247.518 151.598 247.477 151.499 247.477 151.396C247.477 151.293 247.518 151.194 247.591 151.121C247.664 151.048 247.763 151.007 247.866 151.007H253.162C253.265 151.007 253.364 151.048 253.437 151.121C253.51 151.194 253.551 151.293 253.551 151.396C253.551 151.499 253.51 151.598 253.437 151.671C253.364 151.744 253.265 151.785 253.162 151.785Z" fill="white"/>
<path d="M231.86 155.211H220.011C219.96 155.211 219.91 155.2 219.863 155.181C219.816 155.161 219.774 155.132 219.738 155.096C219.703 155.06 219.675 155.017 219.656 154.97C219.637 154.923 219.628 154.872 219.629 154.822C219.628 154.771 219.637 154.72 219.656 154.673C219.675 154.626 219.703 154.583 219.738 154.547C219.774 154.511 219.816 154.482 219.863 154.462C219.91 154.443 219.96 154.433 220.011 154.433H231.86C231.963 154.433 232.062 154.474 232.135 154.547C232.208 154.62 232.249 154.718 232.249 154.822C232.249 154.925 232.208 155.024 232.135 155.097C232.062 155.17 231.963 155.211 231.86 155.211Z" fill="white"/>
<path d="M249.086 155.211H234.342C234.239 155.211 234.14 155.17 234.067 155.097C233.994 155.024 233.953 154.925 233.953 154.822C233.953 154.718 233.994 154.62 234.067 154.547C234.14 154.474 234.239 154.433 234.342 154.433H249.086C249.19 154.433 249.289 154.474 249.361 154.547C249.434 154.62 249.475 154.718 249.475 154.822C249.475 154.925 249.434 155.024 249.361 155.097C249.289 155.17 249.19 155.211 249.086 155.211Z" fill="white"/>
<path d="M236.67 158.637H220.011C219.96 158.637 219.91 158.627 219.863 158.607C219.816 158.587 219.774 158.559 219.738 158.522C219.703 158.486 219.675 158.443 219.656 158.396C219.637 158.349 219.628 158.299 219.629 158.248C219.629 158.147 219.669 158.05 219.741 157.978C219.812 157.906 219.91 157.866 220.011 157.866H236.67C236.721 157.865 236.771 157.874 236.818 157.893C236.865 157.912 236.908 157.94 236.944 157.975C236.981 158.011 237.009 158.053 237.029 158.1C237.049 158.147 237.059 158.197 237.059 158.248C237.059 158.351 237.018 158.45 236.945 158.523C236.872 158.596 236.773 158.637 236.67 158.637Z" fill="white"/>
<path d="M250.906 158.637H239.139C239.036 158.637 238.937 158.596 238.864 158.523C238.791 158.45 238.75 158.351 238.75 158.248C238.75 158.197 238.76 158.147 238.78 158.1C238.8 158.053 238.828 158.011 238.865 157.975C238.901 157.94 238.944 157.912 238.991 157.893C239.038 157.874 239.088 157.865 239.139 157.866H250.891C250.992 157.866 251.089 157.906 251.161 157.978C251.232 158.05 251.273 158.147 251.273 158.248C251.275 158.348 251.237 158.444 251.169 158.517C251.1 158.59 251.006 158.633 250.906 158.637Z" fill="white"/>
<path d="M106.335 91.6797C106.641 95.203 105.878 101.584 103.223 103.649C107.554 105.212 112.147 107.905 115.08 111.458C117.989 107.224 114.683 104.808 114.683 104.808C110.943 103.476 111.339 100.641 112.304 98.0306L106.335 91.6797Z" fill="#B97964"/>
<path d="M120.495 88.6425C120.45 89.0838 120.659 89.4653 120.951 89.4953C121.243 89.5252 121.504 89.1811 121.549 88.7472C121.594 88.3133 121.385 87.9244 121.093 87.8944C120.801 87.8645 120.547 88.2011 120.495 88.6425Z" fill="#263238"/>
<path d="M120.981 87.9018L122.065 87.6924C122.065 87.6924 121.445 88.4928 120.981 87.9018Z" fill="#263238"/>
<path d="M120.644 89.1133C120.949 90.1655 121.394 91.1718 121.968 92.1055C121.725 92.2458 121.455 92.3318 121.176 92.3576C120.897 92.3834 120.616 92.3485 120.352 92.2551L120.644 89.1133Z" fill="#A24E3F"/>
<path d="M121.752 86.3156C121.821 86.3047 121.884 86.2704 121.931 86.2184C121.978 86.1686 122.003 86.1031 122.003 86.0351C122.003 85.9671 121.978 85.9017 121.931 85.8519C121.624 85.571 121.253 85.3681 120.851 85.26C120.449 85.152 120.027 85.142 119.62 85.231C119.563 85.2705 119.522 85.3302 119.507 85.3981C119.492 85.4661 119.503 85.5373 119.538 85.5975C119.561 85.636 119.594 85.6674 119.633 85.6885C119.673 85.7096 119.717 85.7195 119.762 85.7172C120.085 85.6554 120.419 85.6698 120.736 85.7594C121.052 85.849 121.344 86.0113 121.587 86.2334C121.631 86.2793 121.689 86.3084 121.752 86.3156Z" fill="#263238"/>
<path d="M105.981 85.8294C105.809 91.2977 105.622 93.6241 108.061 96.6762C111.734 101.262 118.384 100.259 120.165 94.9332C121.765 90.1382 121.78 81.9695 116.746 79.3214C111.712 76.6733 106.139 80.3462 105.981 85.8294Z" fill="#B97964"/>
<path d="M106.219 96.1601C100.841 95.24 102.382 91.8514 102.382 91.8514C97.0854 90.7816 101.177 88.1934 101.177 88.1934C96.7712 86.2933 101.177 84.5878 101.177 84.5878C96.9283 81.0645 102.988 79.8451 102.988 79.8451C101.491 74.347 106.728 76.6061 106.728 76.6061C109.57 71.8784 112.024 76.3891 112.024 76.3891C117.006 69.6567 118.218 75.3344 118.218 75.3344C123.312 73.9954 121.36 79.3514 121.36 79.3514C125.549 80.4735 122.257 82.598 122.257 82.598C123.873 84.6401 118.031 84.9917 118.031 84.9917C118.031 84.9917 120.814 89.48 118.031 90.7143L110.954 96.1377C110.954 96.1377 107.685 94.8062 106.219 96.1601Z" fill="#263238"/>
<path d="M111.508 91.7466C111.508 91.7466 115.248 82.77 112.323 75.1099L114.792 74.2646C114.792 74.2646 118.016 85.4031 111.508 91.7466Z" fill="#BB3194"/>
<path d="M115.244 90.7597C115.857 92.0463 116.097 92.6073 116.979 93.0038C117.252 93.1602 117.565 93.233 117.878 93.2129C118.192 93.1929 118.493 93.081 118.743 92.8911C118.994 92.7013 119.183 92.4419 119.287 92.1453C119.391 91.8488 119.405 91.5282 119.328 91.2235C119.096 89.9368 118.109 88.0442 116.74 88.0068C116.42 88.0084 116.106 88.096 115.831 88.2603C115.557 88.4246 115.331 88.6597 115.178 88.9409C115.025 89.2222 114.951 89.5394 114.962 89.8593C114.974 90.1792 115.071 90.4902 115.244 90.7597Z" fill="#B97964"/>
<path d="M111.373 109.445C111.373 109.445 116.438 113.185 118.495 114.681L133.149 107.769C133.128 106.957 133.353 106.157 133.793 105.474C134.233 104.791 134.869 104.256 135.618 103.939L136.665 103.506L138.872 102.518C139.283 102.335 139.735 102.263 140.183 102.31C140.631 102.357 141.059 102.522 141.423 102.787C141.85 103.099 142.171 103.535 142.341 104.036C142.511 104.537 142.522 105.078 142.373 105.585C142.065 106.637 141.49 107.591 140.703 108.354C139.916 109.117 138.945 109.663 137.884 109.939L135.745 110.5C135.745 110.5 123.185 120.015 118.697 120.239C114.208 120.464 107.633 116.058 107.633 116.058L111.373 109.445Z" fill="#B97964"/>
<path d="M99.195 103.14C103.062 103.14 107.386 105.548 114.156 109.962C113.184 113.143 111.375 116.006 108.92 118.25C108.92 118.25 105.179 117.248 100.212 112.573C94.228 106.91 96.8237 103.147 99.195 103.14Z" fill="#263238"/>
<path d="M172.655 114.345H136.001C135.692 114.35 135.387 114.289 135.103 114.167C134.82 114.045 134.566 113.864 134.358 113.636C134.15 113.409 133.993 113.139 133.897 112.846C133.801 112.553 133.769 112.243 133.801 111.936L136.562 80.3836C136.628 79.7312 136.931 79.1256 137.413 78.6817C137.896 78.2377 138.524 77.9862 139.18 77.9749H175.834C176.143 77.9698 176.448 78.0304 176.731 78.1527C177.014 78.275 177.267 78.4561 177.475 78.684C177.682 78.9118 177.839 79.1813 177.934 79.4744C178.029 79.7674 178.06 80.0774 178.026 80.3836L175.266 111.936C175.2 112.588 174.898 113.192 174.417 113.636C173.936 114.08 173.31 114.332 172.655 114.345Z" fill="#BB3194"/>
<path opacity="0.4" d="M172.655 114.345H136.001C135.692 114.35 135.387 114.289 135.103 114.167C134.82 114.045 134.566 113.864 134.358 113.636C134.15 113.409 133.993 113.139 133.897 112.846C133.801 112.553 133.769 112.243 133.801 111.936L136.562 80.3836C136.628 79.7312 136.931 79.1256 137.413 78.6817C137.896 78.2377 138.524 77.9862 139.18 77.9749H175.834C176.143 77.9698 176.448 78.0304 176.731 78.1527C177.014 78.275 177.267 78.4561 177.475 78.684C177.682 78.9118 177.839 79.1813 177.934 79.4744C178.029 79.7674 178.06 80.0774 178.026 80.3836L175.266 111.936C175.2 112.588 174.898 113.192 174.417 113.636C173.936 114.08 173.31 114.332 172.655 114.345Z" fill="white"/>
<path opacity="0.7" d="M172.791 112.849C173.039 112.844 173.276 112.749 173.458 112.581C173.641 112.412 173.754 112.183 173.778 111.936L176.539 80.3834C176.551 80.2674 176.539 80.1501 176.503 80.0391C176.467 79.9281 176.408 79.8261 176.329 79.7398C176.251 79.6535 176.155 79.5849 176.048 79.5385C175.941 79.4921 175.825 79.469 175.708 79.4708H139.054C138.805 79.475 138.566 79.5701 138.383 79.7383C138.2 79.9065 138.084 80.136 138.059 80.3834L135.306 111.936C135.293 112.052 135.305 112.17 135.341 112.281C135.377 112.391 135.437 112.494 135.515 112.58C135.594 112.666 135.69 112.735 135.797 112.781C135.904 112.828 136.02 112.851 136.136 112.849H172.791Z" fill="white"/>
<path d="M147.318 94.2979L135.349 111.623V111.937C135.336 112.053 135.348 112.17 135.384 112.281C135.42 112.392 135.48 112.494 135.558 112.581C135.637 112.667 135.733 112.735 135.84 112.782C135.947 112.828 136.063 112.851 136.179 112.85H156.945L147.318 94.2979Z" fill="#BB3194"/>
<path opacity="0.3" d="M147.318 94.2979L135.349 111.623V111.937C135.336 112.053 135.348 112.17 135.384 112.281C135.42 112.392 135.48 112.494 135.558 112.581C135.637 112.667 135.733 112.735 135.84 112.782C135.947 112.828 136.063 112.851 136.179 112.85H156.945L147.318 94.2979Z" fill="white"/>
<path d="M173.884 110.733L163.853 91.6797L148.996 112.85H172.792C173.04 112.845 173.277 112.75 173.46 112.581C173.642 112.413 173.755 112.184 173.779 111.937L173.884 110.733Z" fill="#BB3194"/>
<path d="M159.977 88.3127C159.886 89.2245 159.463 90.0709 158.788 90.6915C158.114 91.312 157.235 91.6634 156.319 91.6789C155.888 91.6868 155.46 91.6027 155.064 91.4323C154.668 91.2619 154.312 91.009 154.021 90.6905C153.731 90.3721 153.511 89.9953 153.377 89.5853C153.243 89.1753 153.198 88.7415 153.245 88.3127C153.335 87.3996 153.757 86.5513 154.431 85.9293C155.106 85.3072 155.985 84.9548 156.903 84.939C157.335 84.931 157.763 85.0153 158.16 85.1861C158.557 85.357 158.913 85.6106 159.204 85.9299C159.495 86.2492 159.714 86.6269 159.848 87.0378C159.981 87.4487 160.025 87.8834 159.977 88.3127Z" fill="#BB3194"/>
<path opacity="0.4" d="M159.977 88.3127C159.886 89.2245 159.463 90.0709 158.788 90.6915C158.114 91.312 157.235 91.6634 156.319 91.6789C155.888 91.6868 155.46 91.6027 155.064 91.4323C154.668 91.2619 154.312 91.009 154.021 90.6905C153.731 90.3721 153.511 89.9953 153.377 89.5853C153.243 89.1753 153.198 88.7415 153.245 88.3127C153.335 87.3996 153.757 86.5513 154.431 85.9293C155.106 85.3072 155.985 84.9548 156.903 84.939C157.335 84.931 157.763 85.0153 158.16 85.1861C158.557 85.357 158.913 85.6106 159.204 85.9299C159.495 86.2492 159.714 86.6269 159.848 87.0378C159.981 87.4487 160.025 87.8834 159.977 88.3127Z" fill="white"/>
<path d="M68.5029 241.701L64.7776 252.742L70.4852 255.076L74.9511 244.888L68.5029 241.701Z" fill="#B97964"/>
<path d="M72.5357 254.799C72.5064 254.781 72.4826 254.756 72.4668 254.725C72.4509 254.695 72.4437 254.661 72.4459 254.627C72.4501 254.594 72.4647 254.563 72.4876 254.539C72.5104 254.515 72.5404 254.498 72.5731 254.492C72.6928 254.492 75.3858 253.864 76.3882 254.492C76.5777 254.608 76.7146 254.793 76.7697 255.008C76.8116 255.128 76.8154 255.258 76.7806 255.38C76.7457 255.501 76.674 255.61 76.5752 255.689C76.1937 255.958 75.3035 255.846 74.4881 255.592C73.8158 255.384 73.1626 255.119 72.5357 254.799ZM73.1042 254.746C74.2787 255.27 75.9393 255.771 76.3732 255.442C76.4331 255.397 76.5079 255.322 76.448 255.091C76.4364 255.023 76.4086 254.959 76.3669 254.904C76.3252 254.849 76.2709 254.806 76.2086 254.776C76.1205 254.721 76.0247 254.678 75.9244 254.649C74.9867 254.502 74.0296 254.535 73.1042 254.746Z" fill="#BB3194"/>
<path d="M72.452 254.762C72.4375 254.737 72.4299 254.708 72.4299 254.679C72.4299 254.65 72.4375 254.622 72.452 254.597C72.452 254.522 73.2 252.802 74.2548 252.353C74.4053 252.29 74.5667 252.258 74.7298 252.258C74.8929 252.258 75.0543 252.29 75.2048 252.353C75.6162 252.525 75.6836 252.787 75.6462 252.966C75.5564 253.752 73.5366 254.687 72.6539 254.792C72.6435 254.797 72.632 254.8 72.6203 254.8C72.6086 254.8 72.5971 254.797 72.5866 254.792C72.5635 254.798 72.539 254.799 72.5154 254.794C72.4919 254.789 72.47 254.778 72.452 254.762ZM74.9879 252.645C74.7947 252.574 74.5826 252.574 74.3894 252.645C73.7235 253.058 73.2011 253.667 72.8933 254.388C73.8583 254.156 75.2347 253.363 75.332 252.891C75.332 252.847 75.332 252.727 75.0776 252.622H74.9879V252.645Z" fill="#BB3194"/>
<path d="M72.1471 253.669L64.9808 251.425C64.8496 251.385 64.7085 251.39 64.5808 251.441C64.453 251.491 64.3461 251.583 64.2776 251.702L61.1807 257.133C61.1138 257.247 61.0701 257.374 61.0523 257.505C61.0345 257.636 61.0429 257.769 61.077 257.897C61.1111 258.025 61.1702 258.145 61.2509 258.25C61.3316 258.355 61.4323 258.443 61.5472 258.509C61.6084 258.547 61.6736 258.577 61.7417 258.599C64.3375 259.347 66.6789 259.916 69.8955 260.918C73.6956 262.085 72.5885 262.242 77.0319 263.686C79.7099 264.554 81.1462 261.644 80.0241 261.142C75.0047 258.898 74.9523 257.133 73.5161 254.642C73.1912 254.164 72.7053 253.819 72.1471 253.669Z" fill="#263238"/>
<path opacity="0.2" d="M66.7151 246.997L72.6995 250.019L74.9511 244.888L68.5029 241.701L66.7151 246.997Z" fill="#263238"/>
<path d="M93.8032 139.577C93.8032 139.577 85.7616 145.719 87.4822 164.959C87.6467 166.739 88.2302 168.602 88.2302 170.636C88.2302 171.99 87.8562 172.94 87.4148 175.985C86.7715 180.413 85.5896 196.93 84.3403 199.077C83.0911 201.224 82.5824 200.843 79.104 206.767C75.3637 213.14 70.5014 224.316 66.7387 243.257C69.2511 245.03 72.1208 246.233 75.1468 246.78C75.1468 246.78 95.6958 214.375 100.064 202.309C103.977 191.514 108.637 157.067 108.637 157.067L109.011 142.106L93.8032 139.577Z" fill="#BB3194"/>
<path opacity="0.1" d="M102.6 164.958H96.7803C96.7803 164.958 94.8653 183.27 101.194 198.545C101.852 196.092 102.518 193.152 103.169 189.973L105.69 173.845C105.33 171.122 105.054 169.042 105.009 168.908C104.882 168.481 102.6 164.958 102.6 164.958Z" fill="black"/>
<path d="M101.641 246.145L101.678 257.881L108.299 257.44L109.316 246.145H101.641Z" fill="#B97964"/>
<path d="M109.065 257.238C109.032 257.234 109.001 257.219 108.977 257.197C108.953 257.174 108.936 257.144 108.93 257.111C108.922 257.078 108.926 257.044 108.939 257.013C108.953 256.982 108.976 256.956 109.005 256.939C109.11 256.879 111.451 255.443 112.611 255.697C112.827 255.745 113.016 255.874 113.142 256.056C113.219 256.157 113.264 256.279 113.271 256.406C113.277 256.533 113.245 256.659 113.179 256.767C112.604 257.198 111.892 257.408 111.174 257.358C110.469 257.382 109.763 257.342 109.065 257.238ZM109.588 257.006C110.868 257.118 112.581 257.044 112.902 256.587C112.947 256.527 112.985 256.43 112.857 256.228C112.823 256.169 112.775 256.119 112.718 256.082C112.661 256.044 112.596 256.02 112.528 256.011C112.427 255.996 112.323 255.996 112.222 256.011C111.287 256.168 110.393 256.506 109.588 257.006Z" fill="#BB3194"/>
<path d="M108.973 257.238C108.948 257.222 108.927 257.2 108.913 257.173C108.899 257.147 108.891 257.118 108.891 257.088C108.891 257.006 109.018 255.143 109.863 254.395C109.984 254.285 110.126 254.2 110.28 254.146C110.434 254.092 110.598 254.07 110.761 254.081C111.21 254.081 111.359 254.335 111.382 254.522C111.554 255.27 109.961 256.834 109.138 257.23C109.116 257.238 109.092 257.238 109.07 257.23C109.04 257.244 109.005 257.247 108.973 257.238ZM110.664 254.395C110.458 254.399 110.261 254.479 110.11 254.62C109.617 255.229 109.324 255.977 109.272 256.759C110.103 256.228 111.143 255.024 111.083 254.56C111.083 254.515 111.045 254.395 110.754 254.38H110.664V254.395Z" fill="#BB3194"/>
<path d="M108.33 256.303L100.849 256.572C100.713 256.579 100.582 256.631 100.479 256.72C100.376 256.81 100.306 256.932 100.281 257.066L99.1435 263.215C99.093 263.476 99.1482 263.746 99.2969 263.967C99.4456 264.187 99.6756 264.339 99.9364 264.39C100.009 264.397 100.081 264.397 100.153 264.39C102.854 264.24 105.248 264.008 108.614 263.896C112.586 263.754 111.606 264.262 116.266 264.165C119.087 264.098 119.483 260.881 118.286 260.769C112.803 260.275 112.175 258.645 109.998 256.767C109.518 256.411 108.924 256.246 108.33 256.303Z" fill="#263238"/>
<path opacity="0.2" d="M101.663 252.219L108.785 252.069L109.316 246.145H101.641L101.663 252.219Z" fill="#263238"/>
<path d="M98.2856 137.445C98.2856 137.445 90.259 148.075 96.206 168.863L102.938 199.227C102.938 199.227 96.5501 213.036 99.9463 249.466C103.238 249.928 106.583 249.853 109.85 249.242C109.85 249.242 117.331 210.769 118.461 197.776C119.71 183.458 118.962 140.303 118.962 140.303L98.2856 137.445Z" fill="#BB3194"/>
<path d="M103.133 102.989C103.133 102.989 101.891 97.6782 109.865 99.9972C117.839 102.316 117.166 106.857 117.166 106.857L103.133 102.989Z" fill="#263238"/>
<path opacity="0.4" d="M103.133 102.989C103.133 102.989 101.891 97.6782 109.865 99.9972C117.839 102.316 117.166 106.857 117.166 106.857L103.133 102.989Z" fill="black"/>
<path d="M122.912 116.275C122.912 118.138 122.163 120.831 121.415 123.846C121.071 125.274 120.757 126.763 120.548 128.274C119.418 136.503 119.052 145.173 119.052 145.173C114.649 146.133 110.097 146.176 105.677 145.3C101.258 144.423 97.0661 142.646 93.3635 140.078C93.3635 140.078 96.4979 137.423 95.8545 119.028C95.5628 110.74 92.5706 100.888 106.267 102.436C117.832 103.746 121.722 107.336 122.657 112.954C122.657 113.021 122.657 113.096 122.657 113.171L122.725 113.695C122.838 114.55 122.9 115.412 122.912 116.275Z" fill="#263238"/>
<path opacity="0.4" d="M122.91 116.275C122.91 118.138 122.162 120.831 121.414 123.846C118.287 120.106 115.153 113.036 115.153 113.036L117.733 109.236L122.282 111.353C122.439 111.879 122.564 112.413 122.656 112.954C122.656 113.021 122.656 113.096 122.656 113.171L122.723 113.695C122.836 114.551 122.898 115.412 122.91 116.275Z" fill="black"/>
<path d="M127.674 113.029C127.674 113.029 132.163 117.457 133.935 119.237L149.45 114.585C149.552 113.782 149.891 113.029 150.424 112.421C150.957 111.813 151.66 111.379 152.442 111.173L153.534 110.889L155.868 110.246C156.303 110.128 156.761 110.126 157.197 110.241C157.632 110.355 158.031 110.581 158.352 110.897C158.728 111.267 158.98 111.745 159.074 112.265C159.168 112.785 159.098 113.32 158.875 113.799C158.414 114.793 157.702 115.651 156.811 116.29C155.92 116.928 154.879 117.325 153.789 117.442L151.589 117.674C151.589 117.674 137.743 125.237 133.285 124.818C128.826 124.399 122.969 119.035 122.969 119.035L127.674 113.029Z" fill="#B97964"/>
<path d="M116.528 104.972C120.358 105.533 124.27 108.578 130.344 113.949C128.905 116.953 126.686 119.516 123.919 121.37C123.919 121.37 120.38 119.821 116.161 114.458C111.06 107.965 114.209 104.628 116.528 104.972Z" fill="#263238"/>
</svg>
