<svg width="12" height="12" viewBox="0 0 12 12" fill="none" xmlns="http://www.w3.org/2000/svg">
<mask id="mask0_2323_591" style="mask-type:alpha" maskUnits="userSpaceOnUse" x="0" y="0" width="12" height="12">
<rect width="12" height="12" fill="#D9D9D9"/>
</mask>
<g mask="url(#mask0_2323_591)">
<path d="M3.57617 10.5495C3.45117 10.4245 3.38867 10.2765 3.38867 10.1055C3.38867 9.93484 3.45117 9.78701 3.57617 9.66201L7.23867 5.99951L3.56367 2.32451C3.44701 2.20785 3.38867 2.06201 3.38867 1.88701C3.38867 1.71201 3.45117 1.56201 3.57617 1.43701C3.70117 1.31201 3.84917 1.24951 4.02017 1.24951C4.19084 1.24951 4.33867 1.31201 4.46367 1.43701L8.66367 5.64951C8.71367 5.69951 8.74917 5.75368 8.77017 5.81201C8.79084 5.87035 8.80117 5.93285 8.80117 5.99951C8.80117 6.06618 8.79084 6.12868 8.77017 6.18701C8.74917 6.24535 8.71367 6.29951 8.66367 6.34951L4.45117 10.562C4.3345 10.6787 4.19084 10.737 4.02017 10.737C3.84917 10.737 3.70117 10.6745 3.57617 10.5495Z" fill="#6A7682"/>
</g>
</svg>
