<svg width="118" height="118" viewBox="0 0 118 118" fill="none" xmlns="http://www.w3.org/2000/svg">
<path fill-rule="evenodd" clip-rule="evenodd" d="M14.75 24.5833C14.75 19.1525 19.1525 14.75 24.5833 14.75H34.4167C39.8475 14.75 44.25 19.1525 44.25 24.5833V34.4167C44.25 39.8475 39.8475 44.25 34.4167 44.25H24.5833C19.1525 44.25 14.75 39.8475 14.75 34.4167V24.5833ZM34.4167 24.5833H24.5833V34.4167H34.4167V24.5833ZM59 14.75C61.7154 14.75 63.9167 16.9513 63.9167 19.6667V24.5833C63.9167 27.2987 61.7154 29.5 59 29.5C56.2846 29.5 54.0833 27.2987 54.0833 24.5833V19.6667C54.0833 16.9513 56.2846 14.75 59 14.75ZM73.75 24.5833C73.75 19.1525 78.1525 14.75 83.5833 14.75H93.4167C98.8475 14.75 103.25 19.1525 103.25 24.5833V34.4167C103.25 39.8475 98.8475 44.25 93.4167 44.25H83.5833C78.1525 44.25 73.75 39.8475 73.75 34.4167V24.5833ZM93.4167 24.5833H83.5833V34.4167H93.4167V24.5833ZM59 39.3333C61.7154 39.3333 63.9167 41.5346 63.9167 44.25V54.0833H78.7158C81.4312 54.0833 83.6325 56.2846 83.6325 59C83.6325 61.7154 81.4312 63.9167 78.7158 63.9167H59C56.2846 63.9167 54.0833 61.7154 54.0833 59V44.25C54.0833 41.5346 56.2846 39.3333 59 39.3333ZM14.75 59C14.75 56.2846 16.9513 54.0833 19.6667 54.0833H39.3333C42.0487 54.0833 44.25 56.2846 44.25 59C44.25 61.7154 42.0487 63.9167 39.3333 63.9167H19.6667C16.9513 63.9167 14.75 61.7154 14.75 59ZM93.4167 59C93.4167 56.2846 95.6179 54.0833 98.3333 54.0833H98.3825C101.098 54.0833 103.299 56.2846 103.299 59C103.299 61.7154 101.098 63.9167 98.3825 63.9167H98.3333C95.6179 63.9167 93.4167 61.7154 93.4167 59ZM14.75 83.5833C14.75 78.1525 19.1525 73.75 24.5833 73.75H34.4167C39.8475 73.75 44.25 78.1525 44.25 83.5833V93.4167C44.25 98.8475 39.8475 103.25 34.4167 103.25H24.5833C19.1525 103.25 14.75 98.8475 14.75 93.4167V83.5833ZM34.4167 83.5833H24.5833V93.4167H34.4167V83.5833ZM54.0833 78.6667C54.0833 75.9513 56.2846 73.75 59 73.75H68.8333C71.5487 73.75 73.75 75.9513 73.75 78.6667C73.75 81.3821 71.5487 83.5833 68.8333 83.5833H63.9167V98.3333C63.9167 101.049 61.7154 103.25 59 103.25C56.2846 103.25 54.0833 101.049 54.0833 98.3333V78.6667ZM83.5833 78.6667C83.5833 75.9513 85.7846 73.75 88.5 73.75H98.3333C101.049 73.75 103.25 75.9513 103.25 78.6667C103.25 81.3821 101.049 83.5833 98.3333 83.5833H88.5C85.7846 83.5833 83.5833 81.3821 83.5833 78.6667ZM73.75 98.3333C73.75 95.6179 75.9513 93.4167 78.6667 93.4167H98.3333C101.049 93.4167 103.25 95.6179 103.25 98.3333C103.25 101.049 101.049 103.25 98.3333 103.25H78.6667C75.9513 103.25 73.75 101.049 73.75 98.3333Z" fill="#E12B3E"/>
</svg>
