<svg width="12" height="12" viewBox="0 0 12 12" fill="none" xmlns="http://www.w3.org/2000/svg">
<path d="M8.88789 4.8375H7.83789H7.46289V4.4625V3.3V2.925H7.83789H8.62539C8.83164 2.925 9.00039 2.775 9.00039 2.55V0.5625C9.00039 0.35625 8.85039 0.1875 8.62539 0.1875H7.25664C5.77539 0.1875 4.74414 1.2375 4.74414 2.79375V4.425V4.8H4.36914H3.09414C2.83164 4.8 2.58789 5.00625 2.58789 5.30625V6.65625C2.58789 6.91875 2.79414 7.1625 3.09414 7.1625H4.33164H4.70664V7.5375V11.3062C4.70664 11.5687 4.91289 11.8125 5.21289 11.8125H6.97539C7.08789 11.8125 7.18164 11.7562 7.25664 11.6812C7.33164 11.6062 7.38789 11.475 7.38789 11.3625V7.55625V7.18125H7.78164H8.62539C8.86914 7.18125 9.05664 7.03125 9.09414 6.80625V6.7875V6.76875L9.35664 5.475C9.37539 5.34375 9.35664 5.19375 9.24414 5.04375C9.20664 4.95 9.03789 4.85625 8.88789 4.8375Z" fill="#E12B3E"/>
</svg>
