<svg width="13" height="13" viewBox="0 0 13 13" fill="none" xmlns="http://www.w3.org/2000/svg">
<path d="M3.71355 2.56138C3.71342 2.8285 3.60718 3.08462 3.4182 3.27341C3.22923 3.46219 2.973 3.56818 2.70588 3.56804C2.43876 3.56791 2.18264 3.46167 1.99385 3.27269C1.80507 3.08372 1.69909 2.82749 1.69922 2.56037C1.69935 2.29326 1.80559 2.03713 1.99457 1.84835C2.18354 1.65956 2.43977 1.55358 2.70689 1.55371C2.97401 1.55384 3.23013 1.66008 3.41892 1.84906C3.6077 2.03803 3.71368 2.29426 3.71355 2.56138ZM3.74377 4.31385H1.72943V10.6187H3.74377V4.31385ZM6.92641 4.31385H4.92215V10.6187H6.90627V7.31017C6.90627 5.46705 9.30836 5.29584 9.30836 7.31017V10.6187H11.2975V6.62529C11.2975 3.51819 7.74222 3.63401 6.90627 5.15987L6.92641 4.31385Z" fill="#E12B3E"/>
</svg>
