<svg width="12" height="12" viewBox="0 0 12 12" fill="none" xmlns="http://www.w3.org/2000/svg">
<path d="M10.9765 3.22453C11.0433 3.14661 10.9562 3.0448 10.8573 3.08127C10.6366 3.16267 10.4349 3.21637 10.1366 3.24951C10.5035 3.04521 10.6741 2.75321 10.8129 2.39556C10.8464 2.30929 10.7454 2.23101 10.6585 2.27222C10.3053 2.43967 9.9243 2.5639 9.5236 2.6373C9.12755 2.24478 8.563 1.99951 7.9385 1.99951C6.7393 1.99951 5.76685 2.9039 5.76685 4.0191C5.76685 4.17742 5.78625 4.33163 5.82285 4.47929C4.09902 4.39897 2.5619 3.66156 1.49399 2.53082C1.42079 2.45332 1.28798 2.46361 1.2424 2.55813C1.12082 2.81031 1.05304 3.09006 1.05304 3.38459C1.05304 4.08513 1.4363 4.70323 2.01891 5.06541C1.75769 5.05756 1.50787 5.00666 1.27765 4.92028C1.16556 4.87823 1.03707 4.95213 1.05213 5.06516C1.16774 5.93311 1.87045 6.64916 2.77749 6.81836C2.59534 6.86471 2.40349 6.88931 2.20503 6.88931C2.15691 6.88931 2.1092 6.88781 2.06193 6.88491C1.94165 6.87746 1.84389 6.98506 1.89546 7.08801C2.23571 7.76711 2.97042 8.24121 3.82539 8.25596C3.08225 8.79776 2.14593 9.12056 1.12846 9.12056C1.003 9.12056 0.949184 9.28186 1.06048 9.33656C1.9201 9.75911 2.89903 9.99951 3.93918 9.99951C7.93365 9.99951 10.1176 6.92216 10.1176 4.25329C10.1176 4.16593 10.1154 4.07857 10.1115 3.99203C10.4357 3.77421 10.7271 3.51521 10.9765 3.22453Z" fill="#E12B3E"/>
</svg>
