<svg width="13" height="13" viewBox="0 0 13 13" fill="none" xmlns="http://www.w3.org/2000/svg">
<g clip-path="url(#clip0_1_4842)">
<path d="M11.6986 3.27193C11.5665 2.76205 11.1699 2.36548 10.66 2.23329C9.75356 1.98779 6.08999 1.98779 6.08999 1.98779C6.08999 1.98779 2.42643 1.98779 1.51998 2.23329C1.0101 2.36548 0.613527 2.76205 0.481337 3.27193C0.23584 4.19726 0.23584 6.0857 0.23584 6.0857C0.23584 6.0857 0.23584 7.99302 0.481337 8.89947C0.613527 9.40935 1.0101 9.80592 1.51998 9.93811C2.42643 10.1836 6.08999 10.1836 6.08999 10.1836C6.08999 10.1836 9.75356 10.1836 10.66 9.93811C11.1699 9.80592 11.5665 9.40935 11.6986 8.89947C11.9441 7.99302 11.9441 6.0857 11.9441 6.0857C11.9441 6.0857 11.9441 4.19726 11.6986 3.27193ZM4.91916 7.84195V4.32945L7.95955 6.0857L4.91916 7.84195Z" fill="#E12B3E"/>
</g>
<defs>
<clipPath id="clip0_1_4842">
<rect width="12.086" height="12.086" fill="white" transform="translate(0.046875 0.0429688)"/>
</clipPath>
</defs>
</svg>
