<svg width="65" height="64" viewBox="0 0 65 64" fill="none" xmlns="http://www.w3.org/2000/svg">
<path d="M5.29004 32.1444C5.29004 17.366 17.32 5.38574 32.1598 5.38574C46.9996 5.38574 59.0296 17.366 59.0296 32.1444C59.0296 46.9228 46.9996 58.903 32.1598 58.903H9.27075C7.07226 58.903 5.29004 57.1281 5.29004 54.9387V32.1444Z" fill="#F85318"/>
<path d="M5.29004 32.1444C5.29004 17.366 17.32 5.38574 32.1598 5.38574C46.9996 5.38574 59.0296 17.366 59.0296 32.1444C59.0296 46.9228 46.9996 58.903 32.1598 58.903H9.27075C7.07226 58.903 5.29004 57.1281 5.29004 54.9387V32.1444Z" fill="url(#paint0_linear_1_4122)" fill-opacity="0.2"/>
<path d="M7.55157 58.5152C30.8165 55.5348 48.7935 35.7365 48.7935 11.7568C48.7935 11.5458 48.7921 11.3351 48.7893 11.1247C44.2149 7.53058 38.4389 5.38574 32.1598 5.38574C17.32 5.38574 5.29004 17.366 5.29004 32.1444V54.9387C5.29004 56.515 6.21378 57.8763 7.55157 58.5152Z" fill="#F77B09"/>
<path d="M7.55157 58.5152C30.8165 55.5348 48.7935 35.7365 48.7935 11.7568C48.7935 11.5458 48.7921 11.3351 48.7893 11.1247C44.2149 7.53058 38.4389 5.38574 32.1598 5.38574C17.32 5.38574 5.29004 17.366 5.29004 32.1444V54.9387C5.29004 56.515 6.21378 57.8763 7.55157 58.5152Z" fill="url(#paint1_linear_1_4122)" fill-opacity="0.2"/>
<defs>
<linearGradient id="paint0_linear_1_4122" x1="5.29004" y1="5.38574" x2="68.4821" y2="21.2493" gradientUnits="userSpaceOnUse">
<stop stop-color="white"/>
<stop offset="1" stop-color="white" stop-opacity="0"/>
</linearGradient>
<linearGradient id="paint1_linear_1_4122" x1="5.29004" y1="5.38574" x2="57.4823" y2="16.0698" gradientUnits="userSpaceOnUse">
<stop stop-color="white"/>
<stop offset="1" stop-color="white" stop-opacity="0"/>
</linearGradient>
</defs>
</svg>
