<svg width="108" height="107" viewBox="0 0 108 107" fill="none" xmlns="http://www.w3.org/2000/svg">
<path d="M92.8412 51.6454C92.8412 57.5244 88.0554 62.2903 82.152 62.2903C76.2486 62.2903 71.4629 57.5244 71.4629 51.6454C71.4629 45.7664 76.2486 41.0005 82.152 41.0005C88.0554 41.0005 92.8412 45.7664 92.8412 51.6454Z" fill="#FBB130"/>
<path d="M92.8412 51.6454C92.8412 57.5244 88.0554 62.2903 82.152 62.2903C76.2486 62.2903 71.4629 57.5244 71.4629 51.6454C71.4629 45.7664 76.2486 41.0005 82.152 41.0005C88.0554 41.0005 92.8412 45.7664 92.8412 51.6454Z" fill="url(#paint0_linear_1_3918)" fill-opacity="0.2"/>
<path d="M60.7771 34.6141C60.7771 46.372 51.2056 55.9039 39.3988 55.9039C27.592 55.9039 18.0205 46.372 18.0205 34.6141C18.0205 22.8561 27.592 13.3242 39.3988 13.3242C51.2056 13.3242 60.7771 22.8561 60.7771 34.6141Z" fill="#93407D"/>
<path d="M60.7771 34.6141C60.7771 46.372 51.2056 55.9039 39.3988 55.9039C27.592 55.9039 18.0205 46.372 18.0205 34.6141C18.0205 22.8561 27.592 13.3242 39.3988 13.3242C51.2056 13.3242 60.7771 22.8561 60.7771 34.6141Z" fill="url(#paint1_linear_1_3918)" fill-opacity="0.2"/>
<path d="M35.1201 66.5483H90.7037C95.4264 66.5483 99.255 70.3611 99.255 75.0643V85.7092C99.255 90.4123 95.4264 94.2251 90.7037 94.2251H35.1201V66.5483Z" fill="#FBB130"/>
<path d="M35.1201 66.5483H90.7037C95.4264 66.5483 99.255 70.3611 99.255 75.0643V85.7092C99.255 90.4123 95.4264 94.2251 90.7037 94.2251H35.1201V66.5483Z" fill="url(#paint2_linear_1_3918)" fill-opacity="0.2"/>
<path d="M9.46777 66.5483H43.673C59.022 66.5483 71.4648 78.9397 71.4648 94.2251H37.2595C21.9106 94.2251 9.46777 81.8338 9.46777 66.5483Z" fill="#93407D"/>
<path d="M9.46777 66.5483H43.673C59.022 66.5483 71.4648 78.9397 71.4648 94.2251H37.2595C21.9106 94.2251 9.46777 81.8338 9.46777 66.5483Z" fill="url(#paint3_linear_1_3918)" fill-opacity="0.2"/>
<defs>
<linearGradient id="paint0_linear_1_3918" x1="71.4629" y1="41.0005" x2="96.6015" y2="47.3113" gradientUnits="userSpaceOnUse">
<stop stop-color="white"/>
<stop offset="1" stop-color="white" stop-opacity="0"/>
</linearGradient>
<linearGradient id="paint1_linear_1_3918" x1="18.0205" y1="13.3242" x2="68.2977" y2="25.9458" gradientUnits="userSpaceOnUse">
<stop stop-color="white"/>
<stop offset="1" stop-color="white" stop-opacity="0"/>
</linearGradient>
<linearGradient id="paint2_linear_1_3918" x1="35.1201" y1="66.5483" x2="95.144" y2="101.321" gradientUnits="userSpaceOnUse">
<stop stop-color="white"/>
<stop offset="1" stop-color="white" stop-opacity="0"/>
</linearGradient>
<linearGradient id="paint3_linear_1_3918" x1="9.46777" y1="66.5483" x2="68.4626" y2="99.586" gradientUnits="userSpaceOnUse">
<stop stop-color="white"/>
<stop offset="1" stop-color="white" stop-opacity="0"/>
</linearGradient>
</defs>
</svg>
