<svg width="57" height="65" viewBox="0 0 57 65" fill="none" xmlns="http://www.w3.org/2000/svg">
<path d="M32.7353 4.34404C32.7353 2.96454 33.4496 1.6834 34.6231 0.958154C35.7966 0.232908 37.2619 0.166979 38.4957 0.783909L54.4171 8.7446C55.7656 9.41884 56.6174 10.7971 56.6174 12.3047V35.2472C56.6174 36.6267 55.9031 37.9078 54.7296 38.633C53.5562 39.3583 52.0908 39.4242 50.857 38.8073L34.9356 30.8466C33.5871 30.1724 32.7353 28.7941 32.7353 27.2865V4.34404Z" fill="#E12B3E"/>
<path d="M49.4971 47.0277C50.8456 47.7019 51.6974 49.0802 51.6974 50.5878C51.6974 52.0954 50.8456 53.4737 49.4971 54.1479L30.5351 63.629C29.4145 64.1893 28.0955 64.1893 26.9749 63.629L8.01283 54.1479C6.66436 53.4737 5.81255 52.0954 5.81255 50.5878C5.81255 49.0802 6.66436 47.7019 8.01283 47.0277L26.9749 37.5466C28.0955 36.9863 29.4145 36.9863 30.5351 37.5466L49.4971 47.0277Z" fill="#E12B3E"/>
<path d="M6.65299 38.8073C5.41913 39.4242 3.9538 39.3583 2.78033 38.633C1.60686 37.9078 0.892578 36.6267 0.892578 35.2472V12.3047C0.892578 10.7971 1.74438 9.41884 3.09286 8.7446L19.0142 0.783909C20.2481 0.166979 21.7134 0.232908 22.8869 0.958154C24.0604 1.6834 24.7746 2.96454 24.7746 4.34404V27.2865C24.7746 28.7941 23.9228 30.1724 22.5744 30.8466L6.65299 38.8073Z" fill="#E12B3E"/>
</svg>
