<svg width="517" height="280" viewBox="0 0 517 280" fill="none" xmlns="http://www.w3.org/2000/svg">
<path d="M258.5 138V72" stroke="#DAE0E3"/>
<path d="M153.5 209H363.5" stroke="#DAE0E3"/>
<path d="M38.1464 72C38.1464 72 31.0709 98.7175 46.2529 98.7175C61.4349 98.7175 258.499 99 258.499 99C258.499 99 451.499 98.7175 468.216 98.7175C484.933 98.7175 483.019 78.2142 482.02 72" stroke="#DAE0E3"/>
<path d="M146.018 72C145.719 78.2267 140.252 99 158.178 99C176.104 99 259.002 99 259.002 99C259.002 99 343.18 99 361.091 99C379.002 99 372.865 81 374.007 72" stroke="#DAE0E3"/>
<rect x="1" y="0.5" width="71" height="71" rx="11.5" fill="#F6F8F9"/>
<rect x="1" y="0.5" width="71" height="71" rx="11.5" stroke="#DFE3E6"/>
<path fill-rule="evenodd" clip-rule="evenodd" d="M24.5 26.6667C24.5 25.1939 25.6939 24 27.1667 24H29.8333C31.3061 24 32.5 25.1939 32.5 26.6667V29.3333C32.5 30.8061 31.3061 32 29.8333 32H27.1667C25.6939 32 24.5 30.8061 24.5 29.3333V26.6667ZM29.8333 26.6667H27.1667V29.3333H29.8333V26.6667ZM36.5 24C37.2364 24 37.8333 24.597 37.8333 25.3333V26.6667C37.8333 27.403 37.2364 28 36.5 28C35.7636 28 35.1667 27.403 35.1667 26.6667V25.3333C35.1667 24.597 35.7636 24 36.5 24ZM40.5 26.6667C40.5 25.1939 41.6939 24 43.1667 24H45.8333C47.3061 24 48.5 25.1939 48.5 26.6667V29.3333C48.5 30.8061 47.3061 32 45.8333 32H43.1667C41.6939 32 40.5 30.8061 40.5 29.3333V26.6667ZM45.8333 26.6667H43.1667V29.3333H45.8333V26.6667ZM36.5 30.6667C37.2364 30.6667 37.8333 31.2636 37.8333 32V34.6667H41.8467C42.583 34.6667 43.18 35.2636 43.18 36C43.18 36.7364 42.583 37.3333 41.8467 37.3333H36.5C35.7636 37.3333 35.1667 36.7364 35.1667 36V32C35.1667 31.2636 35.7636 30.6667 36.5 30.6667ZM24.5 36C24.5 35.2636 25.097 34.6667 25.8333 34.6667H31.1667C31.903 34.6667 32.5 35.2636 32.5 36C32.5 36.7364 31.903 37.3333 31.1667 37.3333H25.8333C25.097 37.3333 24.5 36.7364 24.5 36ZM45.8333 36C45.8333 35.2636 46.4303 34.6667 47.1667 34.6667H47.18C47.9164 34.6667 48.5133 35.2636 48.5133 36C48.5133 36.7364 47.9164 37.3333 47.18 37.3333H47.1667C46.4303 37.3333 45.8333 36.7364 45.8333 36ZM24.5 42.6667C24.5 41.1939 25.6939 40 27.1667 40H29.8333C31.3061 40 32.5 41.1939 32.5 42.6667V45.3333C32.5 46.8061 31.3061 48 29.8333 48H27.1667C25.6939 48 24.5 46.8061 24.5 45.3333V42.6667ZM29.8333 42.6667H27.1667V45.3333H29.8333V42.6667ZM35.1667 41.3333C35.1667 40.597 35.7636 40 36.5 40H39.1667C39.903 40 40.5 40.597 40.5 41.3333C40.5 42.0697 39.903 42.6667 39.1667 42.6667H37.8333V46.6667C37.8333 47.403 37.2364 48 36.5 48C35.7636 48 35.1667 47.403 35.1667 46.6667V41.3333ZM43.1667 41.3333C43.1667 40.597 43.7636 40 44.5 40H47.1667C47.903 40 48.5 40.597 48.5 41.3333C48.5 42.0697 47.903 42.6667 47.1667 42.6667H44.5C43.7636 42.6667 43.1667 42.0697 43.1667 41.3333ZM40.5 46.6667C40.5 45.9303 41.097 45.3333 41.8333 45.3333H47.1667C47.903 45.3333 48.5 45.9303 48.5 46.6667C48.5 47.403 47.903 48 47.1667 48H41.8333C41.097 48 40.5 47.403 40.5 46.6667Z" fill="#E12B3E"/>
<rect x="109" y="0.5" width="71" height="71" rx="11.5" fill="#F6F8F9"/>
<rect x="109" y="0.5" width="71" height="71" rx="11.5" stroke="#DFE3E6"/>
<path fill-rule="evenodd" clip-rule="evenodd" d="M132.5 26.6667C132.5 25.1939 133.694 24 135.167 24H137.833C139.306 24 140.5 25.1939 140.5 26.6667V29.3333C140.5 30.8061 139.306 32 137.833 32H135.167C133.694 32 132.5 30.8061 132.5 29.3333V26.6667ZM137.833 26.6667H135.167V29.3333H137.833V26.6667ZM144.5 24C145.236 24 145.833 24.597 145.833 25.3333V26.6667C145.833 27.403 145.236 28 144.5 28C143.764 28 143.167 27.403 143.167 26.6667V25.3333C143.167 24.597 143.764 24 144.5 24ZM148.5 26.6667C148.5 25.1939 149.694 24 151.167 24H153.833C155.306 24 156.5 25.1939 156.5 26.6667V29.3333C156.5 30.8061 155.306 32 153.833 32H151.167C149.694 32 148.5 30.8061 148.5 29.3333V26.6667ZM153.833 26.6667H151.167V29.3333H153.833V26.6667ZM144.5 30.6667C145.236 30.6667 145.833 31.2636 145.833 32V34.6667H149.847C150.583 34.6667 151.18 35.2636 151.18 36C151.18 36.7364 150.583 37.3333 149.847 37.3333H144.5C143.764 37.3333 143.167 36.7364 143.167 36V32C143.167 31.2636 143.764 30.6667 144.5 30.6667ZM132.5 36C132.5 35.2636 133.097 34.6667 133.833 34.6667H139.167C139.903 34.6667 140.5 35.2636 140.5 36C140.5 36.7364 139.903 37.3333 139.167 37.3333H133.833C133.097 37.3333 132.5 36.7364 132.5 36ZM153.833 36C153.833 35.2636 154.43 34.6667 155.167 34.6667H155.18C155.916 34.6667 156.513 35.2636 156.513 36C156.513 36.7364 155.916 37.3333 155.18 37.3333H155.167C154.43 37.3333 153.833 36.7364 153.833 36ZM132.5 42.6667C132.5 41.1939 133.694 40 135.167 40H137.833C139.306 40 140.5 41.1939 140.5 42.6667V45.3333C140.5 46.8061 139.306 48 137.833 48H135.167C133.694 48 132.5 46.8061 132.5 45.3333V42.6667ZM137.833 42.6667H135.167V45.3333H137.833V42.6667ZM143.167 41.3333C143.167 40.597 143.764 40 144.5 40H147.167C147.903 40 148.5 40.597 148.5 41.3333C148.5 42.0697 147.903 42.6667 147.167 42.6667H145.833V46.6667C145.833 47.403 145.236 48 144.5 48C143.764 48 143.167 47.403 143.167 46.6667V41.3333ZM151.167 41.3333C151.167 40.597 151.764 40 152.5 40H155.167C155.903 40 156.5 40.597 156.5 41.3333C156.5 42.0697 155.903 42.6667 155.167 42.6667H152.5C151.764 42.6667 151.167 42.0697 151.167 41.3333ZM148.5 46.6667C148.5 45.9303 149.097 45.3333 149.833 45.3333H155.167C155.903 45.3333 156.5 45.9303 156.5 46.6667C156.5 47.403 155.903 48 155.167 48H149.833C149.097 48 148.5 47.403 148.5 46.6667Z" fill="#E12B3E"/>
<rect x="223" y="0.5" width="71" height="71" rx="11.5" fill="#F6F8F9"/>
<rect x="223" y="0.5" width="71" height="71" rx="11.5" stroke="#DFE3E6"/>
<path fill-rule="evenodd" clip-rule="evenodd" d="M246.5 26.6667C246.5 25.1939 247.694 24 249.167 24H251.833C253.306 24 254.5 25.1939 254.5 26.6667V29.3333C254.5 30.8061 253.306 32 251.833 32H249.167C247.694 32 246.5 30.8061 246.5 29.3333V26.6667ZM251.833 26.6667H249.167V29.3333H251.833V26.6667ZM258.5 24C259.236 24 259.833 24.597 259.833 25.3333V26.6667C259.833 27.403 259.236 28 258.5 28C257.764 28 257.167 27.403 257.167 26.6667V25.3333C257.167 24.597 257.764 24 258.5 24ZM262.5 26.6667C262.5 25.1939 263.694 24 265.167 24H267.833C269.306 24 270.5 25.1939 270.5 26.6667V29.3333C270.5 30.8061 269.306 32 267.833 32H265.167C263.694 32 262.5 30.8061 262.5 29.3333V26.6667ZM267.833 26.6667H265.167V29.3333H267.833V26.6667ZM258.5 30.6667C259.236 30.6667 259.833 31.2636 259.833 32V34.6667H263.847C264.583 34.6667 265.18 35.2636 265.18 36C265.18 36.7364 264.583 37.3333 263.847 37.3333H258.5C257.764 37.3333 257.167 36.7364 257.167 36V32C257.167 31.2636 257.764 30.6667 258.5 30.6667ZM246.5 36C246.5 35.2636 247.097 34.6667 247.833 34.6667H253.167C253.903 34.6667 254.5 35.2636 254.5 36C254.5 36.7364 253.903 37.3333 253.167 37.3333H247.833C247.097 37.3333 246.5 36.7364 246.5 36ZM267.833 36C267.833 35.2636 268.43 34.6667 269.167 34.6667H269.18C269.916 34.6667 270.513 35.2636 270.513 36C270.513 36.7364 269.916 37.3333 269.18 37.3333H269.167C268.43 37.3333 267.833 36.7364 267.833 36ZM246.5 42.6667C246.5 41.1939 247.694 40 249.167 40H251.833C253.306 40 254.5 41.1939 254.5 42.6667V45.3333C254.5 46.8061 253.306 48 251.833 48H249.167C247.694 48 246.5 46.8061 246.5 45.3333V42.6667ZM251.833 42.6667H249.167V45.3333H251.833V42.6667ZM257.167 41.3333C257.167 40.597 257.764 40 258.5 40H261.167C261.903 40 262.5 40.597 262.5 41.3333C262.5 42.0697 261.903 42.6667 261.167 42.6667H259.833V46.6667C259.833 47.403 259.236 48 258.5 48C257.764 48 257.167 47.403 257.167 46.6667V41.3333ZM265.167 41.3333C265.167 40.597 265.764 40 266.5 40H269.167C269.903 40 270.5 40.597 270.5 41.3333C270.5 42.0697 269.903 42.6667 269.167 42.6667H266.5C265.764 42.6667 265.167 42.0697 265.167 41.3333ZM262.5 46.6667C262.5 45.9303 263.097 45.3333 263.833 45.3333H269.167C269.903 45.3333 270.5 45.9303 270.5 46.6667C270.5 47.403 269.903 48 269.167 48H263.833C263.097 48 262.5 47.403 262.5 46.6667Z" fill="#E12B3E"/>
<rect x="337" y="0.5" width="71" height="71" rx="11.5" fill="#F6F8F9"/>
<rect x="337" y="0.5" width="71" height="71" rx="11.5" stroke="#DFE3E6"/>
<path fill-rule="evenodd" clip-rule="evenodd" d="M360.5 26.6667C360.5 25.1939 361.694 24 363.167 24H365.833C367.306 24 368.5 25.1939 368.5 26.6667V29.3333C368.5 30.8061 367.306 32 365.833 32H363.167C361.694 32 360.5 30.8061 360.5 29.3333V26.6667ZM365.833 26.6667H363.167V29.3333H365.833V26.6667ZM372.5 24C373.236 24 373.833 24.597 373.833 25.3333V26.6667C373.833 27.403 373.236 28 372.5 28C371.764 28 371.167 27.403 371.167 26.6667V25.3333C371.167 24.597 371.764 24 372.5 24ZM376.5 26.6667C376.5 25.1939 377.694 24 379.167 24H381.833C383.306 24 384.5 25.1939 384.5 26.6667V29.3333C384.5 30.8061 383.306 32 381.833 32H379.167C377.694 32 376.5 30.8061 376.5 29.3333V26.6667ZM381.833 26.6667H379.167V29.3333H381.833V26.6667ZM372.5 30.6667C373.236 30.6667 373.833 31.2636 373.833 32V34.6667H377.847C378.583 34.6667 379.18 35.2636 379.18 36C379.18 36.7364 378.583 37.3333 377.847 37.3333H372.5C371.764 37.3333 371.167 36.7364 371.167 36V32C371.167 31.2636 371.764 30.6667 372.5 30.6667ZM360.5 36C360.5 35.2636 361.097 34.6667 361.833 34.6667H367.167C367.903 34.6667 368.5 35.2636 368.5 36C368.5 36.7364 367.903 37.3333 367.167 37.3333H361.833C361.097 37.3333 360.5 36.7364 360.5 36ZM381.833 36C381.833 35.2636 382.43 34.6667 383.167 34.6667H383.18C383.916 34.6667 384.513 35.2636 384.513 36C384.513 36.7364 383.916 37.3333 383.18 37.3333H383.167C382.43 37.3333 381.833 36.7364 381.833 36ZM360.5 42.6667C360.5 41.1939 361.694 40 363.167 40H365.833C367.306 40 368.5 41.1939 368.5 42.6667V45.3333C368.5 46.8061 367.306 48 365.833 48H363.167C361.694 48 360.5 46.8061 360.5 45.3333V42.6667ZM365.833 42.6667H363.167V45.3333H365.833V42.6667ZM371.167 41.3333C371.167 40.597 371.764 40 372.5 40H375.167C375.903 40 376.5 40.597 376.5 41.3333C376.5 42.0697 375.903 42.6667 375.167 42.6667H373.833V46.6667C373.833 47.403 373.236 48 372.5 48C371.764 48 371.167 47.403 371.167 46.6667V41.3333ZM379.167 41.3333C379.167 40.597 379.764 40 380.5 40H383.167C383.903 40 384.5 40.597 384.5 41.3333C384.5 42.0697 383.903 42.6667 383.167 42.6667H380.5C379.764 42.6667 379.167 42.0697 379.167 41.3333ZM376.5 46.6667C376.5 45.9303 377.097 45.3333 377.833 45.3333H383.167C383.903 45.3333 384.5 45.9303 384.5 46.6667C384.5 47.403 383.903 48 383.167 48H377.833C377.097 48 376.5 47.403 376.5 46.6667Z" fill="#E12B3E"/>
<rect x="445" y="0.5" width="71" height="71" rx="11.5" fill="#F6F8F9"/>
<rect x="445" y="0.5" width="71" height="71" rx="11.5" stroke="#DFE3E6"/>
<path fill-rule="evenodd" clip-rule="evenodd" d="M468.5 26.6667C468.5 25.1939 469.694 24 471.167 24H473.833C475.306 24 476.5 25.1939 476.5 26.6667V29.3333C476.5 30.8061 475.306 32 473.833 32H471.167C469.694 32 468.5 30.8061 468.5 29.3333V26.6667ZM473.833 26.6667H471.167V29.3333H473.833V26.6667ZM480.5 24C481.236 24 481.833 24.597 481.833 25.3333V26.6667C481.833 27.403 481.236 28 480.5 28C479.764 28 479.167 27.403 479.167 26.6667V25.3333C479.167 24.597 479.764 24 480.5 24ZM484.5 26.6667C484.5 25.1939 485.694 24 487.167 24H489.833C491.306 24 492.5 25.1939 492.5 26.6667V29.3333C492.5 30.8061 491.306 32 489.833 32H487.167C485.694 32 484.5 30.8061 484.5 29.3333V26.6667ZM489.833 26.6667H487.167V29.3333H489.833V26.6667ZM480.5 30.6667C481.236 30.6667 481.833 31.2636 481.833 32V34.6667H485.847C486.583 34.6667 487.18 35.2636 487.18 36C487.18 36.7364 486.583 37.3333 485.847 37.3333H480.5C479.764 37.3333 479.167 36.7364 479.167 36V32C479.167 31.2636 479.764 30.6667 480.5 30.6667ZM468.5 36C468.5 35.2636 469.097 34.6667 469.833 34.6667H475.167C475.903 34.6667 476.5 35.2636 476.5 36C476.5 36.7364 475.903 37.3333 475.167 37.3333H469.833C469.097 37.3333 468.5 36.7364 468.5 36ZM489.833 36C489.833 35.2636 490.43 34.6667 491.167 34.6667H491.18C491.916 34.6667 492.513 35.2636 492.513 36C492.513 36.7364 491.916 37.3333 491.18 37.3333H491.167C490.43 37.3333 489.833 36.7364 489.833 36ZM468.5 42.6667C468.5 41.1939 469.694 40 471.167 40H473.833C475.306 40 476.5 41.1939 476.5 42.6667V45.3333C476.5 46.8061 475.306 48 473.833 48H471.167C469.694 48 468.5 46.8061 468.5 45.3333V42.6667ZM473.833 42.6667H471.167V45.3333H473.833V42.6667ZM479.167 41.3333C479.167 40.597 479.764 40 480.5 40H483.167C483.903 40 484.5 40.597 484.5 41.3333C484.5 42.0697 483.903 42.6667 483.167 42.6667H481.833V46.6667C481.833 47.403 481.236 48 480.5 48C479.764 48 479.167 47.403 479.167 46.6667V41.3333ZM487.167 41.3333C487.167 40.597 487.764 40 488.5 40H491.167C491.903 40 492.5 40.597 492.5 41.3333C492.5 42.0697 491.903 42.6667 491.167 42.6667H488.5C487.764 42.6667 487.167 42.0697 487.167 41.3333ZM484.5 46.6667C484.5 45.9303 485.097 45.3333 485.833 45.3333H491.167C491.903 45.3333 492.5 45.9303 492.5 46.6667C492.5 47.403 491.903 48 491.167 48H485.833C485.097 48 484.5 47.403 484.5 46.6667Z" fill="#E12B3E"/>
<rect x="82" y="173.5" width="71" height="71" rx="11.5" fill="#F6F8F9"/>
<rect x="82" y="173.5" width="71" height="71" rx="11.5" stroke="#DFE3E6"/>
<path fill-rule="evenodd" clip-rule="evenodd" d="M105.5 199.667C105.5 198.194 106.694 197 108.167 197H110.833C112.306 197 113.5 198.194 113.5 199.667V202.333C113.5 203.806 112.306 205 110.833 205H108.167C106.694 205 105.5 203.806 105.5 202.333V199.667ZM110.833 199.667H108.167V202.333H110.833V199.667ZM117.5 197C118.236 197 118.833 197.597 118.833 198.333V199.667C118.833 200.403 118.236 201 117.5 201C116.764 201 116.167 200.403 116.167 199.667V198.333C116.167 197.597 116.764 197 117.5 197ZM121.5 199.667C121.5 198.194 122.694 197 124.167 197H126.833C128.306 197 129.5 198.194 129.5 199.667V202.333C129.5 203.806 128.306 205 126.833 205H124.167C122.694 205 121.5 203.806 121.5 202.333V199.667ZM126.833 199.667H124.167V202.333H126.833V199.667ZM117.5 203.667C118.236 203.667 118.833 204.264 118.833 205V207.667H122.847C123.583 207.667 124.18 208.264 124.18 209C124.18 209.736 123.583 210.333 122.847 210.333H117.5C116.764 210.333 116.167 209.736 116.167 209V205C116.167 204.264 116.764 203.667 117.5 203.667ZM105.5 209C105.5 208.264 106.097 207.667 106.833 207.667H112.167C112.903 207.667 113.5 208.264 113.5 209C113.5 209.736 112.903 210.333 112.167 210.333H106.833C106.097 210.333 105.5 209.736 105.5 209ZM126.833 209C126.833 208.264 127.43 207.667 128.167 207.667H128.18C128.916 207.667 129.513 208.264 129.513 209C129.513 209.736 128.916 210.333 128.18 210.333H128.167C127.43 210.333 126.833 209.736 126.833 209ZM105.5 215.667C105.5 214.194 106.694 213 108.167 213H110.833C112.306 213 113.5 214.194 113.5 215.667V218.333C113.5 219.806 112.306 221 110.833 221H108.167C106.694 221 105.5 219.806 105.5 218.333V215.667ZM110.833 215.667H108.167V218.333H110.833V215.667ZM116.167 214.333C116.167 213.597 116.764 213 117.5 213H120.167C120.903 213 121.5 213.597 121.5 214.333C121.5 215.07 120.903 215.667 120.167 215.667H118.833V219.667C118.833 220.403 118.236 221 117.5 221C116.764 221 116.167 220.403 116.167 219.667V214.333ZM124.167 214.333C124.167 213.597 124.764 213 125.5 213H128.167C128.903 213 129.5 213.597 129.5 214.333C129.5 215.07 128.903 215.667 128.167 215.667H125.5C124.764 215.667 124.167 215.07 124.167 214.333ZM121.5 219.667C121.5 218.93 122.097 218.333 122.833 218.333H128.167C128.903 218.333 129.5 218.93 129.5 219.667C129.5 220.403 128.903 221 128.167 221H122.833C122.097 221 121.5 220.403 121.5 219.667Z" fill="#E12B3E"/>
<rect x="198" y="138.5" width="132" height="141" rx="11.5" fill="#E12B3E"/>
<rect x="198" y="138.5" width="132" height="141" rx="11.5" stroke="#DFE3E6"/>
<path d="M258.188 197.25H262.859V212.281C262.859 214.031 262.484 215.505 261.734 216.703C260.995 217.901 259.969 218.802 258.656 219.406C257.354 220.01 255.854 220.312 254.156 220.312C252.458 220.312 250.948 220.01 249.625 219.406C248.312 218.802 247.281 217.901 246.531 216.703C245.792 215.505 245.422 214.031 245.422 212.281V197.25H250.109V212.281C250.109 213.302 250.271 214.135 250.594 214.781C250.917 215.427 251.38 215.901 251.984 216.203C252.599 216.505 253.323 216.656 254.156 216.656C255.01 216.656 255.734 216.505 256.328 216.203C256.932 215.901 257.391 215.427 257.703 214.781C258.026 214.135 258.188 213.302 258.188 212.281V197.25ZM278.562 214.047C278.562 213.641 278.5 213.276 278.375 212.953C278.26 212.62 278.042 212.318 277.719 212.047C277.396 211.766 276.943 211.49 276.359 211.219C275.776 210.948 275.021 210.667 274.094 210.375C273.062 210.042 272.083 209.667 271.156 209.25C270.24 208.833 269.427 208.349 268.719 207.797C268.021 207.234 267.469 206.583 267.062 205.844C266.667 205.104 266.469 204.245 266.469 203.266C266.469 202.318 266.677 201.458 267.094 200.688C267.51 199.906 268.094 199.24 268.844 198.688C269.594 198.125 270.479 197.693 271.5 197.391C272.531 197.089 273.661 196.938 274.891 196.938C276.568 196.938 278.031 197.24 279.281 197.844C280.531 198.448 281.5 199.276 282.188 200.328C282.885 201.38 283.234 202.583 283.234 203.938H278.578C278.578 203.271 278.438 202.688 278.156 202.188C277.885 201.677 277.469 201.276 276.906 200.984C276.354 200.693 275.656 200.547 274.812 200.547C274 200.547 273.323 200.672 272.781 200.922C272.24 201.161 271.833 201.49 271.562 201.906C271.292 202.312 271.156 202.771 271.156 203.281C271.156 203.667 271.25 204.016 271.438 204.328C271.635 204.641 271.927 204.932 272.312 205.203C272.698 205.474 273.172 205.729 273.734 205.969C274.297 206.208 274.948 206.443 275.688 206.672C276.927 207.047 278.016 207.469 278.953 207.938C279.901 208.406 280.693 208.932 281.328 209.516C281.964 210.099 282.443 210.76 282.766 211.5C283.089 212.24 283.25 213.078 283.25 214.016C283.25 215.005 283.057 215.891 282.672 216.672C282.286 217.453 281.729 218.115 281 218.656C280.271 219.198 279.401 219.609 278.391 219.891C277.38 220.172 276.25 220.312 275 220.312C273.875 220.312 272.766 220.167 271.672 219.875C270.578 219.573 269.583 219.12 268.688 218.516C267.802 217.911 267.094 217.141 266.562 216.203C266.031 215.266 265.766 214.156 265.766 212.875H270.469C270.469 213.583 270.578 214.182 270.797 214.672C271.016 215.161 271.323 215.557 271.719 215.859C272.125 216.161 272.604 216.38 273.156 216.516C273.719 216.651 274.333 216.719 275 216.719C275.812 216.719 276.479 216.604 277 216.375C277.531 216.146 277.922 215.828 278.172 215.422C278.432 215.016 278.562 214.557 278.562 214.047Z" fill="white"/>
<rect x="364" y="173.5" width="71" height="71" rx="11.5" fill="#F6F8F9"/>
<rect x="364" y="173.5" width="71" height="71" rx="11.5" stroke="#DFE3E6"/>
<path fill-rule="evenodd" clip-rule="evenodd" d="M387.5 199.667C387.5 198.194 388.694 197 390.167 197H392.833C394.306 197 395.5 198.194 395.5 199.667V202.333C395.5 203.806 394.306 205 392.833 205H390.167C388.694 205 387.5 203.806 387.5 202.333V199.667ZM392.833 199.667H390.167V202.333H392.833V199.667ZM399.5 197C400.236 197 400.833 197.597 400.833 198.333V199.667C400.833 200.403 400.236 201 399.5 201C398.764 201 398.167 200.403 398.167 199.667V198.333C398.167 197.597 398.764 197 399.5 197ZM403.5 199.667C403.5 198.194 404.694 197 406.167 197H408.833C410.306 197 411.5 198.194 411.5 199.667V202.333C411.5 203.806 410.306 205 408.833 205H406.167C404.694 205 403.5 203.806 403.5 202.333V199.667ZM408.833 199.667H406.167V202.333H408.833V199.667ZM399.5 203.667C400.236 203.667 400.833 204.264 400.833 205V207.667H404.847C405.583 207.667 406.18 208.264 406.18 209C406.18 209.736 405.583 210.333 404.847 210.333H399.5C398.764 210.333 398.167 209.736 398.167 209V205C398.167 204.264 398.764 203.667 399.5 203.667ZM387.5 209C387.5 208.264 388.097 207.667 388.833 207.667H394.167C394.903 207.667 395.5 208.264 395.5 209C395.5 209.736 394.903 210.333 394.167 210.333H388.833C388.097 210.333 387.5 209.736 387.5 209ZM408.833 209C408.833 208.264 409.43 207.667 410.167 207.667H410.18C410.916 207.667 411.513 208.264 411.513 209C411.513 209.736 410.916 210.333 410.18 210.333H410.167C409.43 210.333 408.833 209.736 408.833 209ZM387.5 215.667C387.5 214.194 388.694 213 390.167 213H392.833C394.306 213 395.5 214.194 395.5 215.667V218.333C395.5 219.806 394.306 221 392.833 221H390.167C388.694 221 387.5 219.806 387.5 218.333V215.667ZM392.833 215.667H390.167V218.333H392.833V215.667ZM398.167 214.333C398.167 213.597 398.764 213 399.5 213H402.167C402.903 213 403.5 213.597 403.5 214.333C403.5 215.07 402.903 215.667 402.167 215.667H400.833V219.667C400.833 220.403 400.236 221 399.5 221C398.764 221 398.167 220.403 398.167 219.667V214.333ZM406.167 214.333C406.167 213.597 406.764 213 407.5 213H410.167C410.903 213 411.5 213.597 411.5 214.333C411.5 215.07 410.903 215.667 410.167 215.667H407.5C406.764 215.667 406.167 215.07 406.167 214.333ZM403.5 219.667C403.5 218.93 404.097 218.333 404.833 218.333H410.167C410.903 218.333 411.5 218.93 411.5 219.667C411.5 220.403 410.903 221 410.167 221H404.833C404.097 221 403.5 220.403 403.5 219.667Z" fill="#E12B3E"/>
</svg>
