<svg width="256" height="173" viewBox="0 0 256 173" fill="none" xmlns="http://www.w3.org/2000/svg">
<rect width="256" height="173" rx="12" fill="#DEDEDE"/>
<g clip-path="url(#clip0_1_6390)">
<path fill-rule="evenodd" clip-rule="evenodd" d="M54.8655 28.2737C47.2078 28.2737 41 34.4558 41 42.0818V131.835C41 139.461 47.2078 145.643 54.8655 145.643H127.659V28.2737H54.8655ZM64.6587 92.9368C60.0368 90.2794 60.0368 83.636 64.6587 80.9786L96.0138 62.9504C100.635 60.293 106.413 63.6149 106.413 68.9296V104.985C106.413 110.3 100.635 113.622 96.0138 110.965L64.6587 92.9368Z" fill="#FBB130"/>
<path fill-rule="evenodd" clip-rule="evenodd" d="M54.8655 28.2737C47.2078 28.2737 41 34.4558 41 42.0818V131.835C41 139.461 47.2078 145.643 54.8655 145.643H127.659V28.2737H54.8655ZM64.6587 92.9368C60.0368 90.2794 60.0368 83.636 64.6587 80.9786L96.0138 62.9504C100.635 60.293 106.413 63.6149 106.413 68.9296V104.985C106.413 110.3 100.635 113.622 96.0138 110.965L64.6587 92.9368Z" fill="url(#paint0_linear_1_6390)" fill-opacity="0.2"/>
<path fill-rule="evenodd" clip-rule="evenodd" d="M200.453 28.2737H127.659V145.643H200.453C208.111 145.643 214.318 139.461 214.318 131.835V42.0818C214.318 34.4558 208.111 28.2737 200.453 28.2737ZM190.658 92.9368C195.28 90.2794 195.28 83.636 190.658 80.9786L159.303 62.9504C154.682 60.293 148.904 63.6149 148.904 68.9296V104.985C148.904 110.3 154.682 113.622 159.303 110.965L190.658 92.9368Z" fill="#00CEB3"/>
<path fill-rule="evenodd" clip-rule="evenodd" d="M200.453 28.2737H127.659V145.643H200.453C208.111 145.643 214.318 139.461 214.318 131.835V42.0818C214.318 34.4558 208.111 28.2737 200.453 28.2737ZM190.658 92.9368C195.28 90.2794 195.28 83.636 190.658 80.9786L159.303 62.9504C154.682 60.293 148.904 63.6149 148.904 68.9296V104.985C148.904 110.3 154.682 113.622 159.303 110.965L190.658 92.9368Z" fill="url(#paint1_linear_1_6390)" fill-opacity="0.2"/>
<path d="M120.729 21.4372C120.729 17.4437 123.833 14.2063 127.662 14.2063C131.491 14.2063 134.595 17.4437 134.595 21.4372V151.961C134.595 155.954 131.491 159.192 127.662 159.192C123.833 159.192 120.729 155.954 120.729 151.961V21.4372Z" fill="#93407D"/>
<path d="M120.729 21.4372C120.729 17.4437 123.833 14.2063 127.662 14.2063C131.491 14.2063 134.595 17.4437 134.595 21.4372V151.961C134.595 155.954 131.491 159.192 127.662 159.192C123.833 159.192 120.729 155.954 120.729 151.961V21.4372Z" fill="url(#paint2_linear_1_6390)" fill-opacity="0.2"/>
</g>
<defs>
<linearGradient id="paint0_linear_1_6390" x1="41" y1="28.2737" x2="145.755" y2="47.61" gradientUnits="userSpaceOnUse">
<stop stop-color="white"/>
<stop offset="1" stop-color="white" stop-opacity="0"/>
</linearGradient>
<linearGradient id="paint1_linear_1_6390" x1="127.659" y1="28.2737" x2="232.414" y2="47.61" gradientUnits="userSpaceOnUse">
<stop stop-color="white"/>
<stop offset="1" stop-color="white" stop-opacity="0"/>
</linearGradient>
<linearGradient id="paint2_linear_1_6390" x1="120.729" y1="14.2063" x2="138.052" y2="14.6204" gradientUnits="userSpaceOnUse">
<stop stop-color="white"/>
<stop offset="1" stop-color="white" stop-opacity="0"/>
</linearGradient>
<clipPath id="clip0_1_6390">
<rect width="173.319" height="172.602" fill="white" transform="translate(41 0.398438)"/>
</clipPath>
</defs>
</svg>
