<svg width="256" height="173" viewBox="0 0 256 173" fill="none" xmlns="http://www.w3.org/2000/svg">
<rect width="256" height="173" rx="12" fill="#DEDEDE"/>
<path d="M54.8398 86.891C54.8398 46.9431 87.3584 14.5591 127.472 14.5591C167.586 14.5591 200.105 46.9431 200.105 86.891C200.105 126.839 167.586 159.223 127.472 159.223H65.6002C59.6574 159.223 54.8398 154.425 54.8398 148.507V86.891Z" fill="#F85318"/>
<path d="M54.8398 86.891C54.8398 46.9431 87.3584 14.5591 127.472 14.5591C167.586 14.5591 200.105 46.9431 200.105 86.891C200.105 126.839 167.586 159.223 127.472 159.223H65.6002C59.6574 159.223 54.8398 154.425 54.8398 148.507V86.891Z" fill="url(#paint0_linear_1_6752)" fill-opacity="0.2"/>
<path d="M60.953 158.175C123.841 150.118 172.435 96.601 172.435 31.781C172.435 31.2105 172.431 30.6409 172.424 30.0722C160.059 20.3569 144.445 14.5591 127.472 14.5591C87.3584 14.5591 54.8398 46.9431 54.8398 86.891V148.507C54.8398 152.768 57.3368 156.448 60.953 158.175Z" fill="#F77B09"/>
<path d="M60.953 158.175C123.841 150.118 172.435 96.601 172.435 31.781C172.435 31.2105 172.431 30.6409 172.424 30.0722C160.059 20.3569 144.445 14.5591 127.472 14.5591C87.3584 14.5591 54.8398 46.9431 54.8398 86.891V148.507C54.8398 152.768 57.3368 156.448 60.953 158.175Z" fill="url(#paint1_linear_1_6752)" fill-opacity="0.2"/>
<defs>
<linearGradient id="paint0_linear_1_6752" x1="54.8398" y1="14.5591" x2="225.656" y2="57.4404" gradientUnits="userSpaceOnUse">
<stop stop-color="white"/>
<stop offset="1" stop-color="white" stop-opacity="0"/>
</linearGradient>
<linearGradient id="paint1_linear_1_6752" x1="54.8398" y1="14.5591" x2="195.922" y2="43.4394" gradientUnits="userSpaceOnUse">
<stop stop-color="white"/>
<stop offset="1" stop-color="white" stop-opacity="0"/>
</linearGradient>
</defs>
</svg>
