<svg width="24" height="24" viewBox="0 0 24 24" fill="none" xmlns="http://www.w3.org/2000/svg">
<path d="M23.9977 9.13185C23.9977 8.77872 23.6438 8.54121 23.3268 8.68161L9.88681 14.6351C9.71127 14.7129 9.59766 14.8898 9.59766 15.0853V19.67C9.59766 19.9409 9.81255 20.1606 10.0777 20.1606H22.0777C23.138 20.1606 23.9977 19.2819 23.9977 18.1979V9.13185Z" fill="#FC787D"/>
<path d="M23.9977 9.13185C23.9977 8.77872 23.6438 8.54121 23.3268 8.68161L9.88681 14.6351C9.71127 14.7129 9.59766 14.8898 9.59766 15.0853V19.67C9.59766 19.9409 9.81255 20.1606 10.0777 20.1606H22.0777C23.138 20.1606 23.9977 19.2819 23.9977 18.1979V9.13185Z" fill="url(#paint0_linear_1_4859)" fill-opacity="0.2"/>
<path d="M20.1588 6.72888C20.1588 6.38242 19.8138 6.14621 19.4982 6.27662L5.09816 12.226C4.9172 12.3008 4.79883 12.4797 4.79883 12.6783V19.6721C4.79883 19.9417 5.01372 20.1602 5.27883 20.1602H18.2388C19.2992 20.1602 20.1588 19.286 20.1588 18.2076V6.72888Z" fill="#93407D"/>
<path d="M20.1588 6.72888C20.1588 6.38242 19.8138 6.14621 19.4982 6.27662L5.09816 12.226C4.9172 12.3008 4.79883 12.4797 4.79883 12.6783V19.6721C4.79883 19.9417 5.01372 20.1602 5.27883 20.1602H18.2388C19.2992 20.1602 20.1588 19.286 20.1588 18.2076V6.72888Z" fill="url(#paint1_linear_1_4859)" fill-opacity="0.2"/>
<path d="M20.1577 10.085L9.88681 14.6346C9.71127 14.7124 9.59766 14.8893 9.59766 15.0848V19.6695C9.59766 19.9404 9.81255 20.1601 10.0777 20.1601H18.2377C19.298 20.1601 20.1577 19.2859 20.1577 18.2075V10.085Z" fill="#911E3D"/>
<path d="M20.1577 10.085L9.88681 14.6346C9.71127 14.7124 9.59766 14.8893 9.59766 15.0848V19.6695C9.59766 19.9404 9.81255 20.1601 10.0777 20.1601H18.2377C19.298 20.1601 20.1577 19.2859 20.1577 18.2075V10.085Z" fill="url(#paint2_linear_1_4859)" fill-opacity="0.2"/>
<path d="M15.36 4.32727C15.36 3.98166 15.015 3.74606 14.6993 3.87614L0.299339 9.81071C0.118369 9.8853 0 10.0637 0 10.2619V19.6729C0 19.9418 0.214903 20.1598 0.48 20.1598H13.44C14.5004 20.1598 15.36 19.2878 15.36 18.2121V4.32727Z" fill="#1BB6F9"/>
<path d="M15.36 4.32727C15.36 3.98166 15.015 3.74606 14.6993 3.87614L0.299339 9.81071C0.118369 9.8853 0 10.0637 0 10.2619V19.6729C0 19.9418 0.214903 20.1598 0.48 20.1598H13.44C14.5004 20.1598 15.36 19.2878 15.36 18.2121V4.32727Z" fill="url(#paint3_linear_1_4859)" fill-opacity="0.2"/>
<path d="M15.3588 7.98633L5.09816 12.2255C4.9172 12.3003 4.79883 12.4792 4.79883 12.6778V19.6716C4.79883 19.9412 5.01372 20.1598 5.27883 20.1598H13.4388C14.4992 20.1598 15.3588 19.2877 15.3588 18.212V7.98633Z" fill="#102E7A"/>
<path d="M15.3588 7.98633L5.09816 12.2255C4.9172 12.3003 4.79883 12.4792 4.79883 12.6778V19.6716C4.79883 19.9412 5.01372 20.1598 5.27883 20.1598H13.4388C14.4992 20.1598 15.3588 19.2877 15.3588 18.212V7.98633Z" fill="url(#paint4_linear_1_4859)" fill-opacity="0.3"/>
<defs>
<linearGradient id="paint0_linear_1_4859" x1="9.59766" y1="8.64062" x2="25.9962" y2="13.7652" gradientUnits="userSpaceOnUse">
<stop stop-color="white"/>
<stop offset="1" stop-color="white" stop-opacity="0"/>
</linearGradient>
<linearGradient id="paint1_linear_1_4859" x1="4.79883" y1="6.24024" x2="22.6411" y2="11.1622" gradientUnits="userSpaceOnUse">
<stop stop-color="white"/>
<stop offset="1" stop-color="white" stop-opacity="0"/>
</linearGradient>
<linearGradient id="paint2_linear_1_4859" x1="9.59766" y1="10.085" x2="21.9496" y2="13.3215" gradientUnits="userSpaceOnUse">
<stop stop-color="white"/>
<stop offset="1" stop-color="white" stop-opacity="0"/>
</linearGradient>
<linearGradient id="paint3_linear_1_4859" x1="1.21631e-08" y1="3.83984" x2="18.1928" y2="8.12048" gradientUnits="userSpaceOnUse">
<stop stop-color="white"/>
<stop offset="1" stop-color="white" stop-opacity="0"/>
</linearGradient>
<linearGradient id="paint4_linear_1_4859" x1="4.79883" y1="7.98633" x2="17.4059" y2="10.7204" gradientUnits="userSpaceOnUse">
<stop stop-color="white"/>
<stop offset="1" stop-color="white" stop-opacity="0"/>
</linearGradient>
</defs>
</svg>
