<svg width="32" height="33" viewBox="0 0 32 33" fill="none" xmlns="http://www.w3.org/2000/svg">
<rect y="0.0197754" width="32" height="32" rx="5" fill="#FAE0E1"/>
<path fill-rule="evenodd" clip-rule="evenodd" d="M11.6649 7.51984C9.13488 7.51984 7.49988 9.25284 7.49988 11.9358V20.1038C7.49988 22.7868 9.13488 24.5198 11.6649 24.5198H20.3329C22.8639 24.5198 24.4999 22.7868 24.4999 20.1038V11.9358C24.4999 9.25284 22.8639 7.51984 20.3339 7.51984H11.6649ZM20.333 26.0198H11.665C8.276 26.0198 6 23.6418 6 20.1038V11.9358C6 8.39778 8.276 6.01978 11.665 6.01978H20.334C23.723 6.01978 26 8.39778 26 11.9358V20.1038C26 23.6418 23.723 26.0198 20.333 26.0198V26.0198Z" fill="#131126"/>
<path fill-rule="evenodd" clip-rule="evenodd" d="M14.8137 19.1427C14.6227 19.1427 14.4297 19.0697 14.2837 18.9227L11.9097 16.5497C11.6167 16.2567 11.6167 15.7827 11.9097 15.4897C12.2027 15.1967 12.6767 15.1967 12.9697 15.4897L14.8137 17.3317L19.0297 13.1167C19.3227 12.8237 19.7967 12.8237 20.0897 13.1167C20.3827 13.4097 20.3827 13.8837 20.0897 14.1767L15.3437 18.9227C15.1977 19.0697 15.0057 19.1427 14.8137 19.1427" fill="#131126"/>
</svg>
